<?xml version="1.0" encoding="UTF-8"?>
<svg id="_レイヤー_2" data-name="レイヤー 2" xmlns="http://www.w3.org/2000/svg" viewBox="0 0 484.2240805 75.7204696">
  <defs>
    <style>
      .cls-1 {
        fill: none;
        stroke: #000;
        stroke-linecap: round;
        stroke-miterlimit: 10;
        stroke-width: 2px;
      }

      .cls-2 {
        fill: #231815;
      }
    </style>
  </defs>
  <g id="_レイヤー_1-2" data-name="レイヤー 1">
    <g>
      <g>
        <path class="cls-2" d="m73.7067349,24.7253524c-1.1894531-.2495117-2.1445312-.6547852-2.8642578-1.2148438-.9208984-.7202148-1.3808594-1.7099609-1.3808594-2.9702148,0-.5595703.0605469-1.0195312.1806641-1.3798828.1201172-.3793945.2392578-.5698242.359375-.5698242.1601562,0,.2402344.1904297.2402344.5698242v.4501953c0,1.2402344.7294922,2.1401367,2.1904297,2.699707.9599609.3603516,2.1396484.5400391,3.5400391.5400391,1.1396484,0,2.7294922-.1694336,4.7695312-.5097656,1.1796875-.1801758,1.9394531-.2700195,2.2802734-.2700195.5195312,0,.9150391.1000977,1.1845703.2998047.2705078.2001953.4052734.4702148.4052734.8100586,0,.5600586-.5.9902344-1.5,1.2900391-.5996094.1801758-1.3945312.3300781-2.3847656.4501953-.9902344.1196289-2.0253906.1796875-3.1054688.1796875-1.4199219,0-2.7246094-.1245117-3.9150391-.375Zm.7050781-14.0546875c0-.1000977.0605469-.2099609.1806641-.3300781.3398438-.3398438.7792969-.7299805,1.3193359-1.1699219.3203125-.2797852.6103516-.5400391.8701172-.7802734.2597656-.2397461.3896484-.3896484.3896484-.449707,0-.2202148-.4101562-.3999023-1.2294922-.5400391-.7402344-.1396484-1.4453125-.3950195-2.1152344-.7651367-.6699219-.3696289-1.1552734-.7246094-1.4550781-1.0649414-.0800781-.1000977-.1552734-.2197266-.2246094-.3598633-.0703125-.1396484-.1054688-.2597656-.1054688-.3603516,0-.0795898.0195312-.1196289.0605469-.1196289l.1201172.0297852c.0595703.0405273.1542969.0952148.2841797.1650391.1298828.0703125.3154297.1650391.5556641.2851562.4794922.2397461,1.0800781.4399414,1.7998047.5996094.7197266.1606445,1.359375.2402344,1.9199219.2402344.5400391,0,1.1601562-.0498047,1.8603516-.1499023.7197266-.0795898,1.2197266-.1201172,1.5-.1201172.2392578,0,.4501953.0297852.6298828.0898438.859375.300293,1.2900391.7304688,1.2900391,1.2900391,0,.2402344-.1054688.4199219-.3154297.5400391s-.6748047.2202148-1.3945312.300293c-1.6601562.2202148-3.4404297,1.0795898-5.3398438,2.5795898-.2001953.1401367-.3505859.2099609-.4501953.2099609-.1005859,0-.1503906-.0395508-.1503906-.1196289Z"/>
        <path class="cls-2" d="m112.6315396,5.4055282c1.6806641.6899414,3.0947266,1.7998047,4.2451172,3.3300781,1.1503906,1.5297852,1.7255859,3.4848633,1.7255859,5.8647461,0,3.1201172-.9550781,5.5004883-2.8652344,7.1401367-1.9101562,1.6401367-3.9501953,2.7050781-6.1201172,3.1948242-2.1699219.4902344-3.9853516.7353516-5.4453125.7353516-.2802734,0-.4199219-.050293-.4199219-.1499023,0-.1201172.4003906-.25,1.2001953-.3901367,3.4199219-.6000977,6.2001953-1.75,8.3398438-3.4501953,2.140625-1.699707,3.2099609-4.0996094,3.2099609-7.199707,0-2.1201172-.4550781-3.8652344-1.3642578-5.2353516-.9111328-1.3696289-2.0654297-2.3696289-3.4658203-3-1.3994141-.6298828-2.8603516-.9448242-4.3798828-.9448242-.3398438,0-.5898438.0102539-.75.0297852.2597656.5205078.4599609,1.1503906.6005859,1.8901367.1396484.7402344.2099609,1.4101562.2099609,2.0102539,0,1.4799805-.3603516,3.1796875-1.0800781,5.0996094-.6601562,1.7802734-1.4150391,3.3256836-2.265625,4.6352539-.8496094,1.3100586-1.6699219,2.300293-2.4599609,2.9697266-.7900391.6704102-1.4248047,1.0053711-1.9042969,1.0053711-.7207031,0-1.3955078-.3549805-2.0253906-1.0649414s-1.1298828-1.6450195-1.5-2.8051758c-.3701172-1.159668-.5546875-2.3701172-.5546875-3.6298828,0-2.1601562.5693359-4.0849609,1.7099609-5.7753906,1.1396484-1.6894531,2.6396484-2.9946289,4.5-3.9145508,1.859375-.9199219,3.8095703-1.3803711,5.8496094-1.3803711,1.6601562,0,3.3300781.3452148,5.0097656,1.0351562Zm-6.5693359-.0151367c-1.5605469.2001953-3.0048828.7353516-4.3349609,1.6049805-1.3300781.8701172-2.3955078,2.0151367-3.1953125,3.4350586-.7998047,1.4204102-1.2001953,3.0200195-1.2001953,4.800293,0,1.199707.1455078,2.2001953.4355469,3,.2890625.7998047.6142578,1.3901367.9746094,1.7700195s.6494141.5698242.8701172.5698242c.5,0,1.0947266-.375,1.7851562-1.125.6894531-.75,1.3242188-1.5849609,1.9052734-2.5048828,1.1191406-1.7402344,1.9140625-3.3452148,2.3847656-4.8149414.4697266-1.4702148.7050781-2.9350586.7050781-4.3950195,0-.8798828-.1103516-1.6601562-.3300781-2.340332Z"/>
        <path class="cls-2" d="m133.6022427,1.4304305c.0595703-.0600586.1542969-.1796875.2851562-.3598633.1298828-.1801758.2548828-.2700195.375-.2700195.1591797,0,.4941406.2202148,1.0048828.6601562.5097656.4399414.8349609.7900391.9746094,1.0498047.0605469.1000977.0400391.2001953-.0595703.2998047-.2607422.2207031-.5703125.3603516-.9306641.4204102v2.699707c.0605469,2.2602539.1298828,3.9501953.2099609,5.0703125,0,.1196289-.0400391.2202148-.1191406.2998047-.1806641.1601562-.4355469.3051758-.765625.4350586-.3300781.1303711-.625.1948242-.8847656.1948242-.1601562,0-.2402344-.0795898-.2402344-.2397461v-1.1103516h-6.0595703v9.0302734c.0400391,2.4799805.1201172,4.7802734.2392578,6.8999023,0,.1000977-.0292969.1899414-.0898438.2700195-.1601562.2197266-.3847656.409668-.6748047.5698242s-.6054688.2402344-.9453125.2402344c-.1796875,0-.3398438-.0600586-.4794922-.1801758-.140625-.1201172-.2099609-.2602539-.2099609-.4199219.0791016-1.1801758.1494141-2.3251953.2099609-3.4350586.0595703-1.1098633.0996094-2.5649414.1201172-4.3647461V7.1003524c0-2.359375-.1103516-4.2998047-.3300781-5.8198242v-.0600586c0-.0795898.0244141-.1298828.0751953-.1499023.0498047-.0195312.1142578-.0097656.1943359.0297852l2.0400391.9599609h5.640625l.4199219-.6298828Zm-.1503906,4.4101562v-2.8798828h-6.0595703v2.8798828h6.0595703Zm-6.0595703.8701172v3h6.0595703v-3h-6.0595703Zm6.1494141,17.7900391c0,.1000977-.1650391.2299805-.4951172.3896484-.3291016.1606445-.6650391.2402344-1.0048828.2402344-.1396484,0-.2548828-.0600586-.3447266-.1801758s-.1347656-.2597656-.1347656-.4199219c.0791016-.9399414.1396484-2.1098633.1796875-3.5097656v-2.0703125c0-2.359375-.1103516-4.2998047-.3300781-5.8198242v-.0600586c0-.0795898.0253906-.1298828.0751953-.1499023s.1152344-.0097656.1953125.0297852l1.9794922.9301758h6.6298828l.4199219-.5703125c.0605469-.0595703.1503906-.1694336.2705078-.3295898s.2402344-.2402344.3603516-.2402344c.1796875,0,.5292969.1948242,1.0498047.5849609.5195312.3901367.8398438.715332.9599609.9750977.0595703.0800781.0400391.1699219-.0605469.2700195-.2392578.2397461-.5498047.3901367-.9296875.4501953v3.0595703c.0595703,2.5605469.1298828,4.4804688.2099609,5.7602539,0,.1201172-.0400391.2202148-.1201172.2998047-.1796875.1801758-.4345703.3452148-.7646484.4951172s-.6259766.2250977-.8847656.2250977c-.1806641,0-.3105469-.1499023-.390625-.4501953,0-.0395508.0195312-.1396484.0605469-.2998047,0-.0195312.0195312-.1298828.0595703-.3300781v-.5400391h-6.9902344v1.2602539Zm6.9902344-6.5102539v-3.2700195h-6.9902344v3.2700195h6.9902344Zm-6.9902344.8999023v3.4501953h6.9902344v-3.4501953h-6.9902344Zm6.9599609-7.6499023c0,.1005859-.1748047.2250977-.5244141.375-.3505859.1499023-.7050781.2250977-1.0654297.2250977-.1201172,0-.2197266-.0600586-.2998047-.1801758s-.1201172-.2597656-.1201172-.4199219c.0800781-.7597656.1396484-1.7397461.1796875-2.9399414v-1.7998047c0-1.9599609-.0898438-3.6699219-.2695312-5.1303711v-.0600586c0-.1396484.0800781-.1796875.2402344-.1196289l1.9794922.8696289h5.8798828l.4199219-.5996094c.0605469-.0800781.1503906-.2050781.2705078-.375s.2402344-.2553711.3603516-.2553711c.1796875,0,.5644531.2207031,1.1542969.6601562.5898438.4404297.9648438.800293,1.125,1.0800781.0605469.0800781.0400391.1699219-.0595703.2700195-.2802734.2602539-.6601562.4301758-1.140625.5097656v21.3603516c0,.5795898-.0595703,1.0546875-.1796875,1.4248047-.1201172.3696289-.3847656.6796875-.7949219.9301758-.4101562.2495117-1.015625.4243164-1.8144531.5249023h-.0605469c-.1005859,0-.1699219-.0703125-.2099609-.2099609-.0595703-.5600586-.2402344-.9702148-.5400391-1.2299805-.4404297-.300293-1.1904297-.550293-2.25-.75-.1601562-.0405273-.2402344-.1201172-.2402344-.2402344v-.0297852c0-.1801758.0800781-.25.2402344-.2099609,1.6796875.1401367,2.7792969.2099609,3.2998047.2099609.2597656,0,.4453125-.0498047.5556641-.1499023.109375-.1000977.1650391-.2700195.1650391-.5102539v-13.8901367h-6.3007812v.6601562Zm6.3007812-5.3999023v-2.8798828h-6.3007812v2.8798828h6.3007812Zm-6.3007812.8701172v3h6.3007812v-3h-6.3007812Z"/>
        <path class="cls-2" d="m180.6120083,25.4607039c.0996094.0600586.1503906.1298828.1503906.2099609,0,.0795898-.015625.1347656-.0449219.1650391-.0302734.0297852-.0957031.0546875-.1953125.074707-.7001953.1396484-1.1806641.5-1.4404297,1.0800781-.0595703.1801758-.1601562.2197266-.2998047.1201172-2.2597656-1.6401367-4.1201172-3.75-5.5800781-6.3300781-1.8798828,2.4799805-4.0996094,4.4804688-6.6601562,6-.1396484.0996094-.25.0898438-.3300781-.0297852l-.1494141-.1801758c0,.0600586-.0302734.1298828-.0898438.2099609-.1806641.2197266-.4199219.409668-.7207031.5698242-.2998047.1601562-.6396484.2402344-1.0195312.2402344-.140625,0-.2607422-.0600586-.3603516-.1801758s-.1494141-.2602539-.1494141-.4199219c.0791016-1.1201172.1494141-2.6401367.2099609-4.5600586v-2.5800781c-3.1005859,1.3803711-5.8798828,2.550293-8.3398438,3.5102539-.0810547.2802734-.2304688.4799805-.4501953.6000977-.0205078.0200195-.0507812.0297852-.0898438.0297852-.1005859,0-.1708984-.0498047-.2099609-.1499023l-.9306641-2.1000977c-.0595703-.1801758-.0097656-.2797852.1503906-.2998047.8798828-.1601562,1.7998047-.3496094,2.7597656-.5703125V3.5603133h-.9296875c-.4003906.0205078-.8105469.1303711-1.2304688.3300781-.1396484.0600586-.2402344.0205078-.2998047-.1196289l-.5097656-1.050293c-.0205078-.0195312-.0302734-.0600586-.0302734-.1201172,0-.0996094.0703125-.1499023.2099609-.1499023,1.0996094.1005859,2.3203125.1704102,3.6601562.2099609h8.3701172l.6298828-.8701172c.0595703-.0795898.1542969-.2045898.2851562-.375.1298828-.1694336.234375-.2944336.3144531-.375.0800781-.0795898.1601562-.1196289.2402344-.1196289.1601562,0,.5595703.2651367,1.2001953.7949219.6396484.5302734,1.0292969.9350586,1.1699219,1.2148438.0195312.1005859.0097656.2001953-.0302734.300293-.1201172.2202148-.359375.3295898-.7197266.3295898h-3.3300781v16.050293c.0400391,2.5.1201172,4.7900391.2402344,6.8701172,2.4794922-1.8798828,4.5898438-4.2797852,6.3300781-7.2001953-1.7607422-3.4995117-2.9404297-7.75-3.5400391-12.75h-.7207031c-.2802734.0405273-.5498047.1303711-.8095703.2700195-.1601562.1000977-.2695312.0703125-.3300781-.0898438l-.5097656-1.0200195c-.0205078-.0200195-.0302734-.0600586-.0302734-.1201172,0-.1000977.0703125-.1499023.2099609-.1499023,1.0996094.1000977,2.3203125.1699219,3.6601562.2099609h6.3603516l.5400391-.6298828c.0595703-.0800781.1689453-.2104492.3300781-.3901367.1591797-.1801758.2998047-.2700195.4199219-.2700195.1591797,0,.4990234.2451172,1.0195312.7348633.5195312.4902344.8496094.8852539.9902344,1.1850586.0595703.1201172.0302734.2202148-.0898438.2998047-.1806641.1201172-.5107422.2104492-.9902344.2700195-1,5.0400391-2.5605469,9.2001953-4.6796875,12.4799805,1.7998047,2.5800781,3.9296875,4.6303711,6.3896484,6.1503906Zm-21.9296875-17.0400391h5.25V3.5603133h-5.25v4.8603516Zm0,5.8198242h5.25v-4.9501953h-5.25v4.9501953Zm5.25.8701172h-5.25v5.3398438c1.6201172-.3598633,3.3691406-.7895508,5.25-1.2900391v-4.0498047Zm5.6396484-8.5800781c.6201172,4.2597656,1.8398438,7.9902344,3.6601562,11.1899414,1.6796875-3.2197266,2.8798828-6.949707,3.5996094-11.1899414h-7.2597656Z"/>
        <path class="cls-2" d="m200.2321255,7.4006453c.6796875.6401367,1.2294922,1.5400391,1.6494141,2.699707.4208984,1.1601562.6308594,2.5004883.6308594,4.0200195,0,3.0405273-.6552734,5.6000977-1.9658203,7.6801758-1.3095703,2.0800781-3.4648438,3.6098633-6.4648438,4.5898438-.2197266.0795898-.4003906.1201172-.5400391.1201172-.1796875,0-.2695312-.0703125-.2695312-.2099609,0-.0800781.0498047-.1499023.1494141-.2099609,2.6005859-1.0996094,4.4257812-2.7397461,5.4755859-4.9199219,1.0498047-2.1796875,1.5751953-4.4702148,1.5751953-6.8701172,0-1.8798828-.2509766-3.4848633-.75-4.8149414-.5009766-1.3300781-1.1699219-1.9951172-2.0107422-1.9951172-.6591797,0-1.2900391.4052734-1.8896484,1.2148438-.5996094.8100586-1.0898438,1.7602539-1.4697266,2.8500977-.3808594,1.090332-.5703125,1.9951172-.5703125,2.715332,0,.3398438.0546875.6650391.1650391.9746094.109375.3105469.2744141.6655273.4951172,1.0649414.1201172.2402344.2294922.4907227.3300781.75.0996094.2602539.1494141.4799805.1494141.6601562,0,.2001953-.0644531.3652344-.1943359.4951172-.1308594.1303711-.3056641.1948242-.5253906.1948242-.5,0-.9404297-.2348633-1.3203125-.7050781-.3798828-.4697266-.6650391-1.0498047-.8544922-1.7397461-.1904297-.6899414-.2851562-1.3447266-.2851562-1.9648438,0-.840332.1054688-1.800293.3154297-2.8803711s.4951172-2.3896484.8544922-3.9296875c.1806641-.7597656.3398438-1.4897461.4804688-2.1899414.1396484-.7001953.2099609-1.2001953.2099609-1.5,0-.4599609-.1503906-.8500977-.4501953-1.1704102-.1005859-.1196289-.2353516-.2548828-.4052734-.4047852s-.2548828-.2749023-.2548828-.375.0703125-.1801758.2099609-.2402344c.1396484-.0595703.3095703-.0898438.5097656-.0898438.5,0,.9306641.2250977,1.2900391.675293.3603516.449707.5400391,1.0249023.5400391,1.7246094,0,.6601562-.0849609,1.3251953-.2548828,1.9951172-.1699219.6704102-.4248047,1.5351562-.7646484,2.5952148l-.2998047.8999023c-.2001953.6000977-.3300781,1.2299805-.390625,1.8901367.6201172-1.3999023,1.3056641-2.5097656,2.0556641-3.3300781.75-.8198242,1.6650391-1.2299805,2.7441406-1.2299805.7207031,0,1.4199219.3198242,2.1005859.9599609Z"/>
        <path class="cls-2" d="m232.7965786,15.9353133c1.2099609,1.5703125,1.8154297,3.1953125,1.8154297,4.875,0,1.1806641-.3046875,2.2202148-.9150391,3.1201172s-1.4150391,1.590332-2.4150391,2.0703125-2.0703125.7197266-3.2099609.7197266c-2.0205078,0-3.4453125-.6254883-4.2753906-1.875s-1.2441406-2.8847656-1.2441406-4.9047852c0-.8598633.0097656-1.5.0292969-1.9199219-.7001953-.2402344-1.2646484-.5449219-1.6943359-.9150391-.4306641-.3701172-.6455078-.8149414-.6455078-1.3349609,0-1.1601562,1.0097656-2.6401367,3.0302734-4.4404297.1796875-1.0595703.359375-2.0195312.5400391-2.8798828-.6806641-.2797852-1.3154297-.5898438-1.9052734-.9296875s-1.0253906-.6499023-1.3046875-.9301758c-.0410156-.0400391-.1005859-.1000977-.1806641-.1801758-.0800781-.0795898-.1191406-.1499023-.1191406-.2099609,0-.1201172.0595703-.1796875.1796875-.1796875.0400391,0,.1796875.0400391.4199219.1196289.4794922.1801758,1.0947266.340332,1.8447266.4799805.75.1401367,1.2050781.2304688,1.3652344.2700195.2597656-1.3393555.3896484-2.3896484.3896484-3.1499023,0-.699707-.109375-1.3095703-.3300781-1.8300781-.2197266-.4995117-.4599609-.8798828-.7197266-1.1396484-.1201172-.1201172-.1796875-.2202148-.1796875-.300293,0-.1396484.109375-.2099609.3300781-.2099609.2197266,0,.4892578.0703125.8095703.2099609.3203125.1401367.6201172.3300781.9003906.5698242.7197266.6000977,1.0800781,1.2705078,1.0800781,2.0102539,0,.2397461-.0410156.5-.1201172.7797852-.0800781.2802734-.2099609.6503906-.390625,1.1103516-.2597656.659668-.5,1.3798828-.7197266,2.159668.7001953.1606445,1.3095703.340332,1.8300781.5400391.3798828.1606445.6650391.3901367.8554688.6899414.1894531.300293.2841797.590332.2841797.8701172,0,.2402344-.0800781.4404297-.2392578.6000977-.1601562.1601562-.3408203.2504883-.5400391.2700195-1.0400391.0800781-2.0605469.4399414-3.0605469,1.0800781-.359375,1.9799805-.5898438,3.7998047-.6894531,5.4599609l.2998047.0297852c.5800781.0800781,1.3300781.1201172,2.25.1201172.5595703,0,1,.0703125,1.3203125.2099609.3193359.1401367.4794922.4199219.4794922.8398438,0,.3603516-.1552734.590332-.4648438.6904297-.3105469.1000977-.6650391.1499023-1.0654297.1499023-.8798828,0-1.8398438-.1201172-2.8798828-.3603516v.300293c0,2.0600586.2949219,3.6499023.8857422,4.7700195.5888672,1.1201172,1.7441406,1.6796875,3.4648438,1.6796875.8798828,0,1.6796875-.1948242,2.3994141-.5849609.7207031-.3896484,1.2949219-.9545898,1.7255859-1.6948242.4296875-.7397461.6445312-1.5996094.6445312-2.5800781,0-1.2998047-.4902344-2.6547852-1.4697266-4.0649414-.9804688-1.4101562-2.2304688-2.625-3.75-3.6450195-.2402344-.159668-.3603516-.2895508-.3603516-.3901367,0-.0595703.0498047-.0898438.1503906-.0898438.1396484,0,.3095703.050293.5097656.1499023,2.1601562.9599609,3.8447266,2.2250977,5.0546875,3.7949219Zm-10.125.4350586c.1005859-1.2792969.2597656-2.7197266.4804688-4.3198242-.5605469.5205078-1.0048828,1.0703125-1.3349609,1.6499023-.3300781.5805664-.4951172,1.0605469-.4951172,1.4399414,0,.5400391.4501953.9501953,1.3496094,1.2299805Zm2.1005859-7.5297852l-.1796875.8999023-.1503906.6601562c.2792969-.199707.5400391-.4052734.7802734-.6152344.2392578-.2099609.359375-.3647461.359375-.4648438,0-.0795898-.0595703-.1547852-.1796875-.2250977-.1201172-.0698242-.2353516-.1201172-.3447266-.1499023-.1103516-.0302734-.1855469-.0546875-.2255859-.0751953l-.0595703-.0297852Z"/>
        <path class="cls-2" d="m263.8620083,3.500743c.0595703-.0800781.1650391-.2148438.3154297-.4052734.1494141-.1899414.2841797-.2851562.4042969-.2851562.1601562,0,.5302734.2402344,1.1103516.7202148s.9394531.8603516,1.0800781,1.1401367c.0595703.1000977.0400391.2001953-.0605469.2998047-.2597656.2202148-.6396484.3803711-1.1396484.4799805v3.3901367c.0400391,2.3398438.1201172,4.4804688.2402344,6.4199219,0,.1201172-.0400391.2202148-.1201172.2998047-.2001953.1801758-.4707031.3452148-.8105469.4951172s-.6494141.2250977-.9296875.2250977h-.0302734c-.1601562,0-.2392578-.0795898-.2392578-.2402344v-.7797852h-6.9902344c.7597656,2,1.8603516,3.7202148,3.2998047,5.1601562l1.2304688-.8100586c.1992188-.1601562.4199219-.3198242.6591797-.4799805.7998047-.5595703,1.5908203-1.1899414,2.3701172-1.8901367.7802734-.699707,1.4199219-1.3598633,1.9199219-1.9799805.0800781-.1201172.2001953-.1298828.3603516-.0297852.7597656.6401367,1.2851562,1.1098633,1.5751953,1.409668.2900391.300293.4345703.5004883.4345703.6000977,0,.1005859-.0996094.1499023-.2998047.1499023h-.5400391c-.8603516.5205078-1.9550781,1.0952148-3.2851562,1.7250977s-2.6542969,1.2148438-3.9746094,1.7548828c2.359375,2.1601562,5.6591797,3.6704102,9.9003906,4.5302734.1396484.0395508.2099609.109375.2099609.2099609,0,.0996094-.0703125.1694336-.2099609.2099609-.3408203.0996094-.640625.2744141-.9003906.5249023-.2597656.25-.4599609.574707-.5996094.9750977-.0410156.159668-.140625.2197266-.3007812.1801758-3.3203125-1.0004883-5.9951172-2.4702148-8.0244141-4.4101562-2.0302734-1.9399414-3.515625-4.5498047-4.4550781-7.8300781h-5.0703125v8.7900391l3-.6000977,4.3203125-.8701172h.0898438c.0996094,0,.1601562.0600586.1796875.1801758v.1201172c0,.0800781-.0498047.1499023-.1494141.2099609-4.5410156,1.6201172-8.4003906,2.9199219-11.5800781,3.8999023-.1201172.2597656-.2705078.4501953-.4501953.5698242-.0205078.0200195-.0595703.0302734-.1201172.0302734-.1201172,0-.1904297-.0405273-.2099609-.1201172l-1.0195312-2.0698242c-.0205078-.0205078-.0302734-.0600586-.0302734-.1201172,0-.0996094.0595703-.159668.1796875-.1801758.7001953-.1196289,1.9804688-.3496094,3.8398438-.6899414v-15.2099609c0-2.359375-.109375-4.2998047-.3300781-5.8198242v-.0600586c0-.1396484.0800781-.1801758.2402344-.1201172l2.3398438.9902344h4.8603516c0-1.4199219-.0800781-2.7402344-.2402344-3.9599609,0-.199707.0996094-.2700195.2998047-.2099609.9599609.2998047,1.625.5351562,1.9951172.7045898.3701172.1704102.5556641.3256836.5556641.465332,0,.0800781-.0703125.1699219-.2099609.2700195l-.4501953.2998047v2.4301758h5.2792969l.4804688-.6899414Zm-.1796875,5.7597656v-4.2001953h-12.6904297v4.2001953h12.6904297Zm0,.8701172h-12.6904297v4.2597656h12.6904297v-4.2597656Z"/>
        <path class="cls-2" d="m282.4323208,23.8405867c-.6201172-.300293-1.3105469-.7802734-2.0703125-1.4399414-1.9804688-1.7597656-2.9697266-4.2602539-2.9697266-7.5,0-1.0800781.109375-2.3198242.3300781-3.7202148.1396484-.7998047.2099609-1.3896484.2099609-1.7700195,0-.4599609-.0859375-.8745117-.2548828-1.2451172-.1708984-.3696289-.4560547-.7446289-.8554688-1.125-.1005859-.0996094-.1503906-.1796875-.1503906-.2397461s.0351562-.1049805.1054688-.1352539c.0693359-.0297852.1445312-.0449219.2246094-.0449219.4003906,0,.8251953.1201172,1.2753906.3603516.4501953.2397461.8300781.5600586,1.1396484.9599609.3105469.4003906.4648438.7998047.4648438,1.199707,0,.2402344-.109375.8603516-.3291016,1.8603516-.2001953.9599609-.3554688,1.7597656-.4658203,2.3999023-.109375.6401367-.1650391,1.2802734-.1650391,1.9199219,0,1.0800781.2050781,2.0698242.6152344,2.9697266.4101562.9003906.8955078,1.6201172,1.4550781,2.1601562s1.0302734.8100586,1.4101562.8100586c.2402344,0,.3994141-.199707.4794922-.6000977.3203125-1.4794922.6699219-2.6699219,1.0507812-3.5698242.0595703-.1396484.1298828-.2651367.2099609-.375.0791016-.1098633.1494141-.1650391.2099609-.1650391.0595703,0,.0898438.0600586.0898438.1801758,0,.1000977-.0205078.2700195-.0605469.5097656-.1992188,1.0004883-.2998047,1.9101562-.2998047,2.7299805,0,.3803711.0302734.8701172.0898438,1.4702148.0205078.2597656.0703125.4946289.1503906.7050781.0800781.2099609.1298828.3447266.1503906.4047852.1796875.3598633.2695312.6601562.2695312.8999023,0,.2602539-.0703125.4648438-.2099609.6152344-.1396484.1499023-.3398438.2246094-.5996094.2246094-.3808594,0-.8808594-.1499023-1.5-.449707Zm13.3798828-7.7402344c-.140625-.159668-.2607422-.3793945-.3603516-.659668-.2998047-.9199219-.6552734-1.8198242-1.0644531-2.7001953-.4101562-.8798828-.9560547-1.4897461-1.6357422-1.8300781-.4599609-.2397461-1.0800781-.3598633-1.859375-.3598633h-.3603516c-.1796875,0-.2695312-.0600586-.2695312-.1801758,0-.0795898.0996094-.159668.2998047-.2397461.0791016-.0400391.2744141-.090332.5849609-.1499023.3095703-.0600586.6542969-.090332,1.0351562-.090332,1.3994141,0,2.609375.4902344,3.6298828,1.4702148.7197266.6801758,1.2099609,1.3549805,1.4697266,2.0249023.2597656.6704102.3896484,1.1850586.3896484,1.5449219,0,.3803711-.0898438.7104492-.2695312.9902344-.1796875.2802734-.4599609.4199219-.8398438.4199219-.3603516,0-.6103516-.0795898-.75-.2402344Z"/>
        <path class="cls-2" d="m314.3522427,11.660411c0,.0800781-.1201172.340332-.3603516.7802734-.7597656,1.3603516-1.4697266,3.0146484-2.1298828,4.9648438s-.9902344,3.2651367-.9902344,3.9448242c0,.340332.0400391.6503906.1201172.9301758.0800781.2802734.2001953.6401367.3603516,1.0800781.2197266.5400391.3300781.9296875.3300781,1.1699219,0,.3203125-.1005859.5449219-.3007812.6748047-.1992188.1298828-.3896484.1953125-.5693359.1953125-.2402344,0-.5097656-.1499023-.8105469-.4501953-.9404297-1.0595703-1.5947266-2.4599609-1.9648438-4.199707-.3701172-1.7402344-.5546875-3.3100586-.5546875-4.7104492,0-.9599609.0546875-1.8095703.1650391-2.5498047.109375-.7397461.2851562-1.6499023.5244141-2.7299805.2001953-.7998047.3505859-1.5151367.4501953-2.1450195s.1503906-1.284668.1503906-1.9648438c0-1.5600586-.390625-2.7299805-1.1699219-3.5102539-.1601562-.159668-.2402344-.2797852-.2402344-.3598633,0-.1396484.0800781-.2099609.2402344-.2099609.0996094,0,.2597656.0600586.4794922.1801758.7207031.3798828,1.3398438.9648438,1.8603516,1.7548828.5195312.7900391.7802734,1.6049805.7802734,2.4448242,0,.6000977-.0654297,1.1503906-.1953125,1.6499023-.1298828.5004883-.3447266,1.1904297-.6455078,2.0703125-.3398438.9199219-.5996094,1.75-.7792969,2.4897461-.1806641.7402344-.2705078,1.5800781-.2705078,2.5200195,0,.6801758.0654297,1.3652344.1953125,2.0551758s.3046875,1.0351562.5253906,1.0351562c.0996094,0,.1943359-.0849609.2841797-.2553711.0908203-.1694336.1552734-.2744141.1953125-.3149414.3603516-.6601562.9853516-1.7646484,1.875-3.3149414.8896484-1.5498047,1.4150391-2.4345703,1.5751953-2.6547852.3398438-.5.5800781-.75.7197266-.75.0996094,0,.1503906.0595703.1503906.1796875Zm13.5292969-4.5c0,.2202148-.0400391.3803711-.1191406.4799805-.0800781.1005859-.2402344.2402344-.4804688.4199219-.2402344.1801758-.6894531.425293-1.3496094.7353516s-1.3603516.6147461-2.1005859.9150391l.0605469,1.5297852c.0791016,2.0400391.1201172,3.5.1201172,4.3798828,0,.7802734-.1103516,1.715332-.3300781,2.8051758-.2207031,1.090332-.6806641,2.2348633-1.3798828,3.4350586-.6806641,1.199707-1.5703125,2.2001953-2.6708984,3-1.0996094.7998047-2.0097656,1.3198242-2.7294922,1.5600586-.1201172.0395508-.2099609.0600586-.2705078.0600586-.1396484,0-.2099609-.0600586-.2099609-.1801758,0-.0800781.1201172-.1801758.3603516-.2998047,1.6201172-.7802734,2.8398438-1.9951172,3.6601562-3.6450195.8193359-1.6503906,1.3691406-3.4750977,1.6503906-5.4750977.0996094-.7202148.1494141-1.909668.1494141-3.5703125l-.0595703-3.0297852c-.8398438.2802734-1.5107422.4199219-2.0107422.4199219-.5800781,0-1.2646484-.1547852-2.0546875-.4648438s-1.3652344-.6347656-1.7246094-.9750977c-.1005859-.0996094-.1503906-.1899414-.1503906-.2700195,0-.0795898.0498047-.1201172.1503906-.1201172.0595703,0,.1494141.0205078.2695312.0600586.2802734.1005859.6455078.1904297,1.0947266.2700195.4501953.0800781.8251953.1201172,1.125.1201172.6796875,0,1.7597656-.2402344,3.2402344-.7202148-.0800781-2.2797852-.1601562-3.6899414-.2402344-4.2299805-.0595703-.4799805-.2392578-.8896484-.5390625-1.2299805-.3007812-.3398438-.5908203-.5698242-.8701172-.6899414-.2402344-.0996094-.3603516-.2197266-.3603516-.3598633,0-.159668.2294922-.2402344.6904297-.2402344.7988281,0,1.5693359.1503906,2.3095703.4501953.7392578.2998047,1.1103516.7099609,1.1103516,1.2299805,0,.1000977-.0410156.3105469-.1201172.6298828-.0800781.300293-.1503906.6899414-.2099609,1.1699219.6396484.3803711,1.2695312.6601562,1.8896484.840332.2998047.0800781.5595703.1303711.7802734.1499023.3398438.0400391.5996094.0898438.7802734.1499023.1796875.0600586.3193359.1601562.4199219.300293.0791016.0800781.1191406.2099609.1191406.3896484Zm-2.3691406-.0898438c0-.1201172-.1005859-.2402344-.3007812-.3598633-.1191406-.0600586-.5898438-.3398438-1.4091797-.840332-.0605469.5605469-.0908203,1.1503906-.0908203,1.7700195v.3901367c.640625-.2197266,1.1806641-.4599609,1.6201172-.7202148.1201172-.0595703.1806641-.1396484.1806641-.2397461Z"/>
        <path class="cls-2" d="m361.7819302,17.3303328c0,.1005859-.0898438.340332-.2695312.7202148-1.0410156,2.0600586-2.0605469,3.4604492-3.0605469,4.2001953s-1.9794922,1.1098633-2.9394531,1.1098633c-1.2607422,0-2.25-.3647461-2.9707031-1.0952148-.7197266-.7294922-1.0800781-1.6547852-1.0800781-2.7749023,0-.8198242.0849609-1.6899414.2558594-2.6098633.1689453-.9199219.4238281-2.0800781.7646484-3.4799805.2597656-1.0800781.4501953-1.9199219.5703125-2.5200195.1191406-.6000977.1796875-1.1201172.1796875-1.5600586,0-.699707-.1601562-1.2397461-.4804688-1.6201172-.3193359-.3793945-.7695312-.5698242-1.3496094-.5698242-1.4404297,0-2.9853516.6748047-4.6347656,2.0249023-1.6503906,1.3500977-3.2255859,2.9750977-4.7255859,4.875-.0800781,1.7001953-.1201172,3.2998047-.1201172,4.7998047,0,.800293.0205078,1.3803711.0605469,1.7402344.0595703.6201172.1699219,1.4399414.3300781,2.4599609.1201172.6201172.1796875,1.1000977.1796875,1.4399414,0,.8999023-.3496094,1.3500977-1.0498047,1.3500977-.2998047,0-.5996094-.175293-.9003906-.5249023-.2998047-.3496094-.4794922-.7451172-.5400391-1.1850586-.0595703-.5400391-.1494141-1.0249023-.2695312-1.4550781-.1201172-.4296875-.3203125-.9448242-.6005859-1.5449219l-.5693359-1.1699219c-.4804688.9599609-.9404297,1.7299805-1.3798828,2.3100586-.3603516.4599609-.6806641.6899414-.9599609.6899414-.4199219,0-.6298828-.2402344-.6298828-.7202148,0-.5595703.2998047-1.3896484.8994141-2.4897461.5-.8598633.8701172-1.4799805,1.1103516-1.8603516-1.0205078-2.3198242-1.5302734-4.0595703-1.5302734-5.2197266,0-.4599609.0703125-.8100586.2099609-1.050293.1396484-.2397461.3896484-.5097656.75-.8100586.3603516-.2998047.9345703-.5947266,1.7246094-.8847656.7900391-.2895508,1.5947266-.5146484,2.4150391-.6748047.1201172-1.3598633.1806641-2.449707.1806641-3.2700195,0-.9399414-.2802734-1.7797852-.8398438-2.5200195-.1201172-.1396484-.3261719-.3251953-.6152344-.5551758-.2900391-.2294922-.4355469-.375-.4355469-.4350586s.0449219-.1049805.1357422-.1347656c.0898438-.0302734.1845703-.0449219.2841797-.0449219.2402344,0,.4697266.0297852.6904297.0898438.7197266.1601562,1.3349609.4399414,1.8447266.8398438.5107422.4003906.765625.9204102.765625,1.5600586,0,.2602539-.0351562.5849609-.1054688.9750977s-.1552734.7851562-.2548828,1.1850586c-.0400391.2001953-.0800781.4003906-.1201172.6000977s-.0800781.3896484-.1201172.5698242c-.0400391.1601562-.0703125.3203125-.0898438.4799805-.0205078.1601562-.0400391.3100586-.0595703.4501953.1396484-.0200195.3095703-.0302734.5097656-.0302734.5996094,0,.9003906.2900391.9003906.8701172,0,.3203125-.0605469.6601562-.1806641,1.0200195,1.6396484-1.699707,3.1503906-2.9399414,4.5302734-3.7202148,1.3798828-.7797852,2.5498047-1.1699219,3.5097656-1.1699219.9404297,0,1.7402344.3149414,2.4003906.9448242.6601562.6303711.9902344,1.4755859.9902344,2.5351562,0,.4404297-.0751953,1.0351562-.2255859,1.7851562-.1494141.75-.3144531,1.5048828-.4951172,2.2651367-.2998047,1.2402344-.5302734,2.2700195-.6894531,3.0898438-.1601562.8203125-.2402344,1.5800781-.2402344,2.2797852,0,1.0200195.1992188,1.7851562.5996094,2.2949219.4003906.5102539,1.0205078.7651367,1.8603516.7651367,1.5400391,0,3.2998047-1.3896484,5.2802734-4.1699219.2792969-.3598633.4599609-.5400391.5400391-.5400391.0390625,0,.0595703.0302734.0595703.0898438Zm-23.7294922-.1499023l.4794922-.75c1.1601562-1.7998047,1.9101562-3.0600586,2.25-3.7797852l.1796875-.3901367.1201172-1.7099609h-.1201172c-.4003906,0-.9248047.0898438-1.5742188.2700195-.6503906.1801758-1.2304688.4501953-1.7402344.8100586s-.765625.800293-.765625,1.3198242c0,1.0200195.390625,2.4301758,1.1708984,4.2299805Zm2.5644531,4.050293c.0302734-.300293.0449219-.7802734.0449219-1.4404297,0-1.359375.0302734-2.6796875.0898438-3.9599609-.5195312.840332-1.1201172,1.9501953-1.7998047,3.3300781.2802734.5600586.5800781,1.1000977.9003906,1.6201172.0791016.1201172.1894531.2998047.3300781.5400391.1396484.2397461.2294922.3598633.2695312.3598633.0800781,0,.1347656-.1499023.1650391-.449707Z"/>
        <path class="cls-2" d="m373.1373989,24.8606063c-1.4306641-.7202148-2.1455078-2.0498047-2.1455078-3.9902344,0-1.5600586.4355469-2.8496094,1.3046875-3.8696289.8701172-1.0200195,1.9150391-1.909668,3.1357422-2.6704102-.8007812-.5595703-1.3652344-1.199707-1.6953125-1.9199219-.3300781-.7197266-.4951172-1.6396484-.4951172-2.7597656,0-1.0200195.1396484-2.1699219.4199219-3.4501953.2197266-1,.3300781-1.8496094.3300781-2.5498047,0-.4399414-.0498047-.7998047-.1494141-1.0800781-.1005859-.2797852-.2705078-.5400391-.5107422-.7802734-.1396484-.1396484-.2744141-.2646484-.4042969-.375-.1308594-.109375-.1953125-.1845703-.1953125-.2246094,0-.1201172.1396484-.1801758.4199219-.1801758.1992188,0,.4394531.0351562.7197266.1049805.2802734.0703125.5205078.1552734.7207031.2548828.5195312.2602539.8847656.5605469,1.0947266.9003906s.3144531.7998047.3144531,1.3798828c0,.340332-.0400391.6748047-.1201172,1.0048828s-.1699219.6401367-.2695312.9301758c-.1005859.2900391-.1699219.4848633-.2099609.5849609-.0205078.0600586-.1005859.2802734-.2402344.659668-.2001953.4404297-.3496094.8754883-.4501953,1.3051758-.0996094.4301758-.1494141.965332-.1494141,1.6049805,0,.5805664.0947266,1.1450195.2851562,1.6948242.1894531.550293.4345703,1.0004883.734375,1.3500977.2998047.3500977.6103516.5249023.9306641.5249023.2197266,0,.5195312-.0698242.8994141-.2099609.3798828-.1396484.7597656-.2998047,1.140625-.4799805.7988281-.3793945,1.3291016-.5698242,1.5898438-.5698242.3798828,0,.7548828.1152344,1.125.3452148.3691406.2299805.5546875.4648438.5546875.7045898,0,.3603516-.1396484.6201172-.4199219.7802734s-.7197266.2900391-1.3203125.3901367c-1.7802734.3198242-3.5.9101562-5.1601562,1.7695312-1.6601562.8603516-2.4892578,2.3100586-2.4892578,4.3500977,0,1.0405273.3789062,1.9101562,1.1396484,2.6103516.7597656.7001953,1.8994141,1.0498047,3.4199219,1.0498047.5195312,0,1.0400391-.0400391,1.5605469-.1201172.5195312-.0795898.8291016-.1298828.9296875-.1499023.9199219-.159668,1.5693359-.2402344,1.9501953-.2402344,1.1191406,0,1.6796875.3300781,1.6796875.9902344,0,.4604492-.4501953.8100586-1.3496094,1.0498047-.9003906.2402344-2.1201172.3603516-3.6601562.3603516-1.8808594,0-3.5351562-.3603516-4.9648438-1.0800781Zm9.1796875-17.25c-.1904297-.1000977-.3447266-.2597656-.4648438-.4799805-.2998047-.5200195-.6298828-.9599609-.9902344-1.3203125-.3603516-.3598633-.8095703-.6396484-1.3496094-.8398438-.1806641-.0600586-.3505859-.1298828-.5107422-.2099609-.1601562-.0795898-.2392578-.1694336-.2392578-.2700195,0-.159668.1992188-.2397461.5996094-.2397461.4599609,0,1.0449219.074707,1.7548828.2246094.7099609.1503906,1.3505859.4204102,1.9199219.8100586.5703125.3901367.8554688.9150391.8554688,1.5751953,0,.2998047-.1005859.5249023-.2998047.6748047-.2001953.1499023-.4306641.2250977-.6904297.2250977-.2001953,0-.3955078-.0498047-.5849609-.1499023Zm2.4453125-2.9702148c-.4003906-.4594727-.7607422-.8100586-1.0800781-1.0498047-.3203125-.2402344-.75-.4501953-1.2900391-.6298828-.140625-.0400391-.2851562-.0800781-.4355469-.1201172-.1494141-.0400391-.2802734-.0849609-.3896484-.1352539-.1103516-.0493164-.1650391-.1147461-.1650391-.1948242.0195312-.2197266.4902344-.3300781,1.4101562-.3300781.859375,0,1.7197266.175293,2.5800781.5249023.859375.3505859,1.2900391.8754883,1.2900391,1.5751953,0,.2802734-.1005859.4951172-.3007812.6450195-.1992188.1499023-.3994141.2250977-.5996094.2250977-.3603516,0-.7001953-.1699219-1.0195312-.5102539Z"/>
        <path class="cls-2" d="m395.8317349,15.1706649c-.359375-.3603516-.5400391-.7900391-.5400391-1.2900391,0-.5200195.1806641-.9550781.5400391-1.3051758.3603516-.3496094.7900391-.5249023,1.2900391-.5249023s.9306641.1801758,1.2900391.5400391c.3603516.3598633.5400391.7900391.5400391,1.2900391s-.1796875.9296875-.5400391,1.2900391c-.359375.3598633-.7900391.5400391-1.2900391.5400391s-.9296875-.1801758-1.2900391-.5400391Zm9.9902344,0c-.3603516-.3603516-.5400391-.7900391-.5400391-1.2900391,0-.5200195.1796875-.9550781.5400391-1.3051758.3603516-.3496094.7900391-.5249023,1.2900391-.5249023s.9296875.1801758,1.2900391.5400391.5400391.7900391.5400391,1.2900391-.1796875.9296875-.5400391,1.2900391c-.3603516.3598633-.7900391.5400391-1.2900391.5400391s-.9296875-.1801758-1.2900391-.5400391Zm9.9902344,0c-.3603516-.3603516-.5400391-.7900391-.5400391-1.2900391,0-.5200195.1796875-.9550781.5400391-1.3051758.359375-.3496094.7900391-.5249023,1.2900391-.5249023.4990234,0,.9296875.1801758,1.2900391.5400391.359375.3598633.5400391.7900391.5400391,1.2900391s-.1806641.9296875-.5400391,1.2900391c-.3603516.3598633-.7910156.5400391-1.2900391.5400391-.5,0-.9306641-.1801758-1.2900391-.5400391Z"/>
        <path class="cls-2" d="m81.2770474,60.9353133c1.2099609,1.5703125,1.8154297,3.1953125,1.8154297,4.875,0,1.1806641-.3046875,2.2202148-.9150391,3.1201172s-1.4150391,1.590332-2.4150391,2.0703125-2.0703125.7197266-3.2099609.7197266c-2.0205078,0-3.4453125-.6254883-4.2753906-1.875s-1.2441406-2.8847656-1.2441406-4.9047852c0-.8598633.0097656-1.5.0292969-1.9199219-.7001953-.2402344-1.2646484-.5449219-1.6943359-.9150391-.4306641-.3701172-.6455078-.8149414-.6455078-1.3349609,0-1.1601562,1.0097656-2.6401367,3.0302591-4.4404297.1797018-1.0595703.3593893-2.0195312.5400534-2.8798828-.6806641-.2797852-1.3154297-.5898438-1.9052734-.9296875s-1.0253906-.6499023-1.3046875-.9301758c-.0410156-.0400391-.1005859-.1000977-.1806641-.1801758-.0800781-.0795898-.1191406-.1499023-.1191406-.2099609,0-.1201172.0595703-.1796875.1796875-.1796875.0400248,0,.1796875.0400391.4199219.1196289.4794922.1801758,1.0947266.340332,1.8447266.4799805.75.1401367,1.2050781.2304688,1.3652344.2700195.2597656-1.3393555.3896484-2.3896484.3896484-3.1499023,0-.699707-.109375-1.3095703-.3300781-1.8300781-.2197266-.4995117-.4599609-.8798828-.7197266-1.1396484-.1201172-.1201172-.1797018-.2202148-.1797018-.300293,0-.1396484.1093893-.2099609.3300925-.2099609.2197266,0,.4892578.0703125.8095703.2099609.3203125.1401367.6201172.3300781.9003906.5698242.7197266.6000977,1.0800781,1.2705078,1.0800781,2.0102539,0,.2397461-.0410156.5-.1201316.7797852-.0800637.2802734-.2099465.6503906-.3906106,1.1103516-.2597656.659668-.5,1.3798828-.7197266,2.159668.7001953.1606445,1.3095703.340332,1.8300781.5400391.3798828.1606445.6650391.3901367.8554688.6899414.1894531.300293.2841797.590332.2841797.8701172,0,.2402344-.0800781.4404297-.2392578.6000977-.1601562.1601562-.3408203.2504883-.5400391.2700195-1.0400391.0800781-2.0605469.4399414-3.0605469,1.0800781-.359375,1.9799805-.5898438,3.7998047-.6894531,5.4599609l.2998047.0297852c.5800781.0800781,1.3300781.1201172,2.25.1201172.5595703,0,1,.0703125,1.3203125.2099609.3193359.1401367.4794922.4199219.4794922.8398438,0,.3603516-.1552734.590332-.4648438.6904297-.3105469.1000977-.6650391.1499023-1.0654297.1499023-.8798828,0-1.8398438-.1201172-2.8798828-.3603516v.300293c0,2.0600586.2949219,3.6499023.8857422,4.7700195.5888672,1.1201172,1.7441406,1.6796875,3.4648438,1.6796875.8798683,0,1.6796875-.1948242,2.3994141-.5849609.7207031-.3896484,1.2949219-.9545898,1.7255859-1.6948242.4296875-.7397461.6445312-1.5996094.6445312-2.5800781,0-1.2998047-.4902344-2.6547852-1.4697266-4.0649414-.9804688-1.4101562-2.2304688-2.625-3.75-3.6450195-.2402344-.159668-.3603516-.2895508-.3603516-.3901367,0-.0595703.0498047-.0898438.1503906-.0898438.1396484,0,.3095703.050293.5097656.1499023,2.1601562.9599609,3.8447266,2.2250977,5.0546875,3.7949219Zm-10.125.4350586c.1005716-1.2792969.2597656-2.7197266.4804688-4.3198242-.5605469.5205078-1.0048971,1.0703125-1.3349609,1.6499023-.3300781.5805664-.4951172,1.0605469-.4951172,1.4399414,0,.5400391.450181.9501953,1.3496094,1.2299805Zm2.1005716-7.5297852l-.1796731.8999023-.1503906.6601562c.2792969-.199707.5400391-.4052734.7802734-.6152344.2392578-.2099609.359375-.3647461.359375-.4648438,0-.0795898-.0595847-.1547852-.1796875-.2250977-.1201172-.0698242-.2353516-.1201172-.3447266-.1499023-.1103516-.0302734-.1855469-.0546875-.2255859-.0751953l-.0595847-.0297852Z"/>
        <path class="cls-2" d="m102.0221646,70.8054305c-.0595703-.050293-.0898438-.1049805-.0898438-.1650391,0-.1796875.1298828-.2802734.390625-.2998047,1.8789062-.159668,3.5996094-.6098633,5.1591797-1.3500977,1.5605469-.7397461,2.7949219-1.659668,3.7050781-2.7597656s1.3652344-2.2602539,1.3652344-3.4799805c0-.9199219-.2050781-1.699707-.6152344-2.340332-.4101562-.6396484-.9404297-1.125-1.5898438-1.4550781-.6503906-.3295898-1.3251953-.4946289-2.0244141-.4946289-1.3408203,0-2.7060547.4150391-4.0957031,1.2446289-1.3896484.8305664-2.4648438,1.5854492-3.2246244,2.2651367-.5605318.4799805-1.0654146.8701172-1.5156099,1.1699219-.4492188.300293-.8945312.4501953-1.3349609.4501953-.6201172,0-1.399429-.3901367-2.3398438-1.1699219-.2802734-.2202148-.4199219-.409668-.4199219-.5703125,0-.1796875.1103366-.2700195.3300781-.2700195.1201172,0,.3251953.0205078.6152344.0600586.2900241.0405273.5644531.0600586.8251953.0600586.4199219,0,.8642578-.1147461,1.3349609-.3447266.4697266-.2299805,1.1650391-.6049805,2.0849609-1.125,1.3798828-.840332,2.6347656-1.4951172,3.7646484-1.965332,1.1298828-.4697266,2.3447266-.7050781,3.6455078-.7050781,1.0195312,0,2.0146484.2250977,2.984375.675293.9697266.449707,1.7597656,1.1098633,2.3701172,1.9799805s.9150391,1.9047852.9150391,3.1049805c0,.8203125-.2402344,1.7353516-.7197266,2.7451172-.4804688,1.0097656-1.5751953,1.9946289-3.2851562,2.9550781-1.7099609.9599609-4.2148438,1.5698242-7.5146484,1.8295898l-.5107422.0302734c-.0800781,0-.1494141-.0253906-.2099609-.0751953Z"/>
        <path class="cls-2" d="m131.9772427,69.8606063c-1.4296875-.7202148-2.1445312-2.0498047-2.1445312-3.9902344,0-1.5600586.4345703-2.8496094,1.3046875-3.8696289s1.9150391-1.909668,3.1347656-2.6704102c-.7998047-.5595703-1.3642578-1.199707-1.6943359-1.9199219-.3300781-.7197266-.4951172-1.6396484-.4951172-2.7597656,0-1.0200195.1396484-2.1699219.419906-3.4501953.2197424-1,.330094-1.8496094.330094-2.5498047,0-.4399414-.0507812-.7998047-.1503906-1.0800781-.1005859-.2797852-.2695312-.5400391-.5097656-.7802734-.140625-.1396484-.2753906-.2646484-.4052734-.375-.1298828-.109375-.1943359-.1845703-.1943359-.2246094,0-.1201172.1396484-.1801758.4199219-.1801758.1992188,0,.4394531.0351562.7197266.1049805.2792969.0703125.5195312.1552734.7197266.2548828.5195312.2602539.8847656.5605469,1.0947266.9003906s.3154297.7998047.3154297,1.3798828c0,.340332-.0400391.6748047-.1201172,1.0048828s-.1699219.6401367-.2695312.9301758c-.1005859.2900391-.1708984.4848633-.2099609.5849609-.0205078.0600586-.1005859.2802734-.2402503.659668-.2001794.4404297-.35057.8754883-.4501794,1.3051758-.1005859.4301758-.1503906.965332-.1503906,1.6049805,0,.5805664.0947266,1.1450195.2851562,1.6948242.1904138.550293.4355469,1.0004883.7353516,1.3500977.2998047.3500977.609375.5249023.9296875.5249023.2197266,0,.5205078-.0698242.9003747-.2099609.3798988-.1396484.7597816-.2998047,1.1396644-.4799805.7998047-.3793945,1.3300781-.5698242,1.5898438-.5698242.3798828,0,.7548828.1152344,1.125.3452148s.5556641.4648438.5556641.7045898c0,.3603516-.140625.6201172-.4199219.7802734-.2802734.1601562-.7207031.2900391-1.3203125.3901367-1.7802734.3198242-3.5.9101562-5.1601562,1.7695312-1.6601562.8603516-2.4902344,2.3100586-2.4902344,4.3500977,0,1.0405273.3798828,1.9101562,1.140625,2.6103516.7597656.7001953,1.8994141,1.0498047,3.4199219,1.0498047.5195312,0,1.0390625-.0400391,1.5595703-.1201172.5205078-.0795898.8300781-.1298828.9306641-.1499023.9189453-.159668,1.5693359-.2402344,1.9492188-.2402344,1.1201172,0,1.6806641.3300781,1.6806641.9902344,0,.4604492-.4502114.8100586-1.3505859,1.0498047-.8994141.2402344-2.1201172.3603516-3.6601562.3603516-1.8798828,0-3.5351562-.3603516-4.9648438-1.0800781Z"/>
        <path class="cls-2" d="m166.052438,73.3400985c-1.5869141-.3330078-2.8603516-.8730469-3.8203125-1.6196289-1.2265625-.9599609-1.8398438-2.2802734-1.8398438-3.9599609,0-.746582.0800781-1.3603516.2402344-1.840332.1601562-.5058594.3203125-.7597656.4794922-.7597656.2138672,0,.3203125.2539062.3203125.7597656v.6000977c0,1.6538086.9736328,2.8540039,2.9199219,3.6000977,1.2802734.4799805,2.8535156.7197266,4.7207031.7197266,1.5195312,0,3.6396484-.2260742,6.359375-.6796875,1.5732422-.2402344,2.5859375-.3598633,3.0400391-.3598633.6933594,0,1.2197266.1333008,1.5800781.3999023s.5400391.6269531.5400391,1.0800781c0,.746582-.6669922,1.3198242-2,1.7197266-.7998047.2402344-1.8603516.4399414-3.1796875.6000977-1.3203125.1601562-2.7001953.2397461-4.140625.2397461-1.8935547,0-3.6337891-.1660156-5.2197266-.5Zm.9404297-18.7397461c0-.1333008.0800781-.2797852.2392578-.4399414.453125-.453125,1.0400391-.9731445,1.7607422-1.5600586.4257812-.3730469.8125-.7202148,1.1591797-1.0400391s.5205078-.5200195.5205078-.6000977c0-.2929688-.546875-.5332031-1.6396484-.7197266-.9873047-.1865234-1.9277344-.5263672-2.8203125-1.0200195-.8935547-.4931641-1.5400391-.9663086-1.9404297-1.4199219-.1064453-.1333008-.2070312-.293457-.2998047-.4799805-.09375-.1865234-.1396484-.3466797-.1396484-.4804688,0-.105957.0263672-.159668.0800781-.159668l.1601562.0400391c.0791016.0537109.2060547.1269531.3798828.2197266.1728516.09375.4199219.2202148.7392578.3803711.640625.3198242,1.4404297.5864258,2.4003906.7998047.9599609.2138672,1.8134766.3198242,2.5595703.3198242.7207031,0,1.546875-.065918,2.4804688-.199707.9599609-.1064453,1.6259766-.1601562,2-.1601562.3203125,0,.5996094.0400391.8398438.1201172,1.1464844.3999023,1.7197266.9736328,1.7197266,1.7197266,0,.3203125-.1396484.5600586-.4199219.7202148-.2792969.1601562-.8994141.293457-1.859375.3999023-2.2138672.2939453-4.5869141,1.4399414-7.1201172,3.4399414-.2666016.1870117-.4667969.2802734-.6005859.2802734s-.1992188-.0532227-.1992188-.1601562Z"/>
        <path class="cls-2" d="m206.8522427,48.3400985c.3066406.0141602.546875.0400391.7207031.0800781.1728516.0400391.3261719.1538086.4599609.340332.0791016.1069336.1191406.2666016.1191406.4799805,0,.3999023-.2265625.7998047-.6796875,1.199707-1.4394531,1.3071289-2.8798828,2.2939453-4.3203125,2.9599609-.8535156,4.4272461-1.59375,8.0869141-2.2197266,10.9799805-.6269531,2.894043-1.2333984,5.1938477-1.8203125,6.9003906-.6660156,1.9467773-1.2529297,2.9199219-1.7597656,2.9199219-.4267578,0-.8134766-.1665039-1.1601562-.5-.3466797-.3330078-.5195312-.7666016-.5195312-1.300293,0-.3461914.2265625-1.0131836.6796875-2,.7460938-1.6796875,1.4404297-3.5327148,2.0800781-5.5600586.4804688-1.5458984.9863281-3.3261719,1.5205078-5.3398438.5332031-2.0131836.9599609-3.8061523,1.2792969-5.3798828-.8261719.2397461-1.6533203.3598633-2.4795097.3598633-.5868965,0-1.2001778-.1401367-1.8398262-.4199219-.640625-.2797852-1.2275391-.6459961-1.7607422-1.1000977-.2666016-.2128906-.3994315-.3862305-.3994315-.5200195,0-.0800781.0664237-.1196289.2002127-.1196289l.6796875.0795898c.5332031.1069336,1.0927734.1601562,1.6796875.1601562,1.5732422,0,3.0400391-.3198242,4.4003906-.9599609.3203125-1.8662109.4794922-3.3061523.4794922-4.3198242,0-.800293-.1191406-1.4404297-.359375-1.9204102s-.5800957-.8530273-1.0205078-1.1196289c-.4394531-.2666016-.6738281-.4130859-.7001953-.4399414-.1328125-.0800781-.1992188-.1733398-.1992188-.2802734,0-.1601562.1855469-.2397461.5595703-.2397461.3203125,0,.7060547.0400391,1.1601562.1196289.453125.0800781.8535156.2001953,1.2001953.3603516.6132812.293457,1.0595703.6069336,1.3398438.9399414.2802734.3334961.4199219.7797852.4199219,1.3398438,0,.2939453-.0400391.5869141-.1201172.8798828.6933594.7470703,1.2529297,1.1870117,1.6796875,1.3203125.1601562.0537109.3935547.0869141.7001953.0996094Zm-2.2792969,1.1401367c.1992188-.2661133.2998047-.4663086.2998047-.6000977,0-.4262695-.1738281-.8798828-.5205078-1.3598633-.0263672.0800781-.09375.3598633-.2001953.8398438-.1591797.8540039-.2929688,1.5073242-.3994317,1.9604492.3457208-.293457.6201349-.5732422.8203302-.840332Zm18.9394531,22.800293c0,.8798828-.5996094,1.4536133-1.7998047,1.7197266-1.2802734.2929688-2.6669922.4399414-4.1601562.4399414-2.4003906,0-4.3603516-.3999023-5.8798828-1.199707-1.5205078-.800293-2.2802734-2.0932617-2.2802734-3.8803711,0-.2929688.0332031-.612793.1005859-.9599609.0654297-.3461914.1259766-.5996094.1796875-.7597656.1328125-.3730469.2861328-.6865234.4599609-.9399414.1728516-.253418.3398438-.3798828.5-.3798828.1328125,0,.2001953.09375.2001953.2797852v.1601562l-.0400391,1.0795898c0,2.5869141,1.8925781,3.8803711,5.6796875,3.8803711.7197266,0,2.0400391-.1333008,3.9599609-.3999023.7998047-.1333008,1.3202944-.2001953,1.5605469-.2001953,1.0126953,0,1.5195312.3867188,1.5195312,1.1601562Zm-9.8203125-20.3603516c-.4931641-.3461914-.7392578-.612793-.7392578-.7998047,0-.1333008.0927734-.2001953.2792969-.2001953l.6005859.1201172c.90625.2138672,1.6132812.3198242,2.1201172.3198242.2392578,0,.7861328-.0527344,1.6396484-.159668.7998047-.1064453,1.3603516-.1601562,1.6796875-.1601562,1.0136719,0,1.8134766.1870117,2.4003906.5600586.5859375.3735352.8798828.9467773.8798828,1.7202148,0,.2666016-.0800781.5195312-.2402344.7597656-.2666016.3198242-.7333984.4799805-1.3994141.4799805-.2675781,0-.4667969.0136719-.6005859.0400391-.6396484.1069336-1.2333984.3198242-1.7792969.6401367-.546875.3198242-1.140625.7333984-1.7802914,1.2397461-.4804508.347168-.7597476.546875-.8398258.6000977-.2939453.1601562-.5341797.2402344-.7207031.2402344-.1064453,0-.1591797-.0400391-.1591797-.1201172,0-.1064453.0527344-.2265625.1591797-.3603516.0537109-.105957.3066406-.3862305.7607422-.8398438,1.1201172-1.2529297,1.6796875-2,1.6796875-2.2397461,0-.2133789-.1464844-.3803711-.4404297-.5-.2929688-.1201172-.6269531-.2265625-1-.3203125-.3730469-.0927734-.6660156-.1660156-.8798828-.2197266-.5869141-.1865234-1.1269531-.453125-1.6201172-.800293Zm9.7402344-5.9799805c.9863281.2539062,1.8535156.6601562,2.6005859,1.2202148.7460938.5600586,1.1191406,1.2666016,1.1191406,2.1201172,0,.3999023-.1396484.706543-.4199219.9199219-.2792969.2138672-.59375.3198242-.9394531.3198242-.2666016,0-.5400573-.0732422-.8203125-.2197266-.2802734-.1464844-.5-.3803711-.6601562-.7001953-.3994141-.7460938-.8330078-1.3598633-1.2998047-1.8398438s-1.0869141-.8803711-1.8603516-1.2001953c-.1064453-.0532227-.2666016-.1201172-.4794922-.2001953-.2138672-.0795898-.3671875-.152832-.4599609-.2197266-.09375-.0664062-.1396484-.1533203-.1396484-.2602539,0-.105957.0722656-.1860352.2197266-.2397461.1464844-.0532227.3261719-.0800781.5400391-.0800781.7460938,0,1.6132812.1269531,2.5996094.3798828Zm3.8798828-2.9799805c.8261719.2138672,1.5664062.5600586,2.2207031,1.0400391.6523438.4799805.9794922,1.0800781.9794922,1.800293,0,.3735352-.1132812.6464844-.3398438.8198242-.2265625.1738281-.4599609.2597656-.7001953.2597656-.6396484,0-1.1201172-.2397461-1.4394531-.7197266-.3740234-.5600586-.7744141-1.0063477-1.2001953-1.3398438-.4267578-.3334961-1.0273438-.7001953-1.7998047-1.1000977-.2402344-.1064453-.4541016-.2001953-.640625-.2802734s-.3398438-.152832-.4599609-.2197266c-.1201172-.0664062-.1797057-.1401367-.1797057-.2202148,0-.2397461.4931822-.3598633,1.4795104-.3598633.5605469,0,1.2539062.1069336,2.0800781.3198242Z"/>
        <path class="cls-2" d="m260.3327114,53.6403914c1.3730469.746582,2.4394531,1.7739258,3.2001953,3.0800781.7597656,1.3066406,1.1396484,2.7597656,1.1396484,4.3598633,0,2.1870117-.7197266,4.1801758-2.1601562,5.9799805-1.4394531,1.7998047-3.2734375,3.2871094-5.5,4.4599609-2.2265625,1.1738281-4.5263672,1.9736328-6.9003906,2.3999023-.3994141.0800781-.6796875.1201172-.8398438.1201172-.2929688,0-.4394531-.0664062-.4394531-.2001953,0-.159668.1728516-.2797852.5195312-.3598633,2.3466797-.5859375,4.4736328-1.565918,6.3798828-2.9399414,1.90625-1.3730469,3.40625-2.9663086,4.5-4.7797852s1.640625-3.6401367,1.640625-5.4799805c0-1.2802734-.3076172-2.40625-.9199219-3.3803711-.6142578-.9731445-1.4472656-1.7260742-2.5-2.2597656-1.0537109-.5332031-2.2207031-.800293-3.5-.800293-1.734375,0-3.5400391.4541016-5.4199219,1.3603516-1.8808594.9067383-3.59375,2.1865234-5.140625,3.8398438-.0537109,1.2802734-.0800781,2.2402344-.0800781,2.8798828,0,3.1201172.2402344,5.894043.7207031,8.3203125.1054688.4536133.1591797.8935547.1591797,1.3198242,0,.5869141-.0996094,1.0400391-.2998047,1.3598633-.2001953.3203125-.4462891.4799805-.7402344.4799805-.3994327,0-.7460938-.152832-1.0400391-.4599609-.2929688-.3061523-.4931641-.7397461-.5996094-1.2998047-.3466797-2.0800781-.9472656-4.4799805-1.7998047-7.2001953-.4003906.7202148-1.0136719,1.8671875-1.8398438,3.4399414-.4804688.9599609-1.0273438,1.4404297-1.640625,1.4404297-.2929688,0-.5400391-.1132812-.7392578-.340332-.2001953-.2260742-.3007812-.5131836-.3007812-.8598633,0-.1064453.0263672-.2661133.0800781-.4799805.1064453-.5063477.3730469-1.0532227.8007812-1.6401367.4257812-.5859375,1.1054688-1.4399414,2.0390625-2.5600586l.9208984-1.0800781c-1.09375-3.1196289-1.9345703-4.9858398-2.5205078-5.5996094-.5068359-.5063477-.7597841-.90625-.7597841-1.2001953,0-.2661133.1259951-.4462891.3799013-.5400391.2529297-.0932617.5-.1401367.7402344-.1401367l.7597656.0400391c.5332031,0,.9794922-.0458984,1.3398438-.1396484.3603516-.0932617.7265625-.246582,1.1005859-.4599609.8261719-.4804688,1.6523438-1.0932617,2.4794922-1.840332.0527344-.4262695.0800781-.7329102.0800781-.9199219l.3603516-2.8398438c.2128906-1.3862305.3193359-2.4399414.3193359-3.1601562,0-1.3598633-.3867188-2.4262695-1.1601562-3.2001953-.0791016-.0795898-.2060547-.199707-.3798828-.3598633s-.2597656-.2797852-.2597656-.3598633c0-.1333008.1201172-.2001953.3603516-.2001953.3730469,0,.9326172.1870117,1.6796875.5600586,1.5205078.7470703,2.2802734,1.6938477,2.2802734,2.8398438,0,.3203125-.046875.6337891-.140625.9404297s-.2060547.59375-.3398438.8598633c-.3193359.6401367-.5332031,1.2138672-.6396484,1.7197266-.3203125,1.6000977-.4941406,2.4799805-.5205078,2.6401367l.1601562-.1201172c.2666016-.1860352.5068359-.2797852.7207031-.2797852.3193359,0,.7324219.1870117,1.2392578.5600586.2666016.1870117.4003906.4667969.4003906.8398438,0,.3203125-.0869141.6938477-.2597656,1.1201172-.1738281.4267578-.3945312.8134766-.6601562,1.1601562-.2138672.2666016-.7744141,1.1337891-1.6806641,2.5996094l.4404297-.3999023c.3466797-.2661133.8662109-.6401367,1.5595703-1.1201172,2.9609375-1.8930664,5.7871094-2.8398438,8.4804688-2.8398438,1.7861328,0,3.3662109.3740234,4.7402344,1.1201172Zm-20.5,6.6401367c.1601562.3198242.3730469.8266602.6396484,1.5200195-.0537109.0537109.2128906-.293457.7998047-1.0400391.6933594-.9331055,1.3066406-1.9731445,1.8398438-3.1201172l.2402344-3.1601562c-.2939453.2138672-.6796875.5600586-1.1601562,1.0400391-.3994141.3999023-.7128906.6870117-.9394717.8598633-.2265439.1738281-.4872861.300293-.7802548.3803711-.3740234.1069336-.7871094.159668-1.2402344.159668-.2929688,0-.5732422-.0258789-.8398438-.0800781.1337891.2402344.6132812,1.387207,1.4404297,3.4404297Zm2.9599609,3.9599609c.0527344-1.5463867.1064453-2.7202148.1601562-3.5200195-.3476562.4799805-.5341797.746582-.5605469.7998047l-1.2001953,2.0400391c.6132812,1.5737305,1.0263672,2.5336914,1.2402344,2.8798828.0800781.1337891.1464844.2001953.2001953.2001953.0527344,0,.0800781-.2260742.0800781-.6801758l.0800781-1.7197266Z"/>
        <path class="cls-2" d="m294.7526134,50.2404891c.90627.8535156,1.6396684,2.0537109,2.2002153,3.5996094.5595703,1.546875.8398438,3.3339844.8398438,5.3603516,0,4.0537109-.8740234,7.4667969-2.6201172,10.2397461-1.7470703,2.7739258-4.6201172,4.8134766-8.6201172,6.1201172-.2939453.1064453-.5341797.1601562-.7197266.1601562-.2402344,0-.3603516-.09375-.3603516-.2802734,0-.1069336.0664062-.199707.2001953-.2797852,3.4658203-1.4663086,5.9003906-3.6533203,7.2998047-6.5600586,1.4003906-2.90625,2.1005859-5.9599609,2.1005859-9.1601562,0-2.5063477-.3339844-4.6459961-1-6.4199219-.6669922-1.7729492-1.5605469-2.6601562-2.6806641-2.6601562-.8798828,0-1.7197266.5400391-2.5195312,1.6201172s-1.4541016,2.347168-1.9599609,3.800293c-.5068359,1.4536133-.7607422,2.659668-.7607422,3.6196289,0,.4541016.0732422.887207.2207031,1.300293.1455078.4135742.3662109.8867188.6601562,1.4199219.1591797.3198242.3056641.6538086.4394531,1,.1328125.3466797.2001953.6401367.2001953.8798828,0,.2670898-.0869141.4868164-.2597656.6601562-.1738281.1738281-.4072266.2597656-.7001953.2597656-.6669922,0-1.2539062-.3129883-1.7597656-.9399414-.5068359-.6259766-.8876953-1.3999023-1.140625-2.3198242-.2539062-.9199219-.3798828-1.7929688-.3798828-2.6201172,0-1.1201172.140625-2.3999023.4199219-3.8398438.2802734-1.4399414.6601562-3.1865234,1.140625-5.2402344.2392578-1.0131836.453125-1.9863281.6396484-2.9199219.1865234-.9331055.2802734-1.6000977.2802734-2,0-.6132812-.2001953-1.1333008-.6005859-1.5600586-.1337891-.159668-.3134766-.3398438-.5400391-.5400391-.2265625-.199707-.3398438-.3662109-.3398438-.5,0-.1328125.09375-.2397461.2802734-.3198242s.4130859-.1201172.6796875-.1201172c.6660156,0,1.2402344.300293,1.7197266.8999023.4804688.6000977.7207031,1.3671875.7207031,2.300293,0,.8798828-.1142578,1.7666016-.3398438,2.659668-.2275391.894043-.5673828,2.046875-1.0205078,3.4604492l-.3994141,1.199707c-.2675781.800293-.4404297,1.6401367-.5205078,2.5200195.8261719-1.8662109,1.7402344-3.3461914,2.7402344-4.4399414,1-1.0932617,2.2197266-1.6401367,3.6601562-1.6401367.9599609,0,1.8925781.4267578,2.7997847,1.2802734Z"/>
        <path class="cls-2" d="m328.8922818,49.0002547c.2001953.1337891.2998047.347168.2998047.6401367,0,.3999023-.2792969.8134766-.8398438,1.2397461-1.6796875,1.2001953-3.3994141,2.1738281-5.1601562,2.9204102-2.2666016,10.6933594-3.6132812,16.706543-4.0400391,18.0395508-.2929688.8803711-.5732422,1.5-.8398438,1.8603516-.2666016.3598633-.5732422.5400391-.9199219.5400391-.4267578,0-.7998047-.1538086-1.1201172-.4599609-.3193359-.3066406-.4794922-.7265625-.4794922-1.2602539,0-.3999023.1064453-.8129883.3193359-1.2397461,2.2138672-4.746582,3.9208984-10.3203125,5.1201172-16.7202148-1.3867188.3999023-2.5595703.6000977-3.5195312.6000977-1.2265625,0-2.4941406-.6401367-3.7998047-1.9199219-.1875-.1865234-.2802734-.3461914-.2802734-.4799805,0-.1601562.0800781-.2402344.2402344-.2402344.1328125,0,.3330078.0668945.5996094.2001953.6933594.293457,1.4404297.4399414,2.2402344.4399414.7460938,0,1.5595703-.1333008,2.4394531-.3999023.7470703-.2133789,1.5869141-.5063477,2.5205078-.8803711.1601562-.9599609.3330078-2.1860352.5195312-3.6796875.0537109-.4262695.0800781-.840332.0800781-1.2402344,0-.8261719-.1132812-1.4199219-.3398438-1.7797852s-.7138672-.793457-1.4599609-1.300293c-.2138672-.1328125-.3203125-.2661133-.3203125-.3999023,0-.159668.1738281-.2397461.5205078-.2397461.2929688,0,.6728516.0537109,1.1396484.159668.4667969.1069336.8730469.2402344,1.2207031.4003906.5859375.293457,1.0253906.5864258,1.3193359.8798828.2929688.293457.4404297.746582.4404297,1.3598633,0,.1069336-.0273438.3198242-.0800781.6401367.5859375.5869141,1.1464844,1.0268555,1.6796875,1.3198242.2666016.1337891.7734375.3203125,1.5205078.5600586.453125.1601562.7792969.3071289.9794922.4399414Zm-3.0996094.2802734c0-.2133789-.1005859-.453125-.2998047-.7202148-.2001953-.2661133-.5136719-.6533203-.9404297-1.1601562l-.4003906,2-.3193359,1.5200195c1.3056641-.7197266,1.9599609-1.2661133,1.9599609-1.6396484Zm17.3193359,22.5996094c.1865234.2402344.2802734.5200195.2802734.840332,0,.6938477-.3935547,1.159668-1.1796875,1.3999023-.7871094.2397461-1.8603516.3598633-3.2197266.3598633-2.8271484,0-5.1474609-.5-6.9599609-1.5-1.8144531-1-2.7207031-2.6201172-2.7207031-4.8598633,0-.5063477.046875-.9731445.140625-1.3999023.0927734-.4262695.1796875-.7202148.2597656-.8803711.1064453-.2661133.2265625-.5058594.3603516-.7197266.1328125-.2133789.265625-.3198242.3994141-.3198242.1064453,0,.1601562.09375.1601562.2797852l-.0800781.7202148c-.0263672.1865234-.0400391.3999023-.0400391.6396484,0,.5336914.1064453,1.1201172.3203125,1.7602539.2128906.6396484.6132812,1.2265625,1.2001953,1.7597656.4794922.4541016,1.1796875.8271484,2.0996094,1.1201172.9199219.2939453,1.9794922.4399414,3.1796875.4399414.2929688,0,1-.0532227,2.1201172-.1601562.3730469-.0258789.7197266-.0527344,1.0400391-.0795898.3203125-.0263672.5859375-.0400391.7998047-.0400391.9863281,0,1.6005859.2133789,1.8398438.6396484Zm.7802734-19c.3066406.5600586.4599609,1.0268555.4599609,1.4003906,0,.5336914-.5195312.9199219-1.5595703,1.159668-.4804688.1069336-.8535156.1738281-1.1201172.2001953-.4003906.0537109-.8798828.1601562-1.4404297.3198242-.3994141.1337891-.8398438.3203125-1.3193359.5600586-.4804688.2402344-.8398438.4536133-1.0800781.6401367-.1875.1069336-.3466797.1601562-.4804688.1601562s-.2001953-.0532227-.2001953-.1601562c0-.1333008.0664062-.2802734.2001953-.4399414.1337891-.1333008.4931641-.4262695,1.0800781-.8803711.6933594-.5058594,1.2460938-.953125,1.6601562-1.3398438.4130859-.3862305.6201172-.7260742.6201172-1.0200195,0-.2661133-.1865234-.5332031-.5605469-.7998047-.5595703-.4262695-1.1728516-.7265625-1.8398438-.8999023s-1.2666016-.2602539-1.7998047-.2602539c-.3203125,0-.5869141.0200195-.7998047.0600586-.2138672.0400391-.3339844.0600586-.3603516.0600586-.3730469,0-.5595703-.1064453-.5595703-.3198242,0-.1865234.1728516-.3466797.5195312-.4804688.9599609-.3461914,1.9599609-.5195312,3-.5195312.8798828,0,1.7001953.1064453,2.4599609.3198242.7607422.2138672,1.3798828.4936523,1.8603516.8398438.5332031.3740234.953125.840332,1.2597656,1.3999023Z"/>
        <path class="cls-2" d="m364.3522427,72.160411c-.8261719-.3999023-1.7470703-1.0400391-2.7597656-1.9199219-2.6396484-2.3461914-3.9599609-5.6801758-3.9599609-10,0-1.4399414.1464844-3.0932617.4404297-4.9599609.1855469-1.0664062.2792969-1.8535156.2792969-2.3603516,0-.612793-.1132812-1.1660156-.3398438-1.659668-.2265625-.4931641-.6064453-.9931641-1.1396484-1.5-.1337891-.1333008-.2001953-.2402344-.2001953-.3203125s.0458984-.1396484.1396484-.1796875.1933594-.0600586.2998047-.0600586c.5332031,0,1.1005859.159668,1.7001953.4799805.6005859.3198242,1.1064453.746582,1.5205078,1.2797852.4130859.5336914.6201172,1.0668945.6201172,1.6000977,0,.3198242-.1474609,1.1469727-.4404297,2.4799805-.2666016,1.2802734-.4736328,2.3466797-.6201172,3.2001953s-.2197266,1.706543-.2197266,2.5600586c0,1.4399414.2734375,2.7597656.8203125,3.9599609.5458984,1.199707,1.1923828,2.159668,1.9394531,2.8798828.7460938.7197266,1.3730469,1.0800781,1.8798828,1.0800781.3203125,0,.5332031-.2666016.640625-.800293.4257812-1.9731445.8925781-3.5600586,1.3994141-4.7597656.0800781-.1865234.1738281-.3530273.2802734-.5.1064453-.1464844.2001953-.2202148.2802734-.2202148s.1201172.0800781.1201172.2402344c0,.1337891-.0273438.3598633-.0800781.6796875-.2675781,1.3339844-.4003906,2.546875-.4003906,3.6401367,0,.5068359.0400391,1.1601562.1201172,1.9599609.0263672.347168.0927734.6601562.2001953.9399414.1064453.2802734.1728516.4599609.2001953.5400391.2392578.4799805.359375.8803711.359375,1.2001953,0,.3466797-.09375.6201172-.2802734.8198242-.1865234.2001953-.453125.300293-.7998047.300293-.5068359,0-1.1738281-.2001953-2-.6000977Zm17.8398438-10.3203125c-.1865234-.2128906-.3466797-.5058594-.4794922-.8798828-.4003906-1.2260742-.8740234-2.4262695-1.4199219-3.6000977-.546875-1.1728516-1.2744141-1.9858398-2.1806641-2.4399414-.6132812-.3198242-1.4394531-.4799805-2.4794922-.4799805h-.4804688c-.2392578,0-.359375-.0800781-.359375-.2397461,0-.1064453.1328125-.2133789.3994141-.3203125.1064453-.0527344.3662109-.1196289.7802734-.199707.4130859-.0800781.8730469-.1201172,1.3798828-.1201172,1.8662109,0,3.4804688.6538086,4.8398438,1.9599609.9599609.9067383,1.6132812,1.8071289,1.9599609,2.7001953.3466797.8935547.5205078,1.5800781.5205078,2.0600586,0,.5068359-.1201172.9467773-.3603516,1.3198242-.2392578.3735352-.6132812.5600586-1.1201172.5600586-.4794922,0-.8134766-.1064453-1-.3203125Z"/>
        <path class="cls-2" d="m404.8327114,74.0002547c-.4267578-.4262695-.640625-.9331055-.640625-1.5200195,0-.612793.2138672-1.1259766.640625-1.5400391.4257812-.4130859.9326172-.6196289,1.5195312-.6196289.6132812,0,1.1269531.206543,1.5400391.6196289.4130859.4140625.6201172.9272461.6201172,1.5400391,0,.5869141-.2070312,1.09375-.6201172,1.5200195s-.9267578.6401367-1.5400391.6401367c-.5869141,0-1.09375-.2138672-1.5195312-.6401367Zm1.0996094-7.5400391c-.1201172-.1459961-.1797103-.3530273-.1797103-.6201172,0-3.5996094-.1005632-6.5-.2997819-8.699707-.2002181-2.2001953-.4736328-4.3530273-.8203125-6.4599609-.2666016-1.5200195-.4003906-2.6401367-.4003906-3.3598633,0-.8535156.1865234-1.5063477.5605469-1.9604492.3730469-.453125.8925781-.6796875,1.5595703-.6796875.6660156,0,1.1865234.2265625,1.5605469.6796875.3730469.4541016.5595703,1.1069336.5595703,1.9604492,0,.7197266-.1337891,1.8398438-.3994141,3.3598633-.3476562,2.1069336-.6201172,4.2597656-.8203353,6.4599609-.2001725,2.199707-.2997819,5.1000977-.2997819,8.699707,0,.2670898-.0605469.4741211-.1806641.6201172-.1201172.1469727-.2597656.2202148-.4199219.2202148s-.2998047-.0732422-.4199219-.2202148Z"/>
        <path class="cls-2" d="m416.3522427,74.0002547c-.4267578-.4262695-.640625-.9331055-.640625-1.5200195,0-.612793.2138672-1.1259766.640625-1.5400391.4257812-.4130859.9326172-.6196289,1.5195312-.6196289.6132812,0,1.1269531.206543,1.5400391.6196289.4130859.4140625.6201172.9272461.6201172,1.5400391,0,.5869141-.2070312,1.09375-.6201172,1.5200195s-.9267578.6401367-1.5400391.6401367c-.5869141,0-1.09375-.2138672-1.5195312-.6401367Zm1.0996094-7.5400391c-.1201172-.1459961-.1796875-.3530273-.1796875-.6201172,0-3.5996094-.1005859-6.5-.2998047-8.699707-.2001953-2.2001953-.4736328-4.3530273-.8203125-6.4599609-.2666016-1.5200195-.4003906-2.6401367-.4003906-3.3598633,0-.8535156.1865234-1.5063477.5605469-1.9604492.3730469-.453125.8925781-.6796875,1.5595703-.6796875.6660156,0,1.1865234.2265625,1.5605469.6796875.3730469.4541016.5595703,1.1069336.5595703,1.9604492,0,.7197266-.1337891,1.8398438-.3994141,3.3598633-.3476562,2.1069336-.6201172,4.2597656-.8203125,6.4599609-.2001953,2.199707-.2998047,5.1000977-.2998047,8.699707,0,.2670898-.0605469.4741211-.1806641.6201172-.1201172.1469727-.2597656.2202148-.4199219.2202148s-.2998047-.0732422-.4199219-.2202148Z"/>
      </g>
      <line class="cls-1" x1="25.4036436" y1="73.9592874" x2="1" y2="7.7591045"/>
      <g>
        <line class="cls-1" x1="458.8204369" y1="73.9592874" x2="483.2240805" y2="7.7591045"/>
        <line class="cls-1" x1="466.9047351" y1="73.9592874" x2="483.2240805" y2="64.3218847"/>
      </g>
    </g>
  </g>
</svg>