<?xml version="1.0" encoding="UTF-8"?>
<svg id="_レイヤー_2" data-name="レイヤー 2" xmlns="http://www.w3.org/2000/svg" viewBox="0 0 128.1991577 33.1449935">
  <defs>
    <style>
      .cls-1 {
        fill: #fff;
      }
    </style>
  </defs>
  <g id="_レイヤー_1-2" data-name="レイヤー 1">
    <g>
      <g>
        <g>
          <path class="cls-1" d="m53.5995483,11.9309164c0,.4761963-.1738281.963623-.5214844,1.461792-.3476562.4983521-.7773438.9107666-1.2900391,1.2369385-.5117188.326416-.9941406.489502-1.4453125.489502-.3046875,0-.5537109-.0946655-.7490234-.2844238-.1962891-.1895752-.2939453-.4519043-.2939453-.7871704,0-.4849243.2128906-1.053772.6386719-1.706543.0693359-.0969849.1259766-.1455688.1689453-.1455688.0351562,0,.0527344.0221558.0527344.0661621,0,.0529175-.0439453.1676636-.1308594.3439941-.0693359.1500244-.1318359.3352661-.1884766.555603-.0566406.2205811-.0849609.4233398-.0849609.6085205,0,.4057617.1435547.6085815.4306641.6085815.3203125,0,.6923828-.138916,1.1132812-.416748.4208984-.277771.7822266-.6151733,1.0810547-1.0120239.2998047-.3968506.4501953-.7584229.4501953-1.0847778,0-.6085815-.3349609-.9128418-1.0039062-.9128418-.5292969,0-1.2890625.2030029-2.2792969.6085815-.3564453.1411743-.8212891.3881836-1.3945312.7407837,0,.0883179.0175781.4940796.0527344,1.2171021l.0126953.3439941c0,.22052-.0214844.4609375-.0654297.7209473-.0429688.2602539-.0869141.4345093-.1298828.522583-.0439453.097168-.1103516.1875-.2021484.2711792-.0908203.0839233-.1669922.1256714-.2275391.1256714-.0615234,0-.1171875-.0175781-.1699219-.0529175-.0517578-.0350952-.0996094-.1101685-.1425781-.2248535-.1396484-.3262329-.3134766-.6085815-.5214844-.8466797-.078125-.0880737-.1826172-.1719971-.3125-.2513428-.1308594-.0794067-.2910156-.1674805-.4824219-.2645874l-.3388672.2248535c-.078125.0618286-.1542969.1124878-.2275391.1521606-.0742188.0396729-.1367188.0595093-.1894531.0595093-.1992188,0-.3759766-.090332-.5273438-.2711792-.1523438-.1806641-.2275391-.3724976-.2275391-.5755005,0-.1587524.0449219-.2755127.1367188-.3505249.0908203-.0748291.1708984-.1124878.2402344-.1124878.0439453,0,.1289062.0244141.2548828.0727539.125.048584.2060547.0728149.2402344.0728149.0351562,0,.0654297-.0043945.0917969-.0132446.1992188-.0615845.4472656-.1674194.7421875-.3175049.2949219-.1499023.5361328-.2755737.7236328-.3770142.1865234-.1013184.3144531-.1697388.3837891-.2050781l.2871094-.1587524.0126953-2.2092896c-.5126953.1940918-.8769531.3175049-1.0947266.3704224-.1035156.0177612-.1904297.0264893-.2597656.0264893-.2695312,0-.5039062-.0704956-.7041016-.2116699-.1386719-.0969849-.2734375-.2050781-.4033203-.3241577-.1308594-.1190186-.2216797-.2093506-.2744141-.2711792-.0693359-.0704956-.1035156-.1277466-.1035156-.1719971,0-.0350952.0214844-.0529175.0644531-.0529175.0527344,0,.1259766.0221558.2216797.0661621.0957031.0442505.1523438.0706787.1699219.0794067.0947266.0441895.2255859.081604.390625.1124268.1650391.0310059.3339844.0462646.5078125.0462646.1132812,0,.1953125-.0043335.2480469-.0131836.2685509-.0264893.6816406-.1366577,1.2373047-.3307495,0-.9260254-.0517578-1.5256958-.15625-1.7991943-.0605469-.1587524-.1523438-.277771-.2734375-.3571777-.1220703-.0793457-.2392578-.1409302-.3515625-.1851807-.1132812-.0440674-.1875038-.0748291-.2216797-.0925903-.0263672-.008728-.0615234-.0219116-.1044922-.0397339-.0439453-.0175781-.0654297-.0396729-.0654297-.0661011,0-.0351562.0244141-.0682373.0722656-.0992432.046875-.0308228.1015625-.0549927.1621094-.0727539.1308594-.0440674.2568359-.0661621.3779297-.0661621.1826172,0,.3671875.0330811.5537109.0992432.1865234.0661011.3369141.1477661.4501953.244751.1386719.1146851.2080078.3087769.2080078.5820312l-.0126953.277832-.0263672.2513428c.1298828.1676636.234375.277832.3125.3307495.2695312.1851807.4824219.2955933.6386719.3307495.0263672.0088501.0849609.0198364.1757812.0330811.0908203.0131836.1630859.0419312.2148438.0859375.0527344.0442505.078125.105835.078125.1852417,0,.1146851-.0214844.1984253-.0654297.2513428-.0429688.0529175-.1210938.1015015-.234375.1455078l-1.171875.4365845v1.0583496c0,.4586792.0039062.8026123.0126953,1.0318604.4951172-.2645874.8730469-.4452515,1.1337891-.5424194.5380859-.2027588,1.0419922-.3704224,1.5107422-.5026855s.9082031-.1984253,1.3164062-.1984253c.9980469,0,1.4980469.4762573,1.4980469,1.428772Zm-6.0449219.7672729c-.4257812.2823486-.8730469.604187-1.3417969.9656982.15625.097168.375.2116699.6572266.3439941.2822266.1322632.4541016.1984253.5146484.1984253.078125,0,.1220703-.057251.1308594-.1719971.0253906-.1587524.0390625-.6040039.0390625-1.3361206Zm.5859375-4.0216675l-.0126953.277771c.1210938-.0615845.1953125-.105835.2206993-.1322632.0615273-.0615845.0918007-.114502.0918007-.1587524,0-.0529175-.0263672-.1190796-.078125-.1984253-.0693359-.105835-.1347656-.2203979-.1953125-.3439941-.0175781.2470093-.0263672.432251-.0263672.5556641Zm6.4033203-.1190796c.2128906.1147461.3798828.2559204.5019531.4233398.1210938.1676025.1816406.3352661.1816406.5026855,0,.1676636-.0429688.2955933-.1298828.383667-.0869141.0882568-.1914062.1322632-.3125.1322632-.15625,0-.2910156-.0704346-.4042969-.2116699-.1904297-.2467651-.390625-.4365234-.5986328-.5688477-.2089844-.1322632-.4130859-.1984253-.6123047-.1984253-.1396484,0-.2871094.0396729-.4433594.1190796-.1132812.0529175-.2236328.1256714-.3320312.2182617s-.1757812.138916-.2021484.138916c-.0605469,0-.0908203-.0264282-.0908203-.0793457,0-.0351562.0214844-.0837402.0644531-.1455688.2958984-.3526001.5693359-.5886841.8212891-.7077637.2519531-.1190186.5292969-.1785889.8339844-.1785889.2685547,0,.5097656.0574951.7226562.1719971Z"/>
          <path class="cls-1" d="m62.6151733,5.2501303c.0175781-.0264282.0458984-.0682373.0849609-.1256714.0390625-.057251.0732422-.0992432.1044922-.1256714.0302734-.0264893.0625-.0396729.0976562-.0396729.0693359,0,.2167969.0971069.4423828.2910156.2265625.1940918.3691406.3485107.4306641.4630127.0253906.0442505.0166016.0882568-.0263672.1323242-.1308594.1146851-.2695312.1808472-.4169922.1984253v1.2171021c.0263672,1.0231934.0566406,1.7859497.0908203,2.2886353,0,.0529175-.0175781.097168-.0517578.1322632-.0869141.0707397-.2001953.1345825-.3388672.1918335-.1386719.0574951-.2607422.0859985-.3642578.0859985-.0869141,0-.1396484-.0661621-.15625-.1984253l.0126953-.1323242c0,.0089111.0087891-.0307617.0263672-.1190186v-.2381592h-2.6455078v4.0084839c.0175781,1.093689.0527344,2.1079712.1044922,3.0427246,0,.0350952-.0126953.0793457-.0390625.1322632-.0605469.0969238-.15625.1785889-.2861328.244751-.1308594.0661621-.2695312.0992432-.4169922.0992432-.078125,0-.1484375-.0264893-.2089844-.0794067s-.0908203-.1147461-.0908203-.1851807c.0341797-.5205078.0644531-1.0252686.0908203-1.5147705s.0439453-1.1311035.0527344-1.9248657v-5.3577881c0-1.0494995-.0478516-1.9005127-.1435547-2.5532837v-.0264282c0-.0351562.0107422-.0595703.0322266-.0727539.0214844-.0132446.0498047-.0109863.0849609.0065918l.8730469.4365845h2.4746094l.1826172-.277832Zm-.0644531,1.9447021v-1.2832642h-2.6455078v1.2832642h2.6455078Zm-2.6455078.3704224v1.322937h2.6455078v-1.322937h-2.6455078Zm2.6708984,6.99823l.0263672.3439941v.0595093c0,.0310059-.0087891.0551758-.0263672.0727539-.0517578.0706787-.1435547.1323242-.2734375.1852417s-.2646484.0793457-.4042969.0793457c-.0517578,0-.0976562-.0264282-.1367188-.0793457s-.0585938-.114563-.0585938-.1852417c.0351562-.335083.0605469-.7584229.078125-1.2700195v-.7805176c0-.8466797-.0390625-1.5874634-.1171875-2.2224731v-.0264893c0-.0350952.0107422-.057251.0332031-.0661011.0214844-.008728.0498047-.0043945.0839844.0131836l.8339844.3969116h2.8535156l.1826172-.2381592c.0253906-.0264282.0644531-.0748291.1171875-.1455078.0517578-.0704956.1035156-.105835.15625-.105835.078125,0,.2294922.0882568.4560547.2645874.2255859.1765137.3642578.3220215.4169922.4365845.0253906.0353394.0166016.0750122-.0263672.1190186-.0957031.097168-.2304688.1587524-.4042969.1852417v1.0847778c.0263672.8731079.0527344,1.5391235.078125,1.9976196,0,.0529175-.0166016.097168-.0517578.1322632-.0693359.0707397-.1757812.138916-.3193359.2050781-.1425781.0661621-.2666016.0992432-.3710938.0992432-.0869141,0-.1474609-.0661621-.1826172-.1984863l.0136719-.1322632.0390625-.1984253v-.2645874h-2.9970703v.2380981Zm0-3.0956421v2.4871216h2.9970703v-2.4871216h-2.9970703Zm3.0488281-1.8520508c0,.0529175-.0742188.1124268-.2216797.1785889s-.2998047.0991821-.4560547.0991821c-.0517578,0-.0957031-.0264282-.1298828-.0793457-.0351562-.0529175-.0527344-.114502-.0527344-.1852417.0351562-.3439331.0615234-.7848511.0791016-1.322876v-.7937622c0-.9082642-.0439453-1.6755981-.1308594-2.3018799v-.0264893c0-.0350952.0087891-.057251.0263672-.0661011.0175781-.008728.0429688-.0043945.078125.0131836l.8730469.3969116h2.5664062l.1826172-.277832c.0253906-.0264282.0664062-.0793457.1230469-.1587524.0566406-.0793457.1113281-.1190796.1630859-.1190796.0693359,0,.2324219.0992432.4882812.2976685.2568359.1984253.4189453.3551636.4892578.4696655.0253906.0441895.0166016.0882568-.0263672.1322632-.1298828.1147461-.2949219.1852417-.4951172.2116699v9.4589233c0,.2467651-.0283203.4451904-.0849609.5952759-.0566406.1499023-.1708984.2755737-.3447266.3770142-.1738281.1013184-.4296875.1740723-.7685547.2183228h-.0263672c-.0439453,0-.0742188-.0310059-.0908203-.0925903-.0615234-.2381592-.1435547-.3925781-.2480469-.4630737-.1914062-.1322632-.5126953-.2337646-.9638672-.3042603-.0693359-.0177612-.1044922-.0529175-.1044922-.105835,0-.0615845.0263672-.0925903.078125-.0925903.1132812,0,.2431641.0045776.390625.0132446.1484375.0088501.2910156.0177612.4306641.0264282.2607422.0264893.4638672.0397339.6123047.0397339.1298828,0,.2148438-.0219116.2539062-.0661621.0390625-.0440674.0585938-.1234131.0585938-.2381592v-6.1780396h-2.7490234v.3439941Zm2.7490234-2.4209595v-1.2832642h-2.7490234v1.2832642h2.7490234Zm-2.7490234.3704224v1.322937h2.7490234v-1.322937h-2.7490234Z"/>
          <path class="cls-1" d="m76.7763062,15.145577c-.2685547-.1322632-.5683594-.3439331-.8984375-.6350098-.8603516-.7759399-1.2900391-1.87854-1.2900391-3.307312,0-.4762573.0478516-1.0229492.1435547-1.6403809.0605469-.3526611.0908203-.612915.0908203-.7805176,0-.2028198-.0371094-.3857422-.1103516-.5490112-.0742188-.1630859-.1982422-.3284912-.3710938-.4960938-.0439453-.0440674-.0654297-.0794067-.0654297-.105835,0-.0264893.0146484-.0463257.0458984-.0595703.0302734-.0131836.0625-.0198364.0976562-.0198364.1728516,0,.3574219.0529175.5537109.1587524.1953125.105835.3603516.2470093.4951172.4233398.1337891.1765137.2011719.3528442.2011719.5291748,0,.105835-.0478516.3792725-.1425781.8201904-.0869141.4233398-.1542969.7761841-.2021484,1.0583496-.0478516.2823486-.0722656.5645142-.0722656.8466797,0,.4762573.0888672.9127808.2675781,1.3096924.1777344.3968506.3886719.7143555.6318359.9525146.2431641.2380981.4472611.3571777.6123047.3571777.1044922,0,.1738281-.0880737.2080078-.2645874.1396484-.6525879.2910156-1.1774292.4560547-1.5742798.0263672-.0615845.0566406-.1168213.0917969-.1653442.0341797-.0484009.0644531-.0727539.0908203-.0727539s.0390625.0264282.0390625.0793457c0,.0442505-.0087891.1190796-.0263672.2249146-.0869141.4411011-.1298828.8422852-.1298828,1.2038574,0,.1676025.0126953.383606.0390625.6481934.0087891.1147461.0302734.2183228.0654297.3109131.0341797.0925903.0566406.1520996.0644531.1785889.0791016.1587524.1181641.2910156.1181641.3968506,0,.1147461-.03125.2050781-.0917969.2712402-.0605469.0661011-.1474609.0991821-.2607422.0991821-.1650391,0-.3818359-.0661011-.6513672-.1984253Zm5.8105469-3.413147c-.0605469-.0704956-.1123047-.1674194-.15625-.2910156-.1298828-.4055786-.2841797-.8024292-.4619141-1.1906128-.1787109-.3880005-.4150391-.6569214-.7099609-.8070068-.2001953-.105835-.4697266-.1587524-.8085938-.1587524h-.15625c-.078125,0-.1171875-.0264282-.1171875-.0793457,0-.0351562.0439453-.0704956.1308594-.105835.0341797-.0175781.1191406-.0397339.2539062-.0661621.1347656-.0264893.2841797-.0396729.4492188-.0396729.6083984,0,1.1337891.2161865,1.5761719.6481934.3134766.2999268.5253906.5975952.6386719.8930054.1132812.2955933.1689453.522522.1689453.6812744,0,.1676636-.0390625.3131714-.1171875.4365845-.078125.1235962-.1992188.1851807-.3642578.1851807-.15625,0-.265625-.0350952-.3261719-.105835Z"/>
          <path class="cls-1" d="m91.1923218,8.2796102c-1.0898438.9702759-2.2119141,1.7376099-3.3671875,2.3018799-.0087891.0089111-.0214844.0132446-.0390625.0132446-.0439453,0-.0742188-.0219116-.0917969-.0661621l-.0126953-.0131836c-.0087891-.008728-.0126953-.0264893-.0126953-.0529175,0-.0351562.0214844-.0661621.0644531-.0926514.6953125-.4144287,1.4052734-.9545288,2.1308594-1.6205444.7246094-.6658325,1.3613281-1.3560181,1.9082031-2.0703735.5390625-.7144165.8857422-1.4110107,1.0419922-2.09021.0087891-.0351562.0244141-.0595703.0458984-.0727539.0214844-.0132446.0498047-.0153198.0849609-.0066528l1.3935547.4365845c.0351562.0177612.0585938.0375977.0722656.0595093.0126953.0221558.0058594.0463257-.0195312.0727539-.0351562.0442505-.0869141.0750732-.15625.0926514-.0703125.0177612-.1699219.0353394-.2998047.0529175.5292969.7937012,1.2617188,1.5345459,2.1953125,2.2224731s1.9648438,1.2745361,3.09375,1.7595215c.0693359.0264282.0957031.0706787.078125.1322632v.0132446c-.0175781.0529175-.0517578.0925903-.1044922.1190796-.1386719.0353394-.2597656.1037598-.3642578.2050171-.1044922.1015015-.1826172.2182617-.234375.3505859-.0263672.0618286-.0742188.0793457-.1435547.0529175-1.0507812-.5643311-2-1.2588501-2.8466797-2.0836182-.8466797-.8245239-1.4833984-1.6953735-1.9082031-2.6127319-.5820312.9613647-1.4179688,1.927124-2.5087891,2.8971558Zm-.4492188,7.765564l.0263672.3175049v.0661621c0,.0264282-.0048828.0483398-.0126953.0661011-.0527344.0794067-.1503906.147583-.2939453.2050781-.1425781.057251-.2880859.0859985-.4365234.0859985-.0693359,0-.1230469-.0264893-.1621094-.0794067s-.0585938-.1146851-.0585938-.1851807c.0341797-.4057617.0605469-.9082642.078125-1.5081177v-.8995972c0-1.0405884-.0478516-1.8961182-.1435547-2.5664673v-.0264893c0-.0350952.0087891-.057251.0263672-.0661011.0166016-.008728.0429688-.0043945.078125.0131836l.9638672.4365845h5.2763672l.1953125-.277832c.0263672-.0350952.0693359-.090332.1308594-.1653442.0605469-.0748291.1171875-.1124268.1689453-.1124268.0693359,0,.2324219.0991821.4882812.2976074.2558594.1984863.4189453.3551636.4892578.4696655.0253906.0442505.0166016.0882568-.0263672.1322632-.1132812.097168-.2695312.1676636-.46875.2116699v1.322937c.0253906,1.093689.0556641,1.9182739.0908203,2.473877,0,.0529175-.0175781.0969238-.0517578.1322632-.078125.0704956-.1962891.1366577-.3525391.1984863-.15625.0615845-.2949219.0925903-.4169922.0925903-.0869141,0-.1474609-.0661621-.1816406-.1984253,0-.0529175.0039062-.097168.0126953-.1323242l.0390625-.2380981v-.2910767h-5.4589844v.2249146Zm1.7197266-6.2177124c-.5732422.0177612-1.1162109.0750122-1.6279297.171936h-.0390625c-.0351562,0-.0654297-.0219116-.0917969-.0661011l-.234375-.4630127c-.0087891-.008728-.0126953-.0264893-.0126953-.0529175,0-.0440674.0302734-.0661621.0908203-.0661621.4775391.0442505,1.0078125.0750122,1.5898438.0925903h2.7226562l.2607422-.383667c.0341797-.0440063.0712891-.0969238.1103516-.1587524.0390625-.0615845.0800781-.114502.1240234-.1587524.0429688-.0440063.0820312-.0661011.1171875-.0661011.0693359,0,.2431641.1170044.5214844.3505249.2773438.2338257.4472656.4124146.5078125.5358276.0087891.0441895.0087891.0839233,0,.1190186-.0517578.097168-.1611328.1455688-.3261719.1455688h-3.7128906Zm-1.7197266,2.4606323v3.1353149h5.4589844v-3.1353149h-5.4589844Z"/>
          <path class="cls-1" d="m111.2948608,9.020455c.4472656.2470093.7949219.5866089,1.0419922,1.0186768.2480469.4321899.3710938.9127808.3710938,1.4419556,0,.7232666-.2343804,1.3824463-.703125,1.9777832-.46875.5952759-1.0664062,1.0870361-1.7910156,1.4750366-.7255859.3881836-1.4746094.652771-2.2480469.7937622-.1298828.0264893-.2207031.0396729-.2734375.0396729-.0957031,0-.1435547-.0219116-.1435547-.0661011,0-.0529175.0566406-.0926514.1699219-.1190796.7636719-.1939087,1.4570312-.5180054,2.078125-.9723511.6210938-.4541626,1.109375-.9810181,1.4658203-1.5808716.3554688-.5996704.5341797-1.2038574.5341797-1.812439,0-.4233398-.1005859-.7958374-.2998047-1.1178589-.2001953-.3218384-.4716797-.5709229-.8144531-.7474365-.3427734-.1763306-.7226562-.2645874-1.1396484-.2645874-.5654297,0-1.1533203.1500854-1.765625.4497681-.6123047.2999268-1.1708984.7232666-1.6738281,1.2700195-.0175781.4233398-.0263672.7408447-.0263672.9525146,0,1.0318604.078125,1.9492188.234375,2.7516479.0351562.1500854.0517578.2955933.0517578.4365845,0,.1940918-.0322266.3439331-.0976562.4497681-.0644531.105835-.1455078.1587524-.2402344.1587524-.1308594,0-.2441406-.0505981-.3388672-.1520996-.0957031-.1013184-.1611328-.244751-.1953125-.4299927-.1132812-.6878662-.3085938-1.4816284-.5869141-2.3812256-.1298828.2380981-.3300781.6174316-.5986328,1.1376953-.1572266.3175049-.3349609.4762573-.5341797.4762573-.0957031,0-.1767578-.0374146-.2412109-.1124268-.0654297-.0748291-.0976562-.1697388-.0976562-.2844238,0-.0351562.0078125-.0880737.0253906-.1587524.0351562-.1674805.1220703-.3483276.2607422-.5424194.1386719-.1939087.3603516-.4762573.6650391-.8466797l.2988281-.3571777c-.3554688-1.0318604-.6289062-1.6491089-.8203125-1.8521118-.1650391-.1674194-.2470703-.2996826-.2470703-.3968506,0-.0880737.0410156-.147583.1230469-.1785889.0830078-.0308228.1630859-.0463257.2412109-.0463257l.2480469.0132446c.1728516,0,.3183594-.0153198.4355469-.0463257.1181641-.0307617.2373047-.0814209.3583984-.1520996.2695312-.1587524.5390625-.3615112.8076172-.6085815.0175781-.1409302.0263672-.2424316.0263672-.3042603l.1171875-.93927c.0693359-.4584351.1044922-.8069458.1044922-1.045105,0-.4497681-.1259766-.8024292-.3779297-1.0583496-.0263672-.0264282-.0673828-.0661011-.1240234-.1190186s-.0839844-.0926514-.0839844-.1190796c0-.0440063.0390625-.0661621.1171875-.0661621.1210938,0,.3037109.0618286.546875.1852417.4951172.2470093.7421875.5601196.7421875.93927,0,.105835-.0146484.2095947-.0449219.3108521-.03125.1015015-.0673828.1964111-.1113281.2844238-.1035156.2116699-.1738281.4014282-.2080078.5688477-.1044922.5291748-.1611328.8202515-.1699219.8731689l.0527344-.0396729c.0869141-.0616455.1650391-.0926514.234375-.0926514.1044922,0,.2382812.0618286.4042969.1852417.0859375.0617676.1298828.1544189.1298828.277771,0,.105835-.0283203.2294922-.0849609.3704224-.0566406.1411743-.1279297.269165-.2148438.383667-.0693359.0882568-.2519531.374939-.546875.8599243l.1435547-.1323242c.1123047-.0880737.28125-.2116699.5078125-.3704224.9638672-.6260986,1.8847656-.93927,2.7617188-.93927.5820312,0,1.0966797.1235962,1.5439453.3704224Zm-6.6767578,2.1960449c.0517578.105835.1210938.2734985.2080078.5027466-.0175781.0177612.0693359-.0969849.2607422-.3439941.2255859-.3085938.4257812-.6525879.5996094-1.0318604l.078125-1.045105c-.0957031.0706787-.2216797.1851807-.3779297.3439331-.1308594.1323242-.2324219.2271729-.3066406.2844238-.0732422.0574951-.1582031.0992432-.2539062.1256714-.1210938.0354004-.2558594.0529175-.4033203.0529175-.0957031,0-.1875-.008667-.2744141-.0264282.0439453.0793457.2001901.4586792.4697266,1.1376953Zm.9638672,1.3096924c.0175781-.5113525.0341797-.8995972.0517578-1.1641846-.1123047.1587524-.1738281.2470093-.1816406.2645874l-.3916016.6746826c.2001953.5205078.3349609.8380127.4042969.9525146.0263672.0442505.0478516.0661621.0654297.0661621.0166016,0,.0253906-.0748291.0253906-.2249146l.0263672-.5688477Z"/>
          <path class="cls-1" d="m128.0956421,8.8617025c.0693359.0794067.1035156.1587524.1035156.2381592,0,.105835-.0390625.2050171-.1171875.2976074-.078125.0926514-.1777344.138916-.2998047.138916-.0517578,0-.2431641-.0264282-.5732422-.0793457s-.6943359-.0794067-1.09375-.0794067c-.4521484,0-.8779297.0132446-1.2773438.0397339-.0605469.8731079-.1689453,1.5831299-.3251953,2.1298828-.1132812.3792725-.2568359.6924438-.4296875.93927-.1738281.2470093-.3828125.3704224-.6259766.3704224-.1386719,0-.2275391-.0219116-.2666016-.0661621-.0390625-.0440063-.0634766-.1101685-.0722656-.1984253-.0253906-.2468262-.1279297-.4960938-.3056641-.7474365-.1787109-.2514038-.3408203-.4519043-.4882812-.6019287-.0615234-.0616455-.0917969-.114563-.0917969-.1587524,0-.0264893.0175781-.0397339.0527344-.0397339.0429688,0,.0947266.0178223.15625.0529175.0429688.0264893.1953125.1236572.4560547.2910767.2597656.1676025.4423828.2513428.546875.2513428.0869141,0,.15625-.0264282.2080078-.0793457.3046875-.3086548.4951172-1.0054321.5732422-2.09021-1.1894531.1235962-2.3271484.4057617-3.4130859.8466187.0341797,1.6757812.1171875,2.8575439.2470703,3.5454712.0527344.2645874.1503906.4586792.2939453.5820923.1425781.1235962.3017578.2006836.4755859.2315063.1728516.0310059.3945256.0462646.6640625.0462646.3652344,0,.7666016-.0219116,1.2050781-.0661621.4384766-.0440063.8095703-.105835,1.1142578-.1851807.1386719-.0351562.2519531-.0529175.3388672-.0529175.1816406,0,.3291016.048584.4423828.1455078.1132812.097168.1699219.2073364.1699219.3307495,0,.1587524-.0673828.269104-.2021484.3307495-.1347656.0617676-.3457031.1235962-.6318359.1851807-.1308594.0264893-.3632812.0551758-.6972656.0859985-.3349609.0310059-.6796875.0463257-1.0361328.0463257-1.3369141,0-2.1708984-.2514038-2.5009766-.7540894-.1738281-.2556763-.3085938-.890686-.4042969-1.9050293-.0693359-.6790161-.1123047-1.437439-.1298828-2.2753906l-.3652344.1851807c-.1650391.0794067-.3037109.1478271-.4169922.2050781-.1123047.0574341-.2080078.1037598-.2861328.138916-.2001953.105835-.3496094.1765137-.4492188.2116699-.1005859.0353394-.2285156.0529175-.3847656.0529175-.3212891,0-.5820312-.1101685-.78125-.3307495-.2001953-.2203369-.2998047-.4584961-.2998047-.7143555,0-.1852417.0390625-.277832.1171875-.277832.0341797,0,.0996094.048584.1953125.1455078.0957031.0882568.1933594.1587524.2929688.2116699s.2324219.0794067.3974609.0794067c.2001953,0,.4902344-.0704956.8730469-.2116699.2431641-.0880737.6035156-.2028198,1.0810547-.3439941-.0605469-1.1906128-.1425781-1.8652954-.2470703-2.0240479-.0703125-.114502-.1455078-.2028198-.2285156-.2645874-.0820312-.0615845-.1845703-.114502-.3056641-.1587524-.15625-.0704956-.234375-.1323242-.234375-.1852417,0-.0704346.0820312-.1300049.2470703-.1785889.1650391-.0483398.3261719-.0727539.4824162-.0727539.3642634,0,.6640681.1190796.8984431.3571777.1044922.105835.15625.2338257.15625.383667,0,.0618286-.0039062.1147461-.0126953.1587524-.0087891.0442505-.0175781.0839233-.0263672.1190796-.0341797.1500244-.0517578.6879272-.0517578,1.6139526v.0529175c1.2763672-.3704224,2.4228516-.6260986,3.4394531-.7672729.0087891-.1409912.0126953-.3439941.0126953-.6085815,0-.4762573-.0175781-.9082642-.0517578-1.2964478-.0439453-.335083-.2304688-.5864258-.5605469-.7540894-.0869141-.0440063-.1298828-.0880127-.1298828-.1322632,0-.0615845.0478516-.1101685.1435547-.1455078.0947266-.0351562.1904297-.0529175.2861328-.0529175.1386719,0,.2890625.0220947.4492188.0661011.1611328.0442505.2851562.1015015.3720703.1719971.1035156.0882568.1865234.1765137.2470703.2645874.0605469.0882568.0908203.1897583.0908203.3042603,0,.0353394-.0253906.1676636-.078125.3969116l-.078125.383606v.0264893c.3212891.2380981.7099609.4719238,1.1660156.7011108.4560547.2294922.8193359.3485107,1.0878906.3572388.0869141,0,.1699219-.0043335.2480469-.0132446.078125-.008667.1474609-.0132446.2080078-.0132446.0869141,0,.1474609.0089111.1826172.0264893.0957031.0441895.1777344.105835.2480469.1851807Zm-2.2021484-.105835c0-.0969238-.3212891-.3615112-.9638672-.7937622l-.0527344.9657593c.2265625-.0175781.3867188-.0264893.4824219-.0264893.3564453,0,.5341797-.0483398.5341797-.1455078Z"/>
        </g>
        <g>
          <path class="cls-1" d="m45.1835327,23.8425985c0-1.4067993,0-1.6593018-.0185547-1.947876-.0175781-.3066406-.0878906-.4509277-.3818359-.5140381-.0703125-.0180664-.2216797-.0270386-.3017578-.0270386-.0351562,0-.0703125-.0180664-.0703125-.0541382,0-.0540771.0439453-.0721436.1416016-.0721436.3994141,0,.9589844.0270996,1.0039062.0270996.0976562,0,.7724609-.0270996,1.0478516-.0270996.5595703,0,1.1542969.0541382,1.625.3967896.2216797.1623535.6123047.604187.6123047,1.2264404,0,.6673584-.2753906,1.3346558-1.0742188,2.0831909.7285156.9468384,1.3320312,1.7494507,1.8466797,2.3085938.4804688.5139771.8623047.6131592,1.0839844.649292.1689453.0270386.2929688.0270386.3466797.0270386.0439453,0,.0791016.0270386.0791016.0540771,0,.0541382-.0527344.0721436-.2128906.0721436h-.6308594c-.4970703,0-.71875-.045105-.9501953-.1713257-.3818359-.2073975-.6923828-.649292-1.1982422-1.3256226-.3730469-.4960327-.7910156-1.1002197-.9677734-1.3346558-.0361328-.0360718-.0625-.0541382-.1162109-.0541382l-1.0917969-.0180054c-.0449219,0-.0625.0270386-.0625.0721436v.2164307c0,.8657227,0,1.578125.0449219,1.9569092.0263672.2614746.0800781.4598999.3457031.4959717.125.0180054.3203125.0360718.4003906.0360718.0527344,0,.0703125.0270386.0703125.0540771,0,.045105-.0439453.0721436-.1416016.0721436-.4882812,0-1.0478516-.0270386-1.0927734-.0270386-.0087891,0-.5683594.0270386-.8349609.0270386-.0976562,0-.1416016-.0180054-.1416016-.0721436,0-.0270386.0175781-.0540771.0712891-.0540771.0800781,0,.1865234-.0180664.2666016-.0360718.1767578-.0360718.2216797-.2344971.2568359-.4959717.0449219-.3787842.0449219-1.0911865.0449219-1.9569092v-1.5871582Zm.7099609.7845459c0,.045105.0175781.0811768.0625.1082153.1328125.0811768.5419922.1442871.9326172.1442871.2128906,0,.4619141-.0270386.6660156-.1713257.3105469-.2164307.5410156-.7034302.5410156-1.3887939,0-1.1271973-.5859375-1.8035889-1.5361328-1.8035889-.2666016,0-.5058594.0270996-.5947266.0541382-.0449219.0180054-.0712891.0540771-.0712891.1082153v2.9488525Z"/>
          <path class="cls-1" d="m52.9911499,23.8425985c0-1.4067993,0-1.6593018-.0175821-1.947876-.0185507-.3066406-.0888632-.4509277-.3828086-.5140381-.0615234-.0180664-.1767578-.0180664-.2568359-.0270386-.0625-.0090332-.1152344-.0180664-.1152344-.0541382,0-.0540771.0439453-.0721436.1416016-.0721436.2041016,0,.4443359,0,1.0039062.0270996.0615234,0,1.8291016,0,2.0332031-.0090332.1953125-.0090332.3554688-.0270996.4082031-.0541382.0537109-.0270386.0712891-.0360718.0976562-.0360718.0273438,0,.0361328.0360718.0361328.0811768,0,.0631104-.0537109.1713257-.0712891.4238281-.0087891.1352539-.0175781.3066406-.0351562.5410767-.0087891.09021-.0361328.1533203-.0712891.1533203-.0537109,0-.0712891-.045105-.0712891-.1172485,0-.1171875-.0175781-.2254639-.0439453-.2976074-.0625-.2073975-.2490234-.2975464-.6396484-.3336182-.1513672-.0180664-1.1191406-.0270996-1.2167969-.0270996-.0351562,0-.0527344.0270996-.0527344.09021v2.4889526c0,.0631104.0087891.0901489.0527344.0901489.1152344,0,1.2080078,0,1.4121094-.0180054.2402344-.0180054.3554688-.045105.4443359-.1533203.0439453-.0540771.0703125-.0901489.1064453-.0901489.0263672,0,.0439453.0180054.0439453.0721436,0,.0540771-.0439453.2073975-.0703125.5050049-.0273438.279541-.0273438.4869385-.0361328.6132202-.0087891.0901489-.0263672.1352539-.0615234.1352539-.0537109,0-.0625-.0721436-.0625-.1442871,0-.0811768-.0087891-.1713257-.0361328-.2525024-.0351562-.1352539-.1416016-.2615356-.4609375-.2976074-.2402344-.0270386-1.1191406-.0450439-1.2705078-.0450439-.0439453,0-.0615234.0270386-.0615234.0631104v.7935791c0,.3065796-.0097656,1.3526611,0,1.5420532.0175781.369751.0703125.5681152.2929688.6583252.1503906.0631104.390625.0811157.7363281.0811157.2666016,0,.5595703-.0089722.7998047-.0811157.2841797-.09021.3818359-.2796021.453125-.6673584.0175781-.0991821.0351562-.1352539.0790975-.1352539.053715,0,.053715.0721436.053715.1352539,0,.0721436-.0712891.6853638-.1152344.8747559-.0625.234436-.1337891.234436-.4794922.234436-.6572266,0-.9501953-.0180054-1.296875-.0270386-.3554688-.0089722-.7636719-.0270386-1.1103516-.0270386-.2128906,0-.4257812.0360718-.6572266.0270386-.0976562,0-.1416016-.0180054-.1416016-.0721436,0-.0270386.0439453-.045105.0976562-.0540771.0888672-.0090332.1416016-.0090332.2041016-.0270386.1865234-.045105.3017578-.1713867.3203086-.8477173.008793-.3516846.0175821-.8115845.0175821-1.6141968v-1.5871582Z"/>
          <path class="cls-1" d="m61.9794312,28.1712118c-2.4599609,0-3.4726562-1.9208374-3.4726562-3.5440674,0-1.4609375,1.0478516-3.526001,3.4990234-3.526001,1.9980469,0,3.4902344,1.2895508,3.4902344,3.3817139,0,1.5871582-.9863281,2.6422729-1.5722656,3.0300293l1.8203125.9559326c1.9453125,1.0189819,3.2949219,1.0640869,3.7392578,1.0640869s1.1367188-.0991821,1.7490234-.3516846c.0537109-.0180664.0976562-.0360718.125-.0360718.0351562,0,.0527344.0270386.0527344.0540771,0,.0360718-.0175781.0631714-.0712891.09021-.5058594.234436-1.5.6222534-2.8144531.6222534-1.0751953,0-2.2207031-.3968506-3.6591797-1.2084351l-1.4921875-.8386841c-.3193359.1713867-.9228516.3066406-1.3935547.3066406Zm2.6640625-3.4358521c0-2.1643066-1.296875-3.3276367-2.7001953-3.3276367-1.4824219,0-2.5927734.9920044-2.5927734,2.9669189,0,2.1011963,1.2431641,3.4538574,2.8417969,3.4538574.7988281,0,2.4511719-.4689331,2.4511719-3.0931396Z"/>
          <path class="cls-1" d="m69.1473999,25.1051107c0,1.298584.2841797,1.857666.6660156,2.227417.4355469.414856.8349609.4959717,1.3417969.4959717.5410156,0,1.0742188-.2615356,1.3935547-.649292.4091797-.5139771.515625-1.2805176.515625-2.2094116v-1.1271973c0-1.4067993,0-1.6593018-.0175781-1.947876-.0185547-.3066406-.0888672-.4509277-.3818359-.5140381-.0712891-.0180664-.2226562-.0270386-.3027344-.0270386-.0351562,0-.0703125-.0180664-.0703125-.0541382,0-.0540771.0439453-.0721436.1416016-.0721436.3994141,0,.8876953.0270996.9414062.0270996.0625,0,.4794922-.0270996.7460938-.0270996.0976562,0,.1416016.0180664.1416016.0721436,0,.0360718-.0351562.0541382-.0703125.0541382-.0625,0-.1162109.0089722-.2226562.0270386-.2392578.0540771-.3105469.1983643-.328125.5140381-.0175781.2885742-.0175781.5410767-.0175781,1.947876v.9649048c0,.973938-.1064453,2.0560913-.8173828,2.6963501-.6396484.5771484-1.3056641.6673584-1.8291016.6673584-.3017578,0-1.1992188-.0360718-1.8300781-.6402588-.4345703-.4238892-.7724609-1.0551147-.7724609-2.3717651v-1.3165894c0-1.4067993,0-1.6593018-.0175781-1.947876-.0175781-.3066406-.0888672-.4509277-.3818359-.5140381-.0712891-.0180664-.2216797-.0270386-.3017578-.0270386-.0361328,0-.0712891-.0180664-.0712891-.0541382,0-.0540771.0449219-.0721436.1425781-.0721436.3994141,0,.9414062.0270996,1.0205078.0270996.0800781,0,.6132812-.0270996.8798828-.0270996.0976562,0,.1416016.0180664.1416016.0721436,0,.0360718-.0351562.0541382-.0712891.0541382-.0615234,0-.1152344.0089722-.2216797.0270386-.2392578.0360718-.3105469.1983643-.328125.5140381-.0185547.2885742-.0185547.5410767-.0185547,1.947876v1.2625122Z"/>
          <path class="cls-1" d="m77.3739624,23.8425985c0-1.4067993,0-1.6593018-.0175781-1.947876-.0185547-.3066406-.0888672-.4509277-.3828171-.5140381-.0615189-.0180664-.1767533-.0180664-.2568314-.0270386-.0625-.0090332-.1152344-.0180664-.1152344-.0541382,0-.0540771.0439453-.0721436.1416016-.0721436.2041016,0,.4443359,0,1.0039062.0270996.0615234,0,1.8291016,0,2.0332031-.0090332.1953125-.0090332.3554688-.0270996.4082031-.0541382.0537109-.0270386.0712891-.0360718.0976562-.0360718.0273438,0,.0361328.0360718.0361328.0811768,0,.0631104-.0537109.1713257-.0712891.4238281-.0087891.1352539-.0175781.3066406-.0351562.5410767-.0087891.09021-.0361328.1533203-.0712891.1533203-.0537109,0-.0712891-.045105-.0712891-.1172485,0-.1171875-.0175781-.2254639-.0439453-.2976074-.0625-.2073975-.2490234-.2975464-.6396484-.3336182-.1513672-.0180664-1.1191406-.0270996-1.2167969-.0270996-.0351562,0-.0527344.0270996-.0527344.09021v2.4889526c0,.0631104.0087891.0901489.0527344.0901489.1152344,0,1.2080078,0,1.4121094-.0180054.2402344-.0180054.3554688-.045105.4443359-.1533203.0439453-.0540771.0703125-.0901489.1064453-.0901489.0263672,0,.0439453.0180054.0439453.0721436,0,.0540771-.0439453.2073975-.0703125.5050049-.0273438.279541-.0273438.4869385-.0361328.6132202-.0087891.0901489-.0263672.1352539-.0615234.1352539-.0537109,0-.0625-.0721436-.0625-.1442871,0-.0811768-.0087891-.1713257-.0361328-.2525024-.0351562-.1352539-.1416016-.2615356-.4609375-.2976074-.2402344-.0270386-1.1191406-.0450439-1.2705078-.0450439-.0439453,0-.0615234.0270386-.0615234.0631104v.7935791c0,.3065796-.0097656,1.3526611,0,1.5420532.0175781.369751.0703125.5681152.2929688.6583252.1503906.0631104.390625.0811157.7363281.0811157.2666016,0,.5595703-.0089722.7998047-.0811157.2841797-.09021.3818359-.2796021.453125-.6673584.0175781-.0991821.0351562-.1352539.0791016-.1352539.0537109,0,.0537109.0721436.0537109.1352539,0,.0721436-.0712891.6853638-.1152344.8747559-.0625.234436-.1337891.234436-.4794922.234436-.6572266,0-.9501953-.0180054-1.296875-.0270386-.3554688-.0089722-.7636719-.0270386-1.1103516-.0270386-.2128906,0-.4257812.0360718-.6572266.0270386-.0976562,0-.1416016-.0180054-.1416016-.0721436,0-.0270386.0439453-.045105.0976562-.0540771.0888672-.0090332.141597-.0090332.2041016-.0270386.1865234-.045105.3017578-.1713867.3203125-.8477173.0087891-.3516846.0175781-.8115845.0175781-1.6141968v-1.5871582Z"/>
          <path class="cls-1" d="m83.3339233,27.9276815c-.125-.0631104-.1337891-.0991821-.1337891-.3426514,0-.4509277.0361328-.8116455.0449219-.9559326.0087891-.0991821.0263672-.1442871.0703125-.1442871.0537109,0,.0625.0270996.0625.0992432,0,.0811768,0,.2073975.0263672.3336182.1337891.6673584.7197266.9198608,1.3144531.9198608.8525391,0,1.2705078-.6222534,1.2705078-1.1994019,0-.6221924-.2578125-.9829102-1.0214844-1.62323l-.3994141-.3336792c-.9414062-.7845459-1.1542969-1.3436279-1.1542969-1.9568481,0-.9649048.7099609-1.62323,1.8378906-1.62323.3466749,0,.6035156.0360718.8261719.0901489.1679688.0360718.2392578.045105.3105469.045105s.0888672.0180664.0888672.0631104c0,.045105-.0351562.3427124-.0351562.9559326,0,.1442871-.0185547.2073975-.0625.2073975-.0537109,0-.0625-.045105-.0712891-.1172485-.0087891-.1082153-.0625-.3516846-.1152344-.4508667-.0537109-.0992432-.2929688-.4779663-1.1103516-.4779663-.6123047,0-1.0917969.3877563-1.0917969,1.0460815,0,.5140381.2304688.8386841,1.0830078,1.5150146l.2490234.1983643c1.0478516.8386841,1.2958984,1.3978271,1.2958984,2.1192627,0,.369751-.1416016,1.0550537-.7548828,1.4969482-.3818359.2705688-.8613281.3787842-1.3408203.3787842-.4169922,0-.8251953-.0631104-1.1894531-.2435303Z"/>
          <path class="cls-1" d="m91.8788452,25.4297567c0,.8657227,0,1.578125.0439453,1.9569092.0263672.2614746.0800781.4598999.3466797.4959717.1240234.0180054.3193359.0360718.3994141.0360718.0537109,0,.0712891.0270386.0712891.0540771,0,.045105-.0449219.0721436-.1425781.0721436-.4882812,0-1.0478516-.0270386-1.0917969-.0270386-.0449219,0-.6044922.0270386-.8701172.0270386-.0976562,0-.1425781-.0180054-.1425781-.0721436,0-.0270386.0175781-.0540771.0712891-.0540771.0800781,0,.1865234-.0180664.2666016-.0360718.1767578-.0360718.2216797-.2344971.2568359-.4959717.0449219-.3787842.0449219-1.0911865.0449219-1.9569092v-3.8145752c-.4355469.0089722-.8798828.0089722-1.3144531.0180054-.5507812.0090332-.7636719.0721436-.90625.2885742-.0976562.1533203-.1240234.2164307-.1503906.279541-.0273438.0721436-.0537109.09021-.0888672.09021-.0263672,0-.0449219-.0270386-.0449219-.0811768,0-.0901489.1777344-.8657227.1953125-.9378662.0185547-.0541382.0537109-.1713257.0888672-.1713257.0625,0,.1513672.0901489.390625.1082153.2578125.0270386.5957031.045105.7021484.045105h3.3300781c.2841797,0,.4882812-.0180664.6308594-.045105.1328075-.0180664.2128906-.045105.2480469-.045105.0449219,0,.0449219.0540771.0449219.1082153,0,.2705688-.0273438.8927612-.0273438.9920044,0,.0811157-.0263672.1171875-.0615234.1171875-.0449219,0-.0625-.0270386-.071294-.1533203,0-.0360107-.0087841-.0631104-.0087841-.0991821-.0263672-.2705078-.2402344-.4779663-1.0927734-.4959717-.3720703-.0090332-.7451172-.0090332-1.1181641-.0180054v3.8145752Z"/>
        </g>
      </g>
      <g>
        <path class="cls-1" d="m29.4184565,33.1449935c-.169322,0-.3388515-.0647408-.4679181-.1940148l-7.8950543-7.8948468c-.125539-.1253315-.1952598-.2958985-.1940148-.4733132.0014525-.1774146.0740784-.3467366.2014849-.4702006l3.1247798-3.0249711c.2595856-.2512855.6729305-.248173.9283661.0076776l7.8450462,7.8450462c.2585481.2583406.2585481.6774956,0,.9358362l-3.0747717,3.0747717c-.1290665.129274-.2985961.1940148-.4679181.1940148Zm-6.951333-8.5491021l6.951333,6.9511255,2.1387281-2.1387281-6.9164726-6.9164726-2.1735885,2.1040751Z"/>
        <path class="cls-1" d="m13.7433042,27.4868159C6.1653137,27.4868159,0,21.3215022,0,13.7435117,0,6.1653137,6.1653137,0,13.7433042,0s13.7433042,6.1653137,13.7433042,13.7435117c0,7.5779905-6.1653137,13.7433042-13.7433042,13.7433042Zm0-26.1629501C6.8950999,1.3238658,1.3238658,6.8953074,1.3238658,13.7435117s5.5712341,12.4194384,12.4194384,12.4194384,12.4194384-5.5712341,12.4194384-12.4194384S20.5915085,1.3238658,13.7433042,1.3238658Z"/>
        <path class="cls-1" d="m24.2234244,14.5075358c-.3656194,0-.6619329-.2963135-.6619329-.6619329,0-5.4869881-4.4637933-9.9507814-9.9507814-9.9507814-.3656194,0-.6619329-.2963135-.6619329-.6619329s.2963135-.6619329.6619329-.6619329c6.2167743,0,11.2746472,5.0578729,11.2746472,11.2746472,0,.3656194-.2963135.6619329-.6619329.6619329Z"/>
      </g>
    </g>
  </g>
</svg>