<?xml version="1.0" encoding="UTF-8"?>
<svg id="_レイヤー_2" data-name="レイヤー 2" xmlns="http://www.w3.org/2000/svg" viewBox="0 0 99.7295762 32.753856">
  <defs>
    <style>
      .cls-1 {
        fill: #fff;
      }
    </style>
  </defs>
  <g id="_レイヤー_1-2" data-name="レイヤー 1">
    <g>
      <g>
        <g>
          <path class="cls-1" d="m52.9949662,4.9487168c.0175781-.0264282.0478516-.0704956.0917969-.1322632.0429688-.0616455.0820312-.1079102.1171875-.138916.0341797-.0308228.0693359-.0463257.1044922-.0463257.0693359,0,.2275391.1080933.4755859.3240967.2470703.2162476.4013672.3859253.4619141.5093384.0263672.0442505.0175781.0882568-.0253906.1323242-.1132812.0971069-.2783203.171936-.4951172.2248535v3.5718994c.0166016,1.1026001.0517578,2.1123657.1035156,3.02948,0,.0529175-.0175781.097168-.0517578.1323242-.0869141.0793457-.2001953.1500854-.3388672.2116699-.1386719.0617676-.2695312.0925903-.390625.0925903-.0957031,0-.1523438-.0661621-.1699219-.1984253l.0136719-.1323242c0,.0089111.0087891-.0307617.0253906-.1190186v-.2381592h-1.25v3.1221313c0,.105835.0302734.171936.0908203.1984253.0605469.0264282.2041016.0396729.4296875.0396729h1.2636719c.6777344,0,1.0732422-.0043335,1.1855469-.0132446.0791016-.008667.1328125-.0241699.1630859-.0462646.0302734-.0219116.0585938-.0682373.0849609-.138916.0693359-.1499023.1738281-.612915.3125-1.3890991.0175781-.1409302.0351562-.2467651.0517578-.3175049.0087891-.0615845.0439453-.0925903.1044922-.0925903s.0917969.0353394.0917969.105835l.0253906,1.7595215c.1308594.0441895.2167969.0925903.2607422.1455078.0429688.0529175.0654297.1277466.0654297.2248535,0,.1409912-.0615234.2514038-.1826172.3307495-.1220703.0794067-.3496094.1366577-.6835938.1719971-.3349609.0351562-.8320312.0529175-1.4921875.0529175h-1.3808594c-.3300781,0-.5800781-.0264893-.7490234-.0794067-.1699219-.0529175-.2851562-.138855-.3457031-.2579346s-.0908203-.293335-.0908203-.522583v-3.2940674h-1.4199219c-.1308594.882019-.3828125,1.6118774-.7558594,2.1894531-.3740234.5777588-.8925781,1.0407715-1.5566406,1.3890381-.6650391.3483276-1.5263672.6238403-2.5859375.8268433h-.0263672c-.0517578,0-.0869141-.0310059-.1044922-.0925903v-.0264893c0-.0529175.0263672-.0882568.078125-.105835.8945312-.2645874,1.6181641-.5776978,2.1689453-.93927.5517578-.3615112.9726562-.8024292,1.2646484-1.322876.2900391-.5203247.4882812-1.159668.5927734-1.9182739h-1.1464844v.5291748c0,.0529175-.0722656.1147461-.2158203.1852417-.1425781.0706787-.296875.105835-.4619141.105835-.0693359,0-.1328125-.0264893-.1894531-.0794067s-.0839844-.114502-.0839844-.1851807c.0341797-.5114136.0625-1.0186768.0839844-1.5213623.0214844-.5027466.0371094-1.1331787.0458984-1.8917847v-1.8388672c0-1.0405884-.0478516-1.8961182-.1435547-2.5664673v-.0264893c0-.0350952.0087891-.057251.0263672-.0661011.0175781-.008728.0429688-.0043335.078125.0131836l.9248047.4233398h5.3417969l.2080078-.3042603Zm-.078125,2.4473877v-1.7462158h-5.5361328v1.7462158h5.5361328Zm-5.5361328,2.1696167h5.5361328v-1.7859497h-5.5361328v1.7859497Zm5.5361328.3968506h-5.5361328v1.812439h5.5361328v-1.812439Z"/>
          <path class="cls-1" d="m66.9881302,8.8381211c.0351562-.0351562.0888672-.0969849.1630859-.1852417.0732422-.0880127.1367188-.1322632.1884766-.1322632.0693359,0,.2109375.1213379.4238281.3637695.2128906.2426758.3496094.4345093.4101562.5755005.0263672.0529175.0126953.097168-.0390625.1322632-.078125.0354004-.234375.0618286-.46875.0794067-.4257812.3528442-1.125.7805176-2.0976562,1.2832031.0605469.0178223.078125.0574951.0517578.1190796-.0517578.1235962-.1816406.1984253-.390625.2249146v.9260254h3.4521484l.2871094-.4100952c.0263672-.0351562.0693359-.0946655.1298828-.1785889.0605469-.0837402.1113281-.1455078.1503906-.1852417.0390625-.0396729.0761719-.0595093.1103516-.0595093.0693359,0,.2519531.1256714.546875.3770142.2958984.2514038.4785156.4431763.5478516.5755005.0087891.0442505.0039062.0882568-.0136719.1322632-.0517578.097168-.1513672.1455688-.2988281.1455688h-4.9121094v2.6854858c0,.2734985-.0302734.4938354-.0908203.661499-.0615234.1674194-.1914062.3063354-.3916016.416687-.1992188.1101685-.4990234.1873169-.8984375.2315063h-.0263672c-.0341797,0-.0693359-.0264282-.1035156-.0793457-.0615234-.2645874-.1699219-.4498291-.3261719-.5556641-.2167969-.1411743-.6171875-.2601929-1.1982422-.3571777-.0703125-.0177612-.1044922-.0529175-.1044922-.105835,0-.0793457.0341797-.1101685.1044922-.0925903,1.0068359.0706787,1.6279297.105835,1.8623047.105835.1220703,0,.2070312-.0198364.2548828-.0595093.046875-.0397339.0712891-.1168213.0712891-.2315063v-2.6193848h-3.1142578c-.5556641.0088501-1.1767578.0661011-1.8623047.171936h-.0390625c-.0351562,0-.0654297-.0219116-.0917969-.0661011l-.234375-.4762573c-.0087891-.008728-.0126953-.0264893-.0126953-.0529175,0-.0440674.0302734-.0661621.0908203-.0661621.4775391.0442505,1.0078125.0750122,1.5898438.0925903h3.6738281c0-.4938354-.0263672-.9436035-.078125-1.3493652,0-.0794067.0341797-.1101685.1044922-.0925903l.6640625.1190186c.6074219-.5113525,1.0947266-.9656982,1.4589844-1.3626099h-3.1660156c-.5556641.0089111-1.1767578.0661621-1.8623047.1719971h-.0263672c-.0439453,0-.078125-.0219116-.1044922-.0661621l-.234375-.4630127-.0126953-.0529175c0-.0440063.0302734-.0661011.0908203-.0661011.46875.0441895.9941406.0750122,1.5761719.0925903h3.9345703l.2607422-.3175049Zm2.2412109-1.8256226c.0341797-.0351562.0888672-.0969849.1630859-.1852417.0732422-.0880127.1367188-.1322632.1884766-.1322632.0693359,0,.2304688.1235962.4824219.3704224.2509766.2470093.4082031.4411011.46875.5820923.0263672.0529175.0175781.0971069-.0263672.1322632-.0693359.0353394-.2128906.0618286-.4296875.0794067-.2001953.2294312-.4560547.4807739-.7685547.7540283-.3125.2734985-.6035156.5027466-.8730469.6879272-.0517578.0442505-.0996094.0442505-.1435547,0-.0429688-.0440063-.0517578-.0880737-.0253906-.1322632.2949219-.5467529.5292969-1.0405884.703125-1.4816895h-8.2597656c.0087891.4233398-.0546875.791687-.1894531,1.1046143-.1347656.3131714-.3017578.5446777-.5009766.694519-.1826172.1412354-.3603516.2116699-.5341797.2116699-.1484375,0-.2607422-.0483398-.3388672-.1455078-.0351562-.0351562-.0566406-.0748291-.0654297-.1190796-.0087891-.0264282-.0126953-.0704346-.0126953-.1322632,0-.2027588.1083984-.3790894.3251953-.5291748.2695312-.1674194.4931641-.4584961.6708984-.8731079.1787109-.4144897.2548828-.8599243.2285156-1.3361816v-.0264282c0-.0529175.0302734-.0794067.0908203-.0794067h.0263672c.0693359,0,.1083984.0264893.1171875.0794067.078125.2734375.1298828.5336914.15625.7805176h5.5888672c.0351562-.0529175.0761719-.1168213.1240234-.1918335.0478516-.0748291.1025391-.1608276.1630859-.2579956.2167969-.3615112.4257812-.7606812.625-1.1972046.2001953-.4365845.3476562-.8311768.4433594-1.184021.0175781-.0704956.0605469-.0925903.1298828-.0661621.4521484.1765137.7646484.3131714.9384766.4100952.1738281.097168.2607422.1719971.2607422.2249146,0,.0353394-.0439453.0661621-.1308594.0925903l-.2470703.0661621c-.234375.3352661-.5214844.6924438-.8603516,1.0715942-.3388672.3792725-.6855469.7232666-1.0419922,1.0318604h2.3056641l.2480469-.3042603Zm-8.2207031-2.262207c.0341797-.0264893.0820312-.0308228.1425781-.0132446.5908203.2470093,1.0253906.5380859,1.3027344.8731079.2783203.3353271.4169922.6482544.4169922.9393311,0,.1676025-.0410156.3021851-.1230469.4034424-.0830078.1015015-.1845703.1521606-.3066406.1521606-.0957031,0-.1865234-.0308228-.2734375-.0925903-.0351562-.0175781-.0605469-.0529175-.078125-.105835-.0605469-.3175049-.1953125-.6635742-.4042969-1.0385132-.2080078-.3747559-.4335938-.703186-.6767578-.9855957-.0527344-.0529175-.0527344-.0969238,0-.1322632Zm2.7744141-.2381592h.0136719c.0429688-.0264282.0908203-.0264282.1425781,0,.5390625.2734985.9316406.5800171,1.1796875.9194336.2470703.3396606.3710938.6594238.3710938.9591675,0,.1851807-.0439453.3373413-.1308594.4563599-.0869141.1190796-.1953125.1785889-.3251953.1785889-.1044922,0-.2080078-.0396729-.3125-.1190186-.0439453-.0351562-.0654297-.0794067-.0654297-.1323242-.0263672-.335083-.1240234-.6988525-.2929688-1.0913696-.1699219-.392334-.3671875-.7342529-.5927734-1.0252686-.0351562-.0616455-.0302734-.1101685.0126953-.1455688Z"/>
          <path class="cls-1" d="m82.5301224,5.1339585c.0439453-.0440674.1044922-.1102295.1826172-.1984863.078125-.0880127.1435547-.1322632.1953125-.1322632.0693359,0,.2216797.130188.4560547.3902588.234375.2602539.3818359.4609375.4433594.6019287.0253906.0529175.0126953.097168-.0390625.1322632-.078125.0354004-.2431641.0618286-.4951172.0794067-.3916016.2734375-.9140625.5754395-1.5703125.906189-.6552734.3307495-1.3046875.628418-1.9472656.8930054.3554688.2294312.6162109.4630127.78125.7011108.1650391.2381592.2480469.4586792.2480469.661499,0,.1586914-.0478516.277771-.1435547.3571777h3.0097656l.2597656-.2910767c.0263672-.0264282.078125-.0814209.1572266-.1653442.078125-.0837402.1474609-.1256714.2080078-.1256714.0693359,0,.2236328.1190796.4628906.3571777.2382812.2380981.3886719.4278564.4492188.5688477.0263672.0529175.0126953.097168-.0390625.1323242-.0869141.0529175-.234375.0839233-.4433594.0925903-.3212891.4057617-.7617188.8621826-1.3222656,1.3692017-.5605469.5072632-1.0917969.9371948-1.5957031,1.289856-.0439453.0353394-.0917969.0353394-.1435547,0-.0517578-.0351562-.0517578-.0793457,0-.1322632.3300781-.3791504.6796875-.8223267,1.0488281-1.3295898.3691406-.507019.6708984-.9634399.9052734-1.3692017h-3.7783203v5.3842773c0,.2559204-.0341797.4696655-.1035156.6416626-.0703125.171936-.2089844.3151855-.4169922.4299316-.2089844.114502-.5126953.1939087-.9121094.2380981h-.0263672c-.0429688,0-.0732422-.0310059-.0908203-.0925903-.0439453-.2294312-.1523438-.4057617-.3261719-.5291748-.2431641-.1500854-.6767578-.269104-1.3027344-.3571777-.0693359-.0177612-.1044922-.057251-.1044922-.1190796,0-.0264282.0087891-.0483398.0263672-.0661011.0175781-.0175781.0439453-.0219116.078125-.0132446,1.1728516.0793457,1.8330078.1190796,1.9804688.1190796.1298828,0,.2216797-.0219116.2734375-.0661621.0527344-.0440674.078125-.1190796.078125-.2249146v-5.3446045h-3.1396484c-.5556641.0089111-1.1767578.0661621-1.8632812.1719971h-.0390625c-.0341797,0-.0644531-.0219116-.0908203-.0661621l-.234375-.4762573c-.0087891-.008667-.0136719-.0264282-.0136719-.0529175,0-.0440063.0302734-.0661621.0917969-.0661621.4775391.0442505,1.0068359.0750732,1.5888672.0926514h4.8730469c-.2177734-.3704224-.5947266-.7849121-1.1337891-1.2435913-.5380859-.4584351-1.1640625-.8598633-1.8759766-1.2038574-.0517578-.0264282-.0742188-.0704346-.0654297-.1322632l.0136719-.0264893c.0087891-.0264282.0234375-.0462646.0449219-.0595093.0224609-.0132446.0507812-.0153198.0849609-.0065918.8251953.1587524,1.5898438.4233398,2.2929688.7937622.4345703-.2733154.8769531-.5709229,1.3291016-.8930054.4511719-.3218384.8378906-.6238403,1.1591797-.906189h-4.7285156c-.5566406.0089111-1.1777344.0661621-1.8632812.1719971h-.0390625c-.0351562,0-.0654297-.0219116-.0917969-.0661621l-.234375-.4630127c-.0087891-.008667-.0126953-.0264893-.0126953-.0529175,0-.0440674.0302734-.0661621.0908203-.0661621.4775391.0442505,1.0078125.0750122,1.5898438.0925903h5.5371094l.2861328-.3306885Z"/>
          <path class="cls-1" d="m89.0643021,11.6757676c.0214844-.0219116.0498047-.0241699.0849609-.0065918l.5996094.2116699c.3125.0529175.46875.1190186.46875.1984253,0,.0442505-.0478516.0925903-.1435547.1455078l-.2216797.105835c-.1650391.5910034-.3623047,1.1555176-.5927734,1.6933594-.2294922.5380249-.484375.9967041-.7617188,1.3758545-.0439453.0617676-.0908203.0706787-.1435547.0264282l-.0263672-.0132446c-.0517578-.0350952-.0644531-.0836792-.0390625-.1455078.0703125-.1674194.1650391-.4452515.2871094-.8334351.1210938-.3880005.2255859-.8377686.3125-1.3493652.0869141-.5114136.1347656-.9525146.1435547-1.322937,0-.0351562.0107422-.0638428.0322266-.0859985Zm3.1728516-1.7792969c-.1396484-.2468262-.3261719-.5556641-.5605469-.9260864-.0351562-.0615845-.0302734-.1101685.0126953-.1455078.0439453-.0264282.0917969-.0264282.1435547,0,.546875.3088379.9492188.6395264,1.2050781.9921875.2558594.3528442.3847656.6746826.3847656.9657593,0,.1587524-.0371094.2889404-.1113281.3902588-.0732422.1015015-.1669922.1520996-.2792969.1520996-.0957031,0-.1914062-.0307617-.2871094-.0925903-.0263672-.0264282-.0478516-.0704956-.0654297-.1322632-.0429688-.2381592-.1474609-.5467529-.3125-.9260864-.3818359.0882568-.7294922.1676636-1.0419922.2381592v2.7252197c.0175781,1.1025391.0517578,2.1123047.1044922,3.02948,0,.0529175-.0175781.0969238-.0527344.1322632-.0693359.0794067-.1669922.1499023-.2929688.2116699-.1259766.0616455-.2666016.0926514-.4238281.0926514-.0693359,0-.1318359-.0287476-.1884766-.0859985-.0566406-.0574951-.0849609-.1170044-.0849609-.1785889.0351562-.5205078.0654297-1.0252686.0917969-1.5147705.0253906-.489502.0429688-1.1311035.0517578-1.9248657v-2.3151245c-.4775391.105835-1.0117188.2116699-1.6025391.3175049-.0517578.1147461-.1259766.1941528-.2216797.2381592l-.0390625.0132446c-.0429688,0-.0732422-.0308228-.0908203-.0926514l-.2089844-.7672729v-.0396729c0-.0529175.03125-.0794067.0917969-.0794067.5820312-.0264282.9902344-.0483398,1.2246094-.0661011.3212891-.4849854.6601562-1.0626831,1.0166016-1.7330322.2080078-.3790894.4013672-.7849121.5791016-1.2171021.1777344-.4320068.3105469-.8201904.3974609-1.1641846.0175781-.0793457.0654297-.0969238.1435547-.0529175.7119141.2999268,1.0683594.5072632,1.0683594.6217651,0,.0353394-.0439453.0661621-.1308594.0926514l-.234375.0793457c-.2949219.5026855-.6621094,1.0583496-1.1005859,1.6668701-.4384766.6085815-.8837891,1.1687012-1.3359375,1.6801147l2.1503906-.1851807Zm-2.6708984-2.9237061c.1738281-.3615112.3271484-.7716064.4619141-1.2302856.1347656-.4584961.2324219-.8774414.2939453-1.2567749.0078125-.0794067.0517578-.105835.1298828-.0794067.7470703.2999878,1.1201172.5027466,1.1201172.6085815,0,.0264282-.0390625.0574341-.1171875.0925903l-.2216797.0794067c-.5644531.9173584-1.0283203,1.5874634-1.3935547,2.0108032.1992188.1676636.3476562.3352661.4433594.5027466.0947266.1676025.1425781.326355.1425781.4761963,0,.1323242-.0322266.2381592-.0976562.3175049-.0644531.0794067-.1494141.1190796-.2539062.1190796-.0605469,0-.1347656-.0219116-.2216797-.0661621-.0175781-.008667-.0478516-.0440063-.0908203-.105835-.0957031-.2645874-.2558594-.5490112-.4824219-.8532715-.2255859-.3042603-.46875-.5754395-.7294922-.8135986-.0517578-.0440063-.0566406-.0880127-.0126953-.1322632.0341797-.0351562.0869141-.0396729.15625-.0132446.3388672.105835.625.2337646.8603516.383667l.0126953-.0397339Zm2.3056641,4.7493286h.0136719c.0605469-.0175781.1083984-.008667.1425781.0264282.4775391.3439941.8251953.7011719,1.0429688,1.0715942.2167969.3704224.3251953.7056885.3251953,1.0054321,0,.1940918-.0371094.3485107-.1103516.4630127-.0742188.1146851-.171875.171936-.2929688.171936-.0957031,0-.1962891-.0396729-.2998047-.1190186-.0263672-.0264893-.0478516-.0661621-.0654297-.1190796-.0351562-.3526611-.1279297-.7429199-.2802734-1.1707764-.1523438-.4276733-.3232422-.8268433-.5146484-1.1972656-.0263672-.0704956-.0126953-.114502.0390625-.1322632Zm6.6181641-4.6964111c.0175781-.0264282.0478516-.0681763.0917969-.1256714.0429688-.057251.0820312-.0991821.1171875-.1256714.0341797-.0264282.0693359-.0396729.1044922-.0396729.0693359,0,.2226562.0992432.4619141.2976685s.3886719.359436.4492188.4828491c.0263672.0442505.0175781.0882568-.0253906.1323242-.1044922.0793457-.2607422.1322632-.4697266.1587524-.1210938,4.7360229-.4550781,7.447998-1.0029297,8.1359253-.3388672.3969116-.8164062.6085815-1.4326172.6350098-.0703125,0-.1044922-.0353394-.1044922-.105835-.0175781-.2559204-.1044922-.4411011-.2607422-.555603-.1650391-.1236572-.6298828-.2645874-1.3935547-.4233398-.0615234-.008667-.0917969-.0440674-.0917969-.105835v-.0396729c0-.0351562.0107422-.0616455.0332031-.0794067.0214844-.0175781.0498047-.0219116.0839844-.0132446,1.0507812.1236572,1.7109375.1852417,1.9804688.1852417.1386719,0,.2431641-.0132446.3125-.0396729.0693359-.0264893.1484375-.0794067.2353516-.1587524.4160156-.4233398.6943359-2.9412231.8330078-7.553894h-3.8037109c-.390625.8115234-.8125,1.4905396-1.2636719,2.0372925-.0439453.0618286-.0917969.0706787-.1435547.0264282l-.0390625-.0264282c-.0517578-.0351562-.0605469-.0837402-.0263672-.1455078.3564453-.6965942.6601562-1.4552612.9121094-2.2754517.1308594-.3968506.2480469-.857605.3515625-1.3824463.1044922-.5245972.1650391-.9723511.1826172-1.3427734,0-.0351562.0107422-.0615845.0322266-.0793457.0224609-.0175781.0507812-.0175781.0849609,0,.4521484.1322632.7646484.2380981.9384766.3175049.1738281.0793457.2607422.1455078.2607422.1984253,0,.0353394-.0390625.0706787-.1181641.105835l-.2207031.0925903c-.2265625.7408447-.4824219,1.4420166-.7685547,2.1034546h3.4912109l.2080078-.2910767Zm-3.8427734,2.5003662c.0429688-.0264893.0908203-.0264893.1435547,0,.6513672.3616943,1.1289062.7540283,1.4326172,1.1773682s.4560547.8158569.4560547,1.1774292c0,.1940918-.0410156.3505859-.1240234.4696045-.0820312.1190796-.1884766.1785889-.3193359.1785889-.1035156,0-.2080078-.0350952-.3125-.105835-.0253906-.0264282-.0478516-.0704346-.0644531-.1322632-.0439453-.4055786-.1806641-.8487549-.4111328-1.3295288-.2294922-.4805908-.4970703-.914917-.8007812-1.3031006-.0439453-.0615845-.0439453-.105835,0-.1322632Z"/>
        </g>
        <g>
          <path class="cls-1" d="m45.7771927,23.6471421c0-1.4067993,0-1.6593018-.0185547-1.947876-.0175781-.3066406-.0878906-.4509277-.3818359-.5140381-.0703125-.0180664-.2216797-.0270386-.3017578-.0270386-.0351562,0-.0703125-.0180664-.0703125-.0541382,0-.0540771.0439453-.0721436.1416016-.0721436.3994141,0,.9589844.0270996,1.0039062.0270996.0976562,0,.7724609-.0270996,1.0478516-.0270996.5595703,0,1.1542969.0541382,1.625.3967896.2216797.1623535.6123047.604187.6123047,1.2264404,0,.6673584-.2753906,1.3346558-1.0742188,2.0831909.7285156.9468384,1.3320312,1.7494507,1.8466797,2.3085938.4804688.5139771.8623047.6131592,1.0839844.649292.1689453.0270386.2929688.0270386.3466797.0270386.0439453,0,.0791016.0270386.0791016.0540771,0,.0541382-.0527344.0721436-.2128906.0721436h-.6308594c-.4970703,0-.71875-.045105-.9501953-.1713257-.3818359-.2073975-.6923828-.649292-1.1982422-1.3256226-.3730469-.4960327-.7910156-1.1002197-.9677734-1.3346558-.0361328-.0360718-.0625-.0541382-.1162109-.0541382l-1.0917969-.0180054c-.0449219,0-.0625.0270386-.0625.0721436v.2164307c0,.8657227,0,1.578125.0449219,1.9569092.0263672.2614746.0800781.4598999.3457031.4959717.125.0180054.3203125.0360718.4003906.0360718.0527344,0,.0703125.0270386.0703125.0540771,0,.045105-.0439453.0721436-.1416016.0721436-.4882812,0-1.0478516-.0270386-1.0927734-.0270386-.0087891,0-.5683594.0270386-.8349609.0270386-.0976562,0-.1416016-.0180054-.1416016-.0721436,0-.0270386.0175781-.0540771.0712891-.0540771.0800781,0,.1865234-.0180664.2666016-.0360718.1767578-.0360718.2216797-.2344971.2568359-.4959717.0449219-.3787842.0449219-1.0911865.0449219-1.9569092v-1.5871582Zm.7099609.7845459c0,.045105.0175781.0811768.0625.1082153.1328125.0811768.5419922.1442871.9326172.1442871.2128906,0,.4619141-.0270386.6660156-.1713257.3105469-.2164307.5410156-.7034302.5410156-1.3887939,0-1.1271973-.5859375-1.8035889-1.5361328-1.8035889-.2666016,0-.5058594.0270996-.5947266.0541382-.0449219.0180054-.0712891.0540771-.0712891.1082153v2.9488525Z"/>
          <path class="cls-1" d="m53.5848099,23.6471421c0-1.4067993,0-1.6593018-.0175781-1.947876-.0185547-.3066406-.0888672-.4509277-.3828125-.5140381-.0615234-.0180664-.1767578-.0180664-.2568359-.0270386-.0625-.0090332-.1152344-.0180664-.1152344-.0541382,0-.0540771.0439453-.0721436.1416016-.0721436.2041016,0,.4443359,0,1.0039062.0270996.0615234,0,1.8291016,0,2.0332031-.0090332.1953125-.0090332.3554688-.0270996.4082031-.0541382.0537109-.0270386.0712891-.0360718.0976562-.0360718.0273438,0,.0361328.0360718.0361328.0811768,0,.0631104-.0537109.1713257-.0712891.4238281-.0087891.1352539-.0175781.3066406-.0351562.5410767-.0087891.09021-.0361328.1533203-.0712891.1533203-.0537109,0-.0712891-.045105-.0712891-.1172485,0-.1171875-.0175781-.2254639-.0439453-.2976074-.0625-.2073975-.2490234-.2975464-.6396484-.3336182-.1513672-.0180664-1.1191406-.0270996-1.2167969-.0270996-.0351562,0-.0527344.0270996-.0527344.09021v2.4889526c0,.0631104.0087891.0901489.0527344.0901489.1152344,0,1.2080078,0,1.4121094-.0180054.2402344-.0180054.3554688-.045105.4443359-.1533203.0439453-.0540771.0703125-.0901489.1064453-.0901489.0263672,0,.0439453.0180054.0439453.0721436,0,.0540771-.0439453.2073975-.0703125.5050049-.0273438.279541-.0273438.4869385-.0361328.6132202-.0087891.0901489-.0263672.1352539-.0615234.1352539-.0537109,0-.0625-.0721436-.0625-.1442871,0-.0811768-.0087891-.1713257-.0361328-.2525024-.0351562-.1352539-.1416016-.2615356-.4609375-.2976074-.2402344-.0270386-1.1191406-.0450439-1.2705078-.0450439-.0439453,0-.0615234.0270386-.0615234.0631104v.7935791c0,.3065796-.0097656,1.3526611,0,1.5420532.0175781.369751.0703125.5681152.2929688.6583252.1503906.0631104.390625.0811157.7363281.0811157.2666016,0,.5595703-.0089722.7998047-.0811157.2841797-.09021.3818359-.2796021.453125-.6673584.0175781-.0991821.0351562-.1352539.0791016-.1352539.0537109,0,.0537109.0721436.0537109.1352539,0,.0721436-.0712891.6853638-.1152344.8747559-.0625.234436-.1337891.234436-.4794922.234436-.6572266,0-.9501953-.0180054-1.296875-.0270386-.3554688-.0089722-.7636719-.0270386-1.1103516-.0270386-.2128906,0-.4257812.0360718-.6572266.0270386-.0976562,0-.1416016-.0180054-.1416016-.0721436,0-.0270386.0439453-.045105.0976562-.0540771.0888672-.0090332.1416016-.0090332.2041016-.0270386.1865234-.045105.3017578-.1713867.3203125-.8477173.0087891-.3516846.0175781-.8115845.0175781-1.6141968v-1.5871582Z"/>
          <path class="cls-1" d="m59.5447708,27.7322251c-.125-.0631104-.1337891-.0991821-.1337891-.3426514,0-.4509277.0361328-.8116455.0449219-.9559326.0087891-.0991821.0263672-.1442871.0703125-.1442871.0537109,0,.0625.0270996.0625.0992432,0,.0811768,0,.2073975.0263672.3336182.1337891.6673584.7197266.9198608,1.3144531.9198608.8525391,0,1.2705078-.6222534,1.2705078-1.1994019,0-.6221924-.2578125-.9829102-1.0214844-1.62323l-.3994141-.3336792c-.9414062-.7845459-1.1542969-1.3436279-1.1542969-1.9568481,0-.9649048.7099609-1.62323,1.8378906-1.62323.3466797,0,.6035156.0360718.8261719.0901489.1679688.0360718.2392578.045105.3105469.045105s.0888672.0180664.0888672.0631104c0,.045105-.0351562.3427124-.0351562.9559326,0,.1442871-.0185547.2073975-.0625.2073975-.0537109,0-.0625-.045105-.0712891-.1172485-.0087891-.1082153-.0625-.3516846-.1152344-.4508667-.0537109-.0992432-.2929688-.4779663-1.1103516-.4779663-.6123047,0-1.0917969.3877563-1.0917969,1.0460815,0,.5140381.2304688.8386841,1.0830078,1.5150146l.2490234.1983643c1.0478516.8386841,1.2958984,1.3978271,1.2958984,2.1192627,0,.369751-.1416016,1.0550537-.7548828,1.4969482-.3818359.2705688-.8613281.3787842-1.3408203.3787842-.4169922,0-.8251953-.0631104-1.1894531-.2435303Z"/>
          <path class="cls-1" d="m66.1355912,23.6471421c0-1.4067993,0-1.6593018-.0175781-1.947876-.0185547-.3066406-.0888672-.4509277-.3828125-.5140381-.0615234-.0180664-.1767578-.0180664-.2568359-.0270386-.0625-.0090332-.1152344-.0180664-.1152344-.0541382,0-.0540771.0439453-.0721436.1416016-.0721436.2041016,0,.4443359,0,1.0039062.0270996.0615234,0,1.8291016,0,2.0332031-.0090332.1953125-.0090332.3554688-.0270996.4082031-.0541382.0537109-.0270386.0712891-.0360718.0976562-.0360718.0273438,0,.0361328.0360718.0361328.0811768,0,.0631104-.0537109.1713257-.0712891.4238281-.0087891.1352539-.0175781.3066406-.0351562.5410767-.0087891.09021-.0361328.1533203-.0712891.1533203-.0537109,0-.0712891-.045105-.0712891-.1172485,0-.1171875-.0175781-.2254639-.0439453-.2976074-.0625-.2073975-.2490234-.2975464-.6396484-.3336182-.1513672-.0180664-1.1191406-.0270996-1.2167969-.0270996-.0351562,0-.0527344.0270996-.0527344.09021v2.4889526c0,.0631104.0087891.0901489.0527344.0901489.1152344,0,1.2080078,0,1.4121094-.0180054.2402344-.0180054.3554688-.045105.4443359-.1533203.0439453-.0540771.0703125-.0901489.1064453-.0901489.0263672,0,.0439453.0180054.0439453.0721436,0,.0540771-.0439453.2073975-.0703125.5050049-.0273438.279541-.0273438.4869385-.0361328.6132202-.0087891.0901489-.0263672.1352539-.0615234.1352539-.0537109,0-.0625-.0721436-.0625-.1442871,0-.0811768-.0087891-.1713257-.0361328-.2525024-.0351562-.1352539-.1416016-.2615356-.4609375-.2976074-.2402344-.0270386-1.1191406-.0450439-1.2705078-.0450439-.0439453,0-.0615234.0270386-.0615234.0631104v.7935791c0,.3065796-.0097656,1.3526611,0,1.5420532.0175781.369751.0703125.5681152.2929688.6583252.1503906.0631104.390625.0811157.7363281.0811157.2666016,0,.5595703-.0089722.7998047-.0811157.2841797-.09021.3818359-.2796021.453125-.6673584.0175781-.0991821.0351562-.1352539.0791016-.1352539.0537109,0,.0537109.0721436.0537109.1352539,0,.0721436-.0712891.6853638-.1152344.8747559-.0625.234436-.1337891.234436-.4794922.234436-.6572266,0-.9501953-.0180054-1.296875-.0270386-.3554688-.0089722-.7636719-.0270386-1.1103516-.0270386-.2128906,0-.4257812.0360718-.6572266.0270386-.0976562,0-.1416016-.0180054-.1416016-.0721436,0-.0270386.0439453-.045105.0976562-.0540771.0888672-.0090332.1416016-.0090332.2041016-.0270386.1865234-.045105.3017578-.1713867.3203125-.8477173.0087891-.3516846.0175781-.8115845.0175781-1.6141968v-1.5871582Z"/>
          <path class="cls-1" d="m72.468599,23.6471421c0-1.4067993,0-1.6593018-.0185547-1.947876-.0175781-.3066406-.0878906-.4509277-.3818359-.5140381-.0703125-.0180664-.2216797-.0270386-.3017578-.0270386-.0351562,0-.0703125-.0180664-.0703125-.0541382,0-.0540771.0439453-.0721436.1416016-.0721436.3994141,0,.9589844.0270996,1.0039062.0270996.0976562,0,.7724609-.0270996,1.0478516-.0270996.5595703,0,1.1542969.0541382,1.625.3967896.2216797.1623535.6123047.604187.6123047,1.2264404,0,.6673584-.2753906,1.3346558-1.0742188,2.0831909.7285156.9468384,1.3320312,1.7494507,1.8466797,2.3085938.4804688.5139771.8623047.6131592,1.0839844.649292.1689453.0270386.2929688.0270386.3466797.0270386.0439453,0,.0791016.0270386.0791016.0540771,0,.0541382-.0527344.0721436-.2128906.0721436h-.6308594c-.4970703,0-.71875-.045105-.9501953-.1713257-.3818359-.2073975-.6923828-.649292-1.1982422-1.3256226-.3730469-.4960327-.7910156-1.1002197-.9677734-1.3346558-.0361328-.0360718-.0625-.0541382-.1162109-.0541382l-1.0917969-.0180054c-.0449219,0-.0625.0270386-.0625.0721436v.2164307c0,.8657227,0,1.578125.0449219,1.9569092.0263672.2614746.0800781.4598999.3457031.4959717.125.0180054.3203125.0360718.4003906.0360718.0527344,0,.0703125.0270386.0703125.0540771,0,.045105-.0439453.0721436-.1416016.0721436-.4882812,0-1.0478516-.0270386-1.0927734-.0270386-.0087891,0-.5683594.0270386-.8349609.0270386-.0976562,0-.1416016-.0180054-.1416016-.0721436,0-.0270386.0175781-.0540771.0712891-.0540771.0800781,0,.1865234-.0180664.2666016-.0360718.1767578-.0360718.2216797-.2344971.2568359-.4959717.0449219-.3787842.0449219-1.0911865.0449219-1.9569092v-1.5871582Zm.7099609.7845459c0,.045105.0175781.0811768.0625.1082153.1328125.0811768.5419922.1442871.9326172.1442871.2128906,0,.4619141-.0270386.6660156-.1713257.3105469-.2164307.5410156-.7034302.5410156-1.3887939,0-1.1271973-.5859375-1.8035889-1.5361328-1.8035889-.2666016,0-.5058594.0270996-.5947266.0541382-.0449219.0180054-.0712891.0540771-.0712891.1082153v2.9488525Z"/>
          <path class="cls-1" d="m79.1307083,21.8885972c-.1953125-.5050049-.3291016-.604187-.6396484-.6943359-.1337891-.0360718-.2841797-.0360718-.3378906-.0360718-.0527344,0-.0703125-.0270386-.0703125-.0631714,0-.0540771.0878906-.0631104.2304688-.0631104.4257812,0,.90625.0270996,1.0126953.0270996.0888672,0,.4707031-.0270996.8076172-.0270996.1601562,0,.2402344.0180664.2402344.0631104,0,.045105-.0273438.0631714-.0888672.0631714-.0976562,0-.2578125.0089722-.3378906.045105-.0976562.0450439-.1152344.1171875-.1152344.1802979,0,.0811768.0800781.324707.1777344.5771484l1.8115234,4.7885742c.5146484-1.2084351,1.7050781-4.3557129,1.9003906-5.0050049.0449219-.1352539.0800781-.2614746.0800781-.3426514,0-.0721436-.0263672-.1623535-.1152344-.2073975-.1064453-.0360718-.2402344-.0360718-.3378906-.0360718-.0527344,0-.0976562-.0090332-.0976562-.0541382,0-.0540771.0537109-.0721436.1953125-.0721436.3554688,0,.7636719.0270996.8701172.0270996.0537109,0,.4355469-.0270996.6933594-.0270996.0976562,0,.1503906.0180664.1503906.0631104,0,.045105-.0351562.0631714-.1064453.0631714-.0625,0-.2578125,0-.4257812.1082153-.1162109.0811768-.2490234.234436-.4882812.8476562-.0986328.2525024-.5419922,1.3346558-.9951172,2.4438477-.5419922,1.3166504-.9414062,2.2905884-1.1455078,2.7324829-.2490234.5410767-.2841797.6853638-.3730469.6853638-.1064453,0-.1513672-.1262817-.3193359-.5591431l-2.1757812-5.5280151Z"/>
          <path class="cls-1" d="m87.586763,23.6471421c0-1.4067993,0-1.6593018-.0175781-1.947876-.0185547-.3066406-.0888672-.4509277-.3828125-.5140381-.0615234-.0180664-.1767578-.0180664-.2568359-.0270386-.0625-.0090332-.1152344-.0180664-.1152344-.0541382,0-.0540771.0439453-.0721436.1416016-.0721436.2041016,0,.4443359,0,1.0039062.0270996.0615234,0,1.8291016,0,2.0332031-.0090332.1953125-.0090332.3554688-.0270996.4082031-.0541382.0537109-.0270386.0712891-.0360718.0976562-.0360718.0273438,0,.0361328.0360718.0361328.0811768,0,.0631104-.0537109.1713257-.0712891.4238281-.0087891.1352539-.0175781.3066406-.0351562.5410767-.0087891.09021-.0361328.1533203-.0712891.1533203-.0537109,0-.0712891-.045105-.0712891-.1172485,0-.1171875-.0175781-.2254639-.0439453-.2976074-.0625-.2073975-.2490234-.2975464-.6396484-.3336182-.1513672-.0180664-1.1191406-.0270996-1.2167969-.0270996-.0351562,0-.0527344.0270996-.0527344.09021v2.4889526c0,.0631104.0087891.0901489.0527344.0901489.1152344,0,1.2080078,0,1.4121094-.0180054.2402344-.0180054.3554688-.045105.4443359-.1533203.0439453-.0540771.0703125-.0901489.1064453-.0901489.0263672,0,.0439453.0180054.0439453.0721436,0,.0540771-.0439453.2073975-.0703125.5050049-.0273438.279541-.0273438.4869385-.0361328.6132202-.0087891.0901489-.0263672.1352539-.0615234.1352539-.0537109,0-.0625-.0721436-.0625-.1442871,0-.0811768-.0087891-.1713257-.0361328-.2525024-.0351562-.1352539-.1416016-.2615356-.4609375-.2976074-.2402344-.0270386-1.1191406-.0450439-1.2705078-.0450439-.0439453,0-.0615234.0270386-.0615234.0631104v.7935791c0,.3065796-.0097656,1.3526611,0,1.5420532.0175781.369751.0703125.5681152.2929688.6583252.1503906.0631104.390625.0811157.7363281.0811157.2666016,0,.5595703-.0089722.7998047-.0811157.2841797-.09021.3818359-.2796021.453125-.6673584.0175781-.0991821.0351562-.1352539.0791016-.1352539.0537109,0,.0537109.0721436.0537109.1352539,0,.0721436-.0712891.6853638-.1152344.8747559-.0625.234436-.1337891.234436-.4794922.234436-.6572266,0-.9501953-.0180054-1.296875-.0270386-.3554688-.0089722-.7636719-.0270386-1.1103516-.0270386-.2128906,0-.4257812.0360718-.6572266.0270386-.0976562,0-.1416016-.0180054-.1416016-.0721436,0-.0270386.0439453-.045105.0976562-.0540771.0888672-.0090332.1416016-.0090332.2041016-.0270386.1865234-.045105.3017578-.1713867.3203125-.8477173.0087891-.3516846.0175781-.8115845.0175781-1.6141968v-1.5871582Z"/>
        </g>
      </g>
      <g>
        <path class="cls-1" d="m21.3488068,32.753856H1.8485852c-1.0193168,0-1.8485852-.8293617-1.8485852-1.8487719V1.8487672C0,.829357.8292684.0000887,1.8485852.0000887h12.9923691c.369549,0,.66909.299541.66909.66909s-.299541.66909-.66909.66909H1.8485852c-.2814323,0-.5104052.2289729-.5104052.5104985v29.0563169c0,.2767651.2337335.5105919.5104052.5105919h19.5002216c.2719112,0,.5104985-.2385873.5104985-.5105919V8.3563397c0-.369549.299541-.66909.66909-.66909s.66909.299541.66909.66909v22.5487444c0,1.0021415-.8466304,1.8487719-1.8486785,1.8487719Z"/>
        <path class="cls-1" d="m22.5283954,9.0254297h-6.5078525c-1.0194102,0-1.8486785-.8292684-1.8486785-1.8486785V.6691787c0-.2706043.1629787-.5146056.4130473-.6181242.250162-.1037986.5378483-.0462986.7291102.1449633l7.6874411,7.687161c.1914486.1913553.2486685.4791349.1450566.7292036-.1035185.2500687-.3475198.4130473-.6181242.4130473Zm-7.0183511-6.7409326v4.892254c0,.2815256.2289729.5104985.5104985.5104985h4.8924407l-5.4029392-5.4027526Z"/>
        <path class="cls-1" d="m28.8139024,30.4017731c-1.3363132,0-2.7746513-1.2320479-2.7746513-3.9369712V4.6113772c0-.369549.299541-.66909.66909-.66909h4.2113093c.369549,0,.66909.299541.66909.66909v21.8534247c0,2.7049233-1.4383382,3.9369712-2.774838,3.9369712Zm-1.4364713-25.1213059v21.1843346c0,1.7061422.7226695,2.5987912,1.4364713,2.5987912.7139885,0,1.436658-.892649,1.436658-2.5987912V5.2804672h-2.8731293Z"/>
        <path class="cls-1" d="m33.6596711,16.8854639h-.0012135c-.369549-.0006534-.66853-.3008478-.6678765-.6703035l.0140949-7.4930055-6.3221913-.0001867c-.369549,0-.66909-.299541-.66909-.66909s.2996343-.66909.66909-.66909h0l6.9924948.0001867c.177727,0,.3480799.0706614.4735343.1963958.1255477.1257344.1959291.296274.1955557.4739076l-.0153084,8.1633089c-.0006534.3691756-.3001011.6678765-.66909.6678765Z"/>
        <path class="cls-1" d="m28.7430543,32.7537626c-.369549,0-.66909-.299541-.66909-.66909v-2.3537631c0-.369549.299541-.66909.66909-.66909s.66909.299541.66909.66909v2.3537631c0,.369549-.299541.66909-.66909.66909Z"/>
        <path class="cls-1" d="m11.5986493,7.6575663h-6.2144723c-.369549,0-.66909-.299541-.66909-.66909s.299541-.66909.66909-.66909h6.2144723c.369549,0,.66909.299541.66909.66909s-.299541.66909-.66909.66909Z"/>
        <path class="cls-1" d="m17.8134016,13.5388004H5.3841771c-.369549,0-.66909-.299541-.66909-.66909s.299541-.66909.66909-.66909h12.4292245c.369549,0,.66909.299541.66909.66909s-.299541.66909-.66909.66909Z"/>
        <path class="cls-1" d="m17.8134016,16.9719939H5.3841771c-.369549,0-.66909-.299541-.66909-.66909s.299541-.66909.66909-.66909h12.4292245c.369549,0,.66909.299541.66909.66909s-.299541.66909-.66909.66909Z"/>
        <path class="cls-1" d="m17.8134016,20.4051873H5.3841771c-.369549,0-.66909-.299541-.66909-.66909s.299541-.66909.66909-.66909h12.4292245c.369549,0,.66909.299541.66909.66909s-.299541.66909-.66909.66909Z"/>
        <path class="cls-1" d="m11.5986493,23.8383808h-6.2144723c-.369549,0-.66909-.299541-.66909-.66909s.299541-.66909.66909-.66909h6.2144723c.369549,0,.66909.299541.66909.66909s-.299541.66909-.66909.66909Z"/>
      </g>
    </g>
  </g>
</svg>