<?xml version="1.0" encoding="UTF-8"?>
<svg id="_レイヤー_2" data-name="レイヤー 2" xmlns="http://www.w3.org/2000/svg" viewBox="0 0 307.1606445 54.6097791">
  <defs>
    <style>
      .cls-1 {
        fill: #fff;
      }

      .cls-2 {
        fill: none;
        stroke: #fff;
        stroke-miterlimit: 10;
        stroke-width: .5px;
      }

      .cls-3 {
        fill: #606060;
      }
    </style>
  </defs>
  <g id="_レイヤー_1-2" data-name="レイヤー 1">
    <rect class="cls-3" width="307.1606445" height="54.6097791"/>
    <g>
      <g>
        <path class="cls-1" d="m76.6382922,24.8140305c.0390625-.0400391.1025391-.1191406.1894531-.2402344.0869141-.1191406.1699219-.1796875.25-.1796875.1064453,0,.3232422.1503906.6503906.4501953.3261719.2998047.5361328.5439453.6298828.7294922.0263672.0537109.0068359.1132812-.0595703.1806641-.1074219.0927734-.3203125.1591797-.640625.2001953,0,2-.046875,3.4130859-.1396484,4.2402344-.09375.8261719-.2734375,1.3730469-.5400391,1.6386719-.2675781.2939453-.6669922.4609375-1.2001953.5-.1064453,0-.1601562-.0527344-.1601562-.1591797-.0263672-.3066406-.0996094-.5332031-.2197266-.6806641-.09375-.1191406-.3134766-.2265625-.6601562-.3193359-.09375-.0126953-.1396484-.0673828-.1396484-.1601562v-.0400391c0-.1064453.0527344-.1601562.1591797-.1601562.3466797.0400391.6806641.0605469,1,.0605469.2265625,0,.3808594-.0410156.4609375-.1201172.1191406-.1474609.203125-.5800781.25-1.2998047.0458984-.7207031.0761719-1.9267578.0898438-3.6210938l-2.2802734.8613281v2.1591797c.0400391,1.7871094.0869141,3.1474609.1396484,4.0800781,0,.0537109-.0195312.1132812-.0595703.1806641-.09375.1191406-.2333984.2265625-.4199219.3193359-.1865234.09375-.3740234.1396484-.5605469.1396484-.1064453,0-.2001953-.0390625-.2792969-.1191406-.0800781-.0800781-.1201172-.1738281-.1201172-.2802734.0927734-1.1865234.1523438-2.4873047.1796875-3.9003906v-2.1591797l-2.0800781.7792969v6.5400391c0,.2275391.0703125.3837891.2099609.4697266.1396484.0878906.4365234.1308594.8896484.1308594h2.4208984c1.2265625,0,1.9794922-.0205078,2.2597656-.0605469.1328125-.0136719.2294922-.0292969.2900391-.0498047.0595703-.0205078.1162109-.0634766.1699219-.1298828.1601562-.2001953.3330078-.7402344.5195312-1.6201172.0136719-.0927734.0732422-.1396484.1806641-.1396484.0800781,0,.1201172.0527344.1201172.1601562l.0390625,1.6191406c.2265625.0664062.3837891.140625.4707031.2207031.0859375.0800781.1298828.1855469.1298828.3193359,0,.2138672-.1103516.3769531-.3300781.4902344s-.6269531.1923828-1.2197266.2392578c-.59375.046875-1.4833984.0703125-2.6699219.0703125h-2.5c-.5605469,0-.9873047-.0429688-1.2802734-.1298828-.2939453-.0869141-.5-.2333984-.6201172-.4404297-.1201172-.2060547-.1796875-.5029297-.1796875-.8886719v-6.3808594l-1.8007812.6796875c-.0664062.0273438-.1328125.0078125-.1992188-.0595703l-.2402344-.2998047c-.09375,2.0527344-.2431641,3.6503906-.4501953,4.7900391s-.4833984,1.8964844-.8300781,2.2705078c-.2001953.2265625-.4501953.4023438-.75.5292969s-.6230469.1972656-.9697266.2099609c-.1074219,0-.1601562-.0537109-.1601562-.1601562-.0263672-.3330078-.1269531-.5791016-.2998047-.7392578-.1738281-.1738281-.6064453-.3271484-1.2998047-.4609375-.1074219-.0263672-.1601562-.0859375-.1601562-.1796875v-.0400391c0-.0527344.0166016-.0927734.0498047-.1201172.0332031-.0263672.0771484-.0332031.1298828-.0195312,1.0273438.09375,1.6796875.1396484,1.9599609.1396484.1728516,0,.3066406-.0126953.4003906-.0400391.0927734-.0263672.1865234-.0859375.2802734-.1796875.5195312-.546875.8525391-3.3134766,1-8.3007812h-2.1201172c-.1337891,2.1347656-.4472656,4.0273438-.9404297,5.6806641s-1.3134766,3.1201172-2.4599609,4.3994141c-.0800781.0800781-.1601562.0800781-.2402344,0l-.0996094-.0996094c-.0673828-.0664062-.0732422-.1396484-.0205078-.2197266.7734375-1.1728516,1.34375-2.4794922,1.7109375-3.9199219.3662109-1.4404297.5898438-2.8466797.6699219-4.2197266s.1259766-3.1132812.1396484-5.2207031h-.7402344c-.3466797.0136719-.7265625.0869141-1.1396484.2207031-.09375.0390625-.1601562.0136719-.2001953-.0800781l-.3398438-.6796875c-.0136719-.0136719-.0205078-.0410156-.0205078-.0800781,0-.0673828.046875-.1005859.140625-.1005859.6396484.0673828,1.3525391.1132812,2.1396484.1396484h1.1005859c0-1.3457031-.0742188-2.5664062-.2207031-3.6601562,0-.1328125.0664062-.1796875.2001953-.1396484.6533203.2001953,1.1064453.3564453,1.3603516.4697266.2529297.1132812.3798828.2167969.3798828.3105469,0,.0400391-.0537109.0996094-.1601562.1796875l-.2998047.2001953v2.6396484h1.2197266l.4003906-.5996094c.0400391-.0664062.1025391-.15625.1894531-.2695312s.1572266-.2011719.2099609-.2607422c.0537109-.0595703.1064453-.0898438.1601562-.0898438.1064453,0,.3701172.1835938.7900391.5498047.4199219.3671875.6767578.6503906.7705078.8496094l.0195312.0800781c0,.1074219-.046875.1875-.1396484.2402344-.09375.0537109-.2138672.0800781-.3603516.0800781h-4.0996094c-.0273438,1.3603516-.0605469,2.3730469-.1005859,3.0400391h1.9199219l.2998047-.3994141c.0410156-.0537109.1074219-.1367188.2001953-.25.09375-.1132812.1806641-.1699219.2607422-.1699219.1191406,0,.3457031.1396484.6796875.4199219.3330078.2792969.546875.5136719.6396484.6992188.0400391.0537109.0263672.1132812-.0400391.1806641-.1201172.1201172-.3466797.2001953-.6796875.2392578-.0273438.8945312-.0537109,1.5605469-.0800781,2l2.2402344-.8398438v-1.7197266c0-.6259766-.0273438-1.1601562-.0800781-1.6005859,0-.1328125.0664062-.171875.2001953-.1191406.9726562.3330078,1.4599609.5869141,1.4599609.7597656,0,.0664062-.0537109.1328125-.1601562.2001953l-.3203125.2001953v1.859375l2.0800781-.7792969v-1.8007812c0-.6523438-.0273438-1.2128906-.0800781-1.6796875,0-.1328125.0664062-.1796875.2001953-.140625.5595703.1875.953125.3378906,1.1796875.4511719s.3408203.2167969.3408203.3095703c0,.0537109-.0605469.1269531-.1806641.2197266l-.3398438.2207031v2l2-.7607422.0800781-.0400391.2802734-.4199219Zm-.2001953-3.7402344c.0400391-.0527344.0996094-.1367188.1796875-.25s.1503906-.1992188.2099609-.2597656c.0605469-.0595703.1171875-.0898438.1699219-.0898438.1064453,0,.3769531.1835938.8105469.5498047.4326172.3671875.6962891.6435547.7900391.8300781.0126953.0673828.0126953.1337891,0,.2001953-.0800781.1464844-.2333984.2197266-.4599609.2197266h-7.3808594c-.7734375,1.2539062-1.6269531,2.2539062-2.5595703,3-.0800781.0673828-.1601562.0595703-.2402344-.0195312l-.0195312-.0205078c-.0673828-.0664062-.0732422-.1396484-.0205078-.2197266.5332031-.6669922,1.0732422-1.5537109,1.6201172-2.6601562.2666016-.5732422.5107422-1.25.7304688-2.0302734.2197266-.7792969.3564453-1.4560547.4091797-2.0292969.0273438-.1201172.09375-.1601562.2001953-.1201172.6806641.2265625,1.1572266.4033203,1.4306641.5302734.2724609.1269531.4101562.2294922.4101562.3095703,0,.0400391-.0605469.0869141-.1806641.1396484l-.3603516.140625c-.2666016.7460938-.6259766,1.5390625-1.0791016,2.3798828h4.9394531l.4003906-.6005859Z"/>
        <path class="cls-1" d="m94.9380969,20.5737962c.0527344-.0664062.1230469-.1621094.2099609-.2890625.0859375-.1269531.1601562-.2207031.2197266-.2802734s.1162109-.0908203.1699219-.0908203c.1201172,0,.4169922.1972656.8896484.5908203.4736328.3935547.7636719.6904297.8710938.8896484l.0195312.0800781c0,.1074219-.0498047.1894531-.1503906.25-.0996094.0605469-.2226562.0898438-.3691406.0898438h-6.4208984v12.5h5.3798828l.4609375-.6396484c.0527344-.0673828.1230469-.1630859.2089844-.2900391.0869141-.1269531.1601562-.2207031.2207031-.2802734.0595703-.0595703.1162109-.0898438.1699219-.0898438.1201172,0,.4160156.1962891.8896484.5898438s.7636719.6904297.8701172.8896484c.0136719.0673828.0068359.1337891-.0195312.2011719-.0800781.1464844-.2333984.21875-.4599609.21875h-13.7802734c-.8535156.0136719-1.8066406.1005859-2.8603516.2607422h-.0595703c-.0537109,0-.0996094-.0341797-.140625-.1005859l-.359375-.7197266c-.0136719-.0126953-.0205078-.0400391-.0205078-.0800781,0-.0664062.046875-.0996094.140625-.0996094.7333984.0673828,1.5458984.1132812,2.4394531.1396484h5.5800781v-12.5h-3.3994141c-.8535156.0136719-1.8076172.0996094-2.8603516.2597656h-.0595703c-.0537109,0-.1005859-.0332031-.140625-.0996094l-.359375-.7197266c-.0136719-.0126953-.0205078-.0400391-.0205078-.0800781,0-.0673828.046875-.1005859.1396484-.1005859.7333984.0673828,1.546875.1132812,2.4404297.140625h9.7001953l.4599609-.640625Z"/>
        <path class="cls-1" d="m114.6978625,27.0542649c.0400391-.0527344.0898438-.1201172.1503906-.2001953.0595703-.0800781.1123047-.1396484.1591797-.1796875s.0966797-.0595703.1503906-.0595703c.1064453,0,.3466797.1523438.7197266.4589844.3740234.3066406.6064453.5537109.7001953.7402344.0400391.0664062.0263672.1337891-.0400391.2001953-.1728516.1601562-.4267578.2666016-.7597656.3193359v1.6005859h.4794922l.3808594-.6005859c.0527344-.0664062.1162109-.15625.1894531-.2695312s.1367188-.1962891.1904297-.25c.0527344-.0527344.1064453-.0800781.1591797-.0800781.1210938,0,.3769531.1796875.7705078.5400391s.6367188.6396484.7294922.8408203c.0136719.0664062.0068359.1328125-.0195312.1992188-.0800781.1464844-.2333984.2207031-.4599609.2207031h-2.4199219v1.0390625l.0400391.8398438c0,.2138672.0126953.546875.0400391,1,.0126953.0546875,0,.1142578-.0400391.1806641-.1074219.1201172-.2666016.2294922-.4804688.3300781-.2128906.0996094-.40625.1494141-.5800781.1494141-.1191406,0-.2060547-.0996094-.2597656-.2998047,0-.0263672.0136719-.0927734.0400391-.2001953,0-.0126953.0136719-.0859375.0400391-.2197266v-.3798828h-4.2402344v1.6796875c0,.3867188-.046875.703125-.1396484.9501953-.09375.2470703-.2900391.453125-.5898438.6201172-.2998047.1660156-.7431641.2832031-1.3300781.3496094h-.0400391c-.0664062,0-.1132812-.046875-.1396484-.1396484-.09375-.3603516-.2607422-.6064453-.5-.7392578-.3339844-.2275391-.9208984-.3945312-1.7607422-.5-.1064453-.0273438-.1601562-.0878906-.1601562-.1806641,0-.1201172.0537109-.1669922.1601562-.1396484l.5.0390625c1.1875.09375,1.9199219.140625,2.2001953.140625.2001953,0,.3369141-.0371094.4101562-.109375.0732422-.0742188.1103516-.1972656.1103516-.3710938v-1.5996094h-2.6005859c-.8535156.0136719-1.8066406.0996094-2.859375.2597656h-.0605469c-.0537109,0-.0996094-.0332031-.1396484-.0996094l-.3603516-.6796875c-.0126953-.0136719-.0195312-.0410156-.0195312-.0800781,0-.0664062.0527344-.1005859.1591797-.1005859.7207031.0673828,1.5273438.1142578,2.4208984.1396484h3.4599609v-1.8789062h-4.7402344c-.8535156.0126953-1.8066406.0996094-2.8603516.2597656h-.0595703c-.0537109,0-.0996094-.0332031-.140625-.0996094l-.3398438-.7207031c-.0136719-.0136719-.0195312-.0400391-.0195312-.0800781,0-.0664062.046875-.0996094.1396484-.0996094.7333984.0664062,1.546875.1132812,2.4404297.1396484h5.5800781v-1.8398438h-2.4804688c-.8535156.0126953-1.8066406.1005859-2.859375.2597656h-.0605469c-.0537109,0-.0996094-.0332031-.1396484-.0996094l-.3603516-.7197266c-.0136719-.0136719-.0195312-.0410156-.0195312-.0800781,0-.0664062.0458984-.1005859.1396484-.1005859.7333984.0673828,1.546875.1142578,2.4404297.1396484h3.3398438v-1.8398438h-4.1601562v.640625c0,.0664062-.1171875.1503906-.3496094.25-.234375.0996094-.4638672.1503906-.6904297.1503906-.0800781,0-.1474609-.0410156-.2001953-.1210938-.0537109-.0800781-.0800781-.1728516-.0800781-.2792969.0263672-.1601562.0605469-.5605469.0996094-1.2001953v-.8203125c0-.8662109-.0390625-1.6259766-.1191406-2.2802734v-.0390625c0-.0537109.0166016-.0898438.0498047-.1103516s.0761719-.0166016.1298828.0097656l1.2998047.6396484h4.0205078v-1.5800781h-4.7001953c-.8535156.0136719-1.8066406.1005859-2.8603516.2607422h-.0595703c-.0537109,0-.1005859-.0332031-.1396484-.1005859l-.3603516-.7197266c-.0136719-.0126953-.0205078-.0400391-.0205078-.0800781,0-.0664062.046875-.0996094.140625-.0996094.7324219.0673828,1.5458984.1132812,2.4394531.1396484h5.5605469c0-.6660156-.0332031-1.3203125-.1005859-1.9599609,0-.1328125.0605469-.1796875.1806641-.1396484.6259766.1865234,1.0664062.34375,1.3193359.4697266.2529297.1269531.3798828.2373047.3798828.3300781,0,.0673828-.0527344.1337891-.1601562.2001953l-.3398438.2197266v.8798828h5.4003906l.4394531-.5996094c.0537109-.0664062.1240234-.15625.2109375-.2695312.0859375-.1132812.1601562-.2011719.2197266-.2607422s.1162109-.0898438.1699219-.0898438c.1064453,0,.3867188.1865234.8398438.5595703.453125.3740234.7333984.6542969.8398438.8398438.0136719.0673828.0136719.1337891,0,.2011719-.0800781.1464844-.2333984.21875-.4599609.21875h-7.6601562v1.5800781h3.9609375l.3193359-.3789062c.0400391-.0410156.1064453-.1171875.2001953-.2304688.0927734-.1132812.1796875-.1699219.2597656-.1699219.1201172,0,.3701172.1396484.75.4199219.3798828.2792969.6171875.5068359.7099609.6796875.0400391.0537109.0263672.1132812-.0400391.1796875-.1728516.1601562-.4199219.2675781-.7402344.3203125v.8808594l.0410156.6992188c0,.1875.0126953.4667969.0390625.8398438,0,.0800781-.0195312.140625-.0595703.1796875-.1064453.1074219-.2666016.2070312-.4794922.3007812-.2138672.09375-.4072266.1396484-.5800781.1396484h-.0605469c-.1064453,0-.1601562-.0527344-.1601562-.1591797v-.5410156h-4.1601562v1.8398438h4.0400391l.3203125-.4394531Zm-9.7998047-3.9804688v2h4.1601562v-2h-4.1601562Zm9.5996094,2v-2h-4.1601562v2h4.1601562Zm.0800781,3.0205078h-4.2402344v1.8398438h4.2402344v-1.8398438Zm-4.2402344,4.3193359h4.2402344v-1.8789062h-4.2402344v1.8789062Z"/>
        <path class="cls-1" d="m122.7984484,25.4341477c-.546875,1.0673828-1.1074219,1.9931641-1.6806641,2.7802734-.0664062.09375-.1396484.1064453-.2197266.0400391l-.0400391-.0205078c-.0800781-.0527344-.1005859-.1269531-.0595703-.2197266.7861328-1.5595703,1.5-3.4267578,2.1396484-5.6005859.1865234-.6259766.3564453-1.3320312.5097656-2.1191406s.2431641-1.453125.2705078-2c0-.0527344.015625-.09375.0498047-.1201172.0332031-.0263672.0761719-.0263672.1298828,0,.6796875.2001953,1.1503906.3603516,1.4101562.4794922.2597656.1201172.3896484.2207031.3896484.3007812,0,.0527344-.0595703.1064453-.1796875.1601562l-.3408203.1396484c-.4394531,1.5332031-.9326172,2.953125-1.4794922,4.2597656.5068359.3740234.7597656.6396484.7597656.7998047,0,.0800781-.0595703.140625-.1796875.1796875l-.2802734.1210938v6.71875c.0273438,1.6679688.0800781,3.1943359.1601562,4.5800781,0,.0800781-.0273438.1464844-.0800781.2011719-.1201172.1191406-.2792969.2226562-.4794922.3095703s-.3935547.1298828-.5800781.1298828c-.1074219,0-.2070312-.0400391-.2998047-.1201172-.09375-.0800781-.140625-.1728516-.140625-.2802734.0527344-.7871094.0996094-1.5498047.140625-2.2890625.0390625-.7402344.0664062-1.7109375.0800781-2.9101562v-5.5205078Zm8.1992188-6.1601562c.0400391-.0527344.1005859-.1357422.1796875-.25.0800781-.1123047.1503906-.2001953.2109375-.2597656.0595703-.0595703.1162109-.0898438.1699219-.0898438.1064453,0,.3691406.1796875.7900391.5400391.4199219.359375.6767578.6328125.7695312.8203125.0126953.0263672.0205078.0595703.0205078.0996094,0,.09375-.0507812.1699219-.1503906.2304688-.0996094.0595703-.2167969.0898438-.3496094.0898438h-3.7207031c-.2128906,1.2265625-.4394531,2.2402344-.6796875,3.0390625h2.2197266l.2998047-.3994141c.0410156-.0537109.1074219-.1367188.2001953-.25.09375-.1132812.1806641-.1699219.2607422-.1699219.1064453,0,.3222656.1533203.6494141.4599609s.5302734.5527344.6103516.7402344c.0400391.0664062.0263672.1328125-.0400391.1992188-.1074219.0800781-.3203125.140625-.6396484.1806641-.3876953,2.7197266-1.0576172,5.0927734-2.0107422,7.1201172-.953125,2.0263672-2.4501953,3.6933594-4.4892578,5-.0800781.0664062-.1542969.0527344-.2207031-.0410156l-.0195312-.0390625c-.0673828-.09375-.0605469-.1669922.0195312-.2207031,1.6533203-1.3320312,2.9033203-3.0224609,3.75-5.0693359s1.4169922-4.3564453,1.7099609-6.9306641h-2.4794922c-.2402344.8007812-.5673828,1.6337891-.9804688,2.5.8261719.3066406,1.4365234.6679688,1.8300781,1.0800781.3935547.4140625.5898438.8007812.5898438,1.1601562,0,.2001953-.0527344.3632812-.1601562.4902344-.1064453.1269531-.2460938.1894531-.4199219.1894531-.1064453,0-.2333984-.0390625-.3798828-.1191406-.0537109-.0273438-.0996094-.0800781-.1396484-.1601562-.1201172-.3339844-.3232422-.7001953-.6103516-1.0996094-.2861328-.4003906-.6035156-.78125-.9501953-1.140625-.5859375,1.09375-1.2460938,2.0537109-1.9794922,2.8798828-.0800781.0800781-.1601562.0800781-.2402344,0l-.0400391-.0400391c-.0664062-.0664062-.0732422-.1396484-.0195312-.2197266,1.5595703-2.3330078,2.5722656-5.3798828,3.0400391-9.1396484h-.6601562c-.3076172.0136719-.6201172.0859375-.9404297.2197266-.09375.0400391-.1601562.0126953-.1992188-.0800781l-.3408203-.7001953c-.0126953-.0136719-.0195312-.0400391-.0195312-.0800781,0-.0664062.0458984-.0996094.1396484-.0996094.7333984.0664062,1.546875.1132812,2.4404297.1396484h2.5595703l.4199219-.5800781Zm2,5.5c0-1.453125-.0732422-2.7529297-.2197266-3.8994141v-.0410156c0-.1054688.0595703-.1386719.1796875-.0996094,1.1337891.3203125,1.7001953.5742188,1.7001953.7597656,0,.0673828-.0537109.1337891-.1601562.2011719l-.3203125.1992188v5.2207031c.0273438,1.6660156.0800781,3.1933594.1601562,4.5800781,0,.0664062-.0195312.1328125-.0595703.1992188-.1201172.1337891-.2763672.2441406-.4697266.3300781-.1933594.0869141-.3837891.1298828-.5703125.1298828-.1201172,0-.2167969-.0400391-.2900391-.1201172s-.1103516-.1728516-.1103516-.2792969c.0800781-1.1337891.1337891-2.2802734.1601562-3.4404297v-3.7402344Zm3.4599609-2.3398438c0-1.453125-.0732422-2.7529297-.2197266-3.8994141v-.0410156c0-.1054688.0605469-.1396484.1796875-.0996094.6669922.2001953,1.1269531.3574219,1.3808594.4707031.2529297.1132812.3789062.2167969.3789062.3095703,0,.0673828-.0595703.1337891-.1796875.2001953l-.3398438.2197266v15.0595703c0,.3867188-.0429688.703125-.1298828.9501953s-.2636719.453125-.5302734.6201172c-.2666016.1660156-.6669922.2832031-1.1992188.3496094h-.0410156c-.0664062,0-.1132812-.046875-.1396484-.1396484-.0927734-.3603516-.2333984-.6201172-.4199219-.7802734-.2802734-.1992188-.8066406-.359375-1.5800781-.4794922-.1064453-.0263672-.1601562-.0800781-.1601562-.1601562v-.0205078c0-.1191406.0537109-.1660156.1601562-.1396484,1.1728516.09375,1.9599609.1396484,2.3603516.1396484.1728516,0,.296875-.0332031.3701172-.0996094s.109375-.1865234.109375-.359375v-12.1005859Z"/>
        <path class="cls-1" d="m146.4781359,25.4136399c0,.0546875-.0205078.140625-.0605469.2607422-.4931641,1.3994141-.9199219,2.7197266-1.2792969,3.9599609-.3603516,1.2402344-.5400391,2.1132812-.5400391,2.6201172,0,.2001953.0595703.6337891.1796875,1.2998047.1064453.5332031.1601562.8730469.1601562,1.0195312,0,.1875-.046875.34375-.1396484.4707031-.09375.1269531-.2207031.1894531-.3808594.1894531-.2529297,0-.453125-.0800781-.5996094-.2402344s-.3203125-.4121094-.5195312-.7597656c-.4941406-.7998047-.7402344-1.9667969-.7402344-3.5,0-.7460938.0693359-1.6396484.2099609-2.6796875.1396484-1.0400391.3164062-2.0800781.5302734-3.1201172.0527344-.2392578.0859375-.4130859.0996094-.5205078.0927734-.4121094.1728516-.8164062.2402344-1.2089844.0664062-.3935547.0996094-.7304688.0996094-1.0097656,0-.3339844-.0234375-.5800781-.0703125-.7402344s-.15625-.3935547-.3300781-.7001953c-.0390625-.0800781-.0595703-.1396484-.0595703-.1806641,0-.0527344.0166016-.0996094.0498047-.1396484s.0761719-.0595703.1298828-.0595703c.0800781,0,.1933594.0595703.3408203.1796875.3193359.3066406.609375.6699219.8691406,1.0898438s.390625.8242188.390625,1.2099609c0,.2666016-.0439453.546875-.1308594.8408203-.0859375.2929688-.2226562.6855469-.4091797,1.1796875l-.2802734.7597656c-.2402344.6796875-.4199219,1.3769531-.5400391,2.0898438s-.1796875,1.3769531-.1796875,1.9902344c0,.7333984.0859375,1.0996094.2597656,1.0996094.1064453,0,.2363281-.1630859.3896484-.4902344.1533203-.3261719.3769531-.8554688.6699219-1.5898438.4404297-1.1064453.9003906-2.1796875,1.3808594-3.2197266.0527344-.1337891.1191406-.2001953.1992188-.2001953.0400391,0,.0605469.0332031.0605469.0996094Zm10.7197266,8.7207031c0,.1464844-.046875.2792969-.1396484.4003906-.09375.1191406-.2138672.1796875-.3603516.1796875-.1728516,0-.3535156-.0634766-.5400391-.1904297-.1865234-.1259766-.3730469-.2724609-.5595703-.4404297-.1875-.1660156-.3271484-.2890625-.4208984-.3691406-.2666016-.2265625-.5390625-.4199219-.8193359-.5800781-.1865234-.1064453-.3603516-.2001953-.5205078-.2802734-.0390625.7607422-.2929688,1.3535156-.7597656,1.7802734-.4667969.4257812-1.1796875.6396484-2.1396484.6396484-.7871094,0-1.4736328-.1767578-2.0605469-.5302734-.5869141-.3525391-.8798828-.8632812-.8798828-1.5292969,0-.7734375.40625-1.3007812,1.2207031-1.5800781.8125-.2802734,1.5859375-.4199219,2.3193359-.4199219.4003906,0,.7607422.0273438,1.0800781.0800781,0-.3466797-.0068359-.7001953-.0195312-1.0605469-.0136719-.359375-.0273438-.7060547-.0400391-1.0390625l-.0800781-3.2402344c-.1201172.0263672-.3007812.0527344-.5400391.0800781-.09375.0126953-.2402344.0195312-.4404297.0195312-.5869141,0-1.0830078-.109375-1.4902344-.3300781-.40625-.2197266-.7832031-.5898438-1.1298828-1.109375-.0664062-.09375-.0996094-.1806641-.0996094-.2607422,0-.0927734.0400391-.1396484.1201172-.1396484.0400391,0,.1035156.0292969.1894531.0898438.0869141.0605469.1435547.1035156.1699219.1298828.1875.1474609.3964844.2734375.6308594.3798828.2324219.1074219.5361328.1601562.9101562.1601562.3457031,0,.8994141-.0800781,1.6591797-.2402344-.0126953-.453125-.0195312-1.0859375-.0195312-1.9003906v-1.0195312c0-.5722656-.2871094-.9931641-.8603516-1.2597656-.1201172-.0664062-.1796875-.1269531-.1796875-.1796875,0-.0800781.0761719-.1533203.2294922-.2207031.1533203-.0664062.4101562-.0996094.7705078-.0996094.3867188,0,.7363281.1171875,1.0498047.3496094.3134766.234375.4697266.4707031.4697266.7109375,0,.0263672-.0400391.1591797-.1191406.3994141-.09375.1865234-.1601562.3662109-.2001953.5400391-.0537109.2539062-.0800781.3935547-.0800781.4199219.6123047.4667969,1.1123047.7470703,1.5.8398438.1201172.0273438.2832031.0605469.4892578.0996094.2070312.0410156.3505859.0878906.4306641.140625s.1328125.1328125.1601562.2402344c.0263672.0800781.0400391.1660156.0400391.2597656,0,.2929688-.2607422.5732422-.7802734.8398438-.8398438.4003906-1.5205078.6796875-2.0400391.8398438v.1201172c0,1.2001953.1132812,2.6933594.3398438,4.4794922.0263672.2011719.0732422.6142578.140625,1.2402344,1.2128906.3603516,2.1591797.8808594,2.8398438,1.5605469.3730469.3730469.5595703.7070312.5595703,1Zm-5.1601562-.1601562c.3603516-.2529297.5605469-.7871094.6005859-1.5996094-.6542969-.2001953-1.2734375-.3007812-1.8603516-.3007812-.5332031,0-1.0234375.0771484-1.4697266.2304688-.4472656.1533203-.6699219.4238281-.6699219.8105469,0,.4257812.2294922.7392578.6894531.9394531s.9238281.2998047,1.390625.2998047c.5195312,0,.9589844-.1259766,1.3193359-.3798828Zm1.3203125-9.4804688c.8134766-.265625,1.2197266-.4921875,1.2197266-.6796875,0-.0664062-.0898438-.1757812-.2695312-.3300781-.1806641-.1523438-.34375-.2832031-.4902344-.3896484s-.2597656-.1933594-.3398438-.2607422l-.1201172,1.6601562Z"/>
        <path class="cls-1" d="m167.4683703,34.6441087c-.7939453-.1660156-1.4306641-.4365234-1.9101562-.8105469-.6132812-.4794922-.9199219-1.1386719-.9199219-1.9794922,0-.3730469.0390625-.6796875.1191406-.9199219.0800781-.2529297.1601562-.3798828.2402344-.3798828.1064453,0,.1601562.1269531.1601562.3798828v.2998047c0,.8271484.4863281,1.4277344,1.4599609,1.8007812.6396484.2392578,1.4267578.359375,2.3603516.359375.7597656,0,1.8203125-.1132812,3.1796875-.3398438.7871094-.1201172,1.2929688-.1796875,1.5195312-.1796875.3476562,0,.6103516.0664062.7910156.1992188.1796875.1337891.2695312.3144531.2695312.5410156,0,.3730469-.3339844.6591797-1,.859375-.4003906.1201172-.9296875.2207031-1.5898438.2998047-.6601562.0800781-1.3496094.1201172-2.0703125.1201172-.9472656,0-1.8164062-.0830078-2.609375-.25Zm.4697266-9.3701172c0-.0664062.0400391-.1396484.1201172-.2197266.2265625-.2265625.5195312-.4863281.8798828-.7802734.2128906-.1865234.40625-.3603516.5800781-.5195312.1728516-.1601562.2597656-.2607422.2597656-.2998047,0-.1464844-.2734375-.2675781-.8203125-.3603516-.4931641-.0927734-.9628906-.2626953-1.4091797-.5107422-.4472656-.2460938-.7705078-.4824219-.9707031-.7089844-.0527344-.0664062-.1035156-.1464844-.1503906-.2402344s-.0693359-.1738281-.0693359-.2402344c0-.0527344.0126953-.0800781.0400391-.0800781l.0800781.0195312c.0400391.0273438.1025391.0644531.1894531.1113281s.2099609.109375.3701172.1894531c.3203125.1601562.7197266.2929688,1.2001953.4003906.4804688.1064453.90625.1601562,1.2802734.1601562.359375,0,.7724609-.0332031,1.2392578-.1005859.4804688-.0537109.8134766-.0800781,1-.0800781.1601562,0,.3007812.0205078.4199219.0595703.5742188.2001953.8603516.4873047.8603516.8603516,0,.1601562-.0693359.2802734-.2099609.3603516-.1396484.0800781-.4501953.1464844-.9296875.1992188-1.1074219.1474609-2.2939453.7207031-3.5605469,1.7207031-.1328125.09375-.2333984.1396484-.2998047.1396484s-.0996094-.0263672-.0996094-.0800781Z"/>
        <path class="cls-1" d="m194.1177844,28.6245774c.6132812.6191406.9199219,1.4570312.9199219,2.5097656,0,1.4667969-.6298828,2.6298828-1.8896484,3.4902344-1.2597656.859375-3.0966797,1.3632812-5.5097656,1.5097656h-.1201172c-.1738281,0-.2607422-.0400391-.2607422-.1201172s.1074219-.1337891.3203125-.1601562c1.8535156-.2265625,3.3369141-.7431641,4.4501953-1.5498047s1.6699219-1.9501953,1.6699219-3.4296875c0-.7597656-.1796875-1.3730469-.5400391-1.8398438-.359375-.4667969-.9003906-.7011719-1.6201172-.7011719-.5996094,0-1.1669922.1601562-1.7001953.4804688s-.9892578.703125-1.3691406,1.1503906c-.3808594.4472656-.6572266.8496094-.8300781,1.2099609-.2138672.453125-.4609375.6796875-.7402344.6796875-.1738281,0-.3398438-.0996094-.5-.2998047-.2265625-.2802734-.3730469-.59375-.4404297-.9394531-.0664062-.3476562-.0996094-.7539062-.0996094-1.2207031,0-.4931641.0527344-1.1396484.1601562-1.9394531.1064453-.8007812.2724609-1.8808594.5-3.2402344.0263672-.2128906.0527344-.3603516.0800781-.4404297-1.5605469-.0527344-2.6269531-.6201172-3.2001953-1.7001953-.0537109-.1054688-.0800781-.1855469-.0800781-.2402344,0-.1191406.046875-.1796875.1396484-.1796875.0673828,0,.1933594.0742188.3798828.2207031.6806641.5595703,1.4404297.8398438,2.2802734.8398438.2802734,0,.4931641-.0068359.6396484-.0195312.2138672-1.3066406.3203125-2.1074219.3203125-2.4003906,0-.3730469-.1533203-.6875-.4599609-.9404297-.0537109-.0400391-.1064453-.0761719-.1601562-.1103516-.0537109-.0332031-.0966797-.0664062-.1298828-.0996094s-.0498047-.0703125-.0498047-.109375c0-.09375.1132812-.1669922.3398438-.2207031.2265625-.0527344.4404297-.0800781.6396484-.0800781.3867188,0,.703125.0703125.9501953.2109375.2470703.1386719.3701172.3564453.3701172.6494141,0,.1064453-.0371094.2763672-.109375.5097656-.0742188.2333984-.1240234.3837891-.1503906.4501953.7460938.4931641,1.3466797.7666016,1.7998047.8203125.3730469.0390625.6396484.0761719.7998047.109375s.2734375.1035156.3398438.2109375c.0410156.0527344.0605469.1259766.0605469.21875,0,.2402344-.1367188.4902344-.4101562.75-.2734375.2607422-.6230469.4707031-1.0498047.6308594-.2802734.1064453-.6396484.203125-1.0800781.2890625-.4404297.0878906-.8935547.1445312-1.3603516.1708984-.3466797,1.8525391-.5195312,3.3193359-.5195312,4.3994141,0,.9072266.1132812,1.3603516.3398438,1.3603516.0927734,0,.2666016-.0927734.5195312-.2802734.5205078-.4130859,1.1367188-.7734375,1.8505859-1.0800781.7128906-.3066406,1.3896484-.4589844,2.0302734-.4589844,1.0390625,0,1.8662109.3095703,2.4794922.9296875Zm-6.4794922-6.0097656c.7060547-.09375,1.2324219-.2207031,1.5800781-.3808594.2128906-.0927734.3193359-.1796875.3193359-.2597656,0-.0263672-.0332031-.0859375-.0996094-.1796875-.0800781-.09375-.2607422-.2363281-.5400391-.4296875-.2802734-.1933594-.5273438-.3300781-.7402344-.4101562-.2802734.7871094-.453125,1.3398438-.5195312,1.6601562Z"/>
        <path class="cls-1" d="m206.7379016,35.6148118c0-.0673828.0371094-.1142578.1103516-.140625.0732422-.0273438.1826172-.0527344.3291016-.0800781,2.1210938-.359375,3.7304688-.9335938,4.8300781-1.7197266,1.1005859-.7861328,1.6503906-1.7939453,1.6503906-3.0205078,0-.7460938-.1767578-1.3330078-.5302734-1.7597656-.3525391-.4257812-.8564453-.6396484-1.5097656-.6396484-.5996094,0-1.1572266.2392578-1.6699219.7197266-.5136719.4804688-1.0898438,1.2070312-1.7294922,2.1796875-.1201172.1875-.296875.3505859-.5302734.4902344-.2333984.140625-.4169922.2099609-.5498047.2099609-1.2402344,0-1.8603516-.7392578-1.8603516-2.2197266,0-.6269531.0732422-1.8330078.2197266-3.6201172.0800781-1.0400391.1201172-1.5800781.1201172-1.6201172,0-.0800781-.0195312-.2792969-.0595703-.5996094-.0400391-.1201172-.0605469-.2539062-.0605469-.4003906,0-.2529297.0605469-.4570312.1796875-.609375.1210938-.1542969.3134766-.3505859.5800781-.5898438.2001953-.1738281.4267578-.3271484.6806641-.4609375.2529297-.1328125.5800781-.2861328.9794922-.4599609.3730469-.1464844.6464844-.2695312.8203125-.3701172.1728516-.0996094.2597656-.203125.2597656-.3095703,0-.1337891-.1132812-.2998047-.3398438-.5s-.4667969-.3730469-.7197266-.5205078c-.0400391-.0263672-.0966797-.0566406-.1699219-.0898438s-.1103516-.0703125-.1103516-.109375c0-.0410156.0830078-.0703125.25-.0898438.1669922-.0205078.296875-.0302734.390625-.0302734.5195312,0,.9765625.1025391,1.3691406.3095703.3935547.2070312.7236328.5634766.9902344,1.0703125.1064453.1865234.1601562.4003906.1601562.6396484,0,.2402344-.0664062.4443359-.2001953.6103516-.1337891.1669922-.2734375.25-.4199219.25-.1064453,0-.203125-.0302734-.2900391-.0898438-.0869141-.0605469-.1435547-.0966797-.1699219-.1103516-.1464844-.1064453-.2871094-.1865234-.4199219-.2392578-.1337891-.0537109-.3066406-.0800781-.5195312-.0800781-.6269531,0-1.2939453.2392578-2,.71875-.1601562.1074219-.2802734.2402344-.3603516.4003906s-.1201172.3203125-.1201172.4804688c0,.1191406.046875.2597656.1396484.4199219.1337891.2666016.2001953.5195312.2001953.7597656,0,.1464844-.046875.6074219-.1396484,1.3798828-.1875,1.5595703-.2802734,2.5068359-.2802734,2.8408203,0,.359375.0566406.6933594.1699219,1s.2636719.4589844.4501953.4589844c.1064453,0,.2363281-.0429688.3896484-.1289062.1533203-.0878906.3164062-.1904297.4902344-.3105469.1728516-.1201172.2998047-.2070312.3798828-.2597656.7197266-.5205078,1.3701172-.9267578,1.9501953-1.2207031.5800781-.2929688,1.1962891-.4394531,1.8496094-.4394531.6005859,0,1.1337891.1630859,1.6005859.4902344.4658203.3261719.8300781.75,1.0898438,1.2695312s.3896484,1.0605469.3896484,1.6201172c0,.5732422-.1298828,1.1269531-.3896484,1.6601562s-.9541016,1.0791016-2.0800781,1.6396484c-1.1269531.5605469-2.84375.9931641-5.1503906,1.3007812-.1591797.0253906-.2861328.0390625-.3798828.0390625-.1728516,0-.2597656-.0390625-.2597656-.1191406Z"/>
      </g>
      <polyline class="cls-2" points="228.6399264 18.0359829 246.4385449 27.1634796 228.6399264 36.5648012"/>
    </g>
  </g>
</svg>