<?xml version="1.0" encoding="UTF-8"?>
<svg id="_レイヤー_2" data-name="レイヤー 2" xmlns="http://www.w3.org/2000/svg" viewBox="0 0 591.5114613 55.1097791">
  <defs>
    <style>
      .cls-1 {
        fill: none;
        stroke: #231815;
        stroke-miterlimit: 10;
        stroke-width: .5px;
      }

      .cls-2 {
        fill: #231815;
      }
    </style>
  </defs>
  <g id="_レイヤー_1-2" data-name="レイヤー 1">
    <rect class="cls-1" x=".25" y=".25" width="591.0114613" height="54.6097791"/>
    <g>
      <g>
        <path class="cls-2" d="m200.1404644,23.6355075c.0522461-.0517578.1342773-.15625.2470703-.3115234.112793-.15625.2211914-.234375.3251953-.234375.1386719,0,.4199219.1953125.8447266.5839844.4248047.390625.6977539.7070312.8193359.9492188.0341797.0703125.0083008.1484375-.078125.234375-.1386719.1210938-.4160156.2080078-.8320312.2597656,0,2.5996094-.0605469,4.4375-.1816406,5.5117188-.121582,1.0761719-.3554688,1.7861328-.7021484,2.1328125-.347168.3808594-.8671875.5976562-1.5600586.6503906-.1391602,0-.2080078-.0703125-.2080078-.2089844-.0351562-.3984375-.1298828-.6933594-.2861328-.8837891-.121582-.1552734-.4072266-.2939453-.8579102-.4160156-.121582-.0166016-.1821289-.0869141-.1821289-.2080078v-.0517578c0-.1386719.0693359-.2080078.2080078-.2080078.4506836.0517578.8842773.078125,1.300293.078125.2944336,0,.4936523-.0527344.5976562-.15625.15625-.1904297.2641602-.7539062.3251953-1.6894531.0605469-.9365234.0996094-2.5048828.1171875-4.7070312l-2.9643555,1.1191406v2.8076172c.0522461,2.3232422.112793,4.0908203.1821289,5.3037109,0,.0693359-.0258789.1474609-.078125.234375-.1210938.15625-.3032227.2949219-.5458984.4160156-.2431641.1210938-.4853516.1816406-.7280273.1816406-.1391602,0-.2597656-.0517578-.3637695-.15625-.1040039-.1035156-.15625-.2246094-.15625-.3632812.1210938-1.5429688.1992188-3.2324219.234375-5.0703125v-2.8085938l-2.7041016,1.0146484v8.5019531c0,.2949219.0908203.4990234.2729492.6103516.1821289.1132812.5673828.1699219,1.1567383.1699219h3.1459961c1.5947266,0,2.5742188-.0263672,2.9379883-.078125.1733398-.0175781.2993164-.0390625.3769531-.0654297.078125-.0263672.1518555-.0820312.2211914-.1689453.2080078-.2597656.4331055-.9619141.6762695-2.1054688.0166016-.1210938.0947266-.1826172.2338867-.1826172.1040039,0,.1557617.0693359.1557617.2080078l.0522461,2.1064453c.2944336.0869141.4980469.1816406.6108398.2861328.1123047.1035156.1689453.2421875.1689453.4160156,0,.2773438-.1430664.4892578-.4287109.6367188-.2861328.1464844-.8154297.2509766-1.5859375.3125-.7714844.0605469-1.9287109.0898438-3.4711914.0898438h-3.25c-.7280273,0-1.2832031-.0566406-1.6640625-.1679688-.3813477-.1132812-.6499023-.3037109-.8061523-.5722656-.1557617-.2695312-.2338867-.6542969-.2338867-1.1572266v-8.2939453l-2.3398438.8837891c-.0874023.0351562-.1733398.0087891-.2602539-.0771484l-.3120117-.390625c-.121582,2.6699219-.3164062,4.7451172-.5849609,6.2265625-.269043,1.4824219-.628418,2.4658203-1.0791016,2.9511719-.2597656.2949219-.5849609.5244141-.9750977.6894531-.3896484.1640625-.8100586.2558594-1.2607422.2734375-.1386719,0-.2080078-.0703125-.2080078-.2089844-.0351562-.4335938-.1650391-.7539062-.3901367-.9619141-.2250977-.2255859-.7885742-.4248047-1.6899414-.5976562-.1386719-.0351562-.2080078-.1123047-.2080078-.2333984v-.0527344c0-.0683594.0214844-.1210938.0649414-.15625.043457-.0341797.0996094-.0429688.1694336-.0253906,1.3339844.1210938,2.1835938.1816406,2.5478516.1816406.2250977,0,.3984375-.0175781.5200195-.0517578.1206055-.0341797.2426758-.1123047.3637695-.234375.6757812-.7099609,1.109375-4.3076172,1.2998047-10.7900391h-2.7558594c-.1733398,2.7734375-.5810547,5.2353516-1.2216797,7.3847656-.6416173,2.1484375-1.7075195,4.0546875-3.1982422,5.71875-.1040039.1044922-.2080078.1044922-.3120117,0l-.1298828-.1289062c-.0869141-.0878906-.0952148-.1826172-.0258789-.2871094,1.0048828-1.5244141,1.7460938-3.2226562,2.2226562-5.0957031.4765625-1.8710938.7670898-3.7001953.8710938-5.4863281.1040039-1.7841797.1645508-4.046875.1821289-6.7851562h-.9619141c-.4511719.0175781-.9448242.1132812-1.4819336.2851562-.121582.0527344-.2080078.0175781-.2602539-.1035156l-.4418945-.8837891c-.0175781-.0166016-.0258789-.0517578-.0258789-.1044922,0-.0859375.0600586-.1289062.1821289-.1289062.831543.0859375,1.7587891.1464844,2.7817383.1816406h1.4301758c0-1.7509766-.0957031-3.3369141-.2861328-4.7578125,0-.1738281.0864258-.234375.2597656-.1826172.8491211.2607422,1.4384766.4638672,1.7680664.6113281.3291016.1474609.4941406.2822266.4941406.4033203,0,.0517578-.0698242.1289062-.2080078.2333984l-.3901367.2607422v3.4316406h1.5859375l.5200195-.7802734c.0522461-.0869141.1342773-.2041016.2470703-.3505859.112793-.1474609.2036133-.2597656.2729492-.3378906s.1386719-.1171875.2080078-.1171875c.1386719,0,.480957.2382812,1.0273438.7148438.5458984.4765625.8793945.8447266,1.0009766,1.1054688l.0258789.1035156c0,.1386719-.0610352.2421875-.1821289.3125-.121582.0683594-.2773438.1035156-.4677734.1035156h-5.3300781c-.0351562,1.7675781-.078125,3.0859375-.1298828,3.9511719h2.4956055l.3901367-.5195312c.0517578-.0683594.1386719-.1777344.2597656-.3242188.1210938-.1474609.234375-.2216797.3383789-.2216797.1557617,0,.4506836.1826172.8837891.5458984.4331055.3642578.7104492.6679688.8320312.9101562.0522461.0693359.034668.1474609-.0522461.234375-.1557617.15625-.4506836.2597656-.8837891.3115234-.034668,1.1611328-.0693359,2.0283203-.1040039,2.6005859l2.9121094-1.0917969v-2.2363281c0-.8144531-.034668-1.5078125-.1040039-2.0800781,0-.1738281.0864258-.2246094.2597656-.15625,1.2651367.4335938,1.8984375.7636719,1.8984375.9882812,0,.0869141-.0698242.1738281-.2080078.2597656l-.4160156.2597656v2.4179688l2.7041016-1.0136719v-2.3398438c0-.8496094-.0351562-1.5771484-.1044922-2.1835938,0-.1738281.0869141-.234375.2602539-.1826172.7280273.2431641,1.2387695.4384766,1.5336914.5849609.2949219.1474609.4423828.28125.4423828.4023438,0,.0703125-.078125.1660156-.234375.2871094l-.4418945.2851562v2.6005859l2.6000977-.9882812.1040039-.0517578.3637695-.5458984Zm-.2597656-4.8623047c.0517578-.0683594.1298828-.1777344.2338867-.3242188.1040039-.1484375.1953125-.2607422.2729492-.3388672.078125-.0771484.1518555-.1162109.2211914-.1162109.1386719,0,.4897461.2382812,1.0532227.7148438.5629883.4765625.9052734.8359375,1.0268555,1.078125.0170898.0878906.0170898.1738281,0,.2597656-.1040039.1914062-.3037109.2871094-.5981445.2871094h-9.59375c-1.0058594,1.6289062-2.1152344,2.9296875-3.328125,3.8994141-.1040039.0869141-.2080078.078125-.3120117-.0263672l-.0258789-.0253906c-.0869141-.0859375-.0957031-.1816406-.0263672-.2861328.6933594-.8662109,1.3955078-2.0185547,2.1064453-3.4580078.3461914-.7451172.6625977-1.625.9487305-2.6386719s.4633789-1.8945312.5332031-2.6386719c.034668-.15625.1206055-.2089844.2597656-.15625.8842773.2949219,1.503418.5234375,1.8588867.6884766s.5332031.2998047.5332031.4033203c0,.0517578-.078125.1132812-.2338867.1816406l-.4682617.1816406c-.3466797.9716797-.8149414,2.0019531-1.4038086,3.0947266h6.421875l.5200195-.7802734Z"/>
        <path class="cls-2" d="m223.9305034,18.1228122c.0693359-.0859375.1601562-.2109375.2734375-.3769531.1123047-.1640625.2080078-.2851562.2856445-.3632812.078125-.078125.1518555-.1171875.2211914-.1171875.15625,0,.5415039.2558594,1.1572266.7675781.6147461.5107422.9916992.8964844,1.1308594,1.15625l.0258789.1035156c0,.1396484-.0649414.2480469-.1948242.3261719-.1298828.0771484-.2905273.1162109-.4814453.1162109h-8.3457031v16.25h6.9941406l.5976562-.8320312c.0693359-.0869141.1601562-.2119141.2734375-.3769531.1123047-.1650391.2080078-.2861328.2856445-.3642578.078125-.078125.1518555-.1171875.2211914-.1171875.1557617,0,.5415039.2558594,1.1567383.7675781s.9921875.8964844,1.1313477,1.1572266c.0166016.0869141.0083008.1728516-.0263672.2597656-.1035156.1904297-.3032227.2861328-.5976562.2861328h-17.9140625c-1.109375.0175781-2.3491211.1298828-3.7182617.3378906h-.0776367c-.0698242,0-.1303711-.0429688-.1821289-.1298828l-.4682617-.9365234c-.0175781-.0166016-.0258789-.0517578-.0258789-.1035156,0-.0859375.0605469-.1298828.1821289-.1298828.953125.0869141,2.0107422.1474609,3.171875.1816406h7.2539062v-16.25h-4.4199219c-1.109375.0175781-2.3486328.1298828-3.7177734.3388672h-.078125c-.0693359,0-.1298828-.0439453-.1821289-.1308594l-.4677734-.9355469c-.0175781-.0175781-.0258789-.0527344-.0258789-.1044922,0-.0869141.0605469-.1298828.1816406-.1298828.953125.0869141,2.0107422.1474609,3.171875.1816406h12.6103516l.5976562-.8320312Z"/>
        <path class="cls-2" d="m249.61898,26.5466403c.0517578-.0683594.1166992-.1552734.1948242-.2597656.0776367-.1035156.1469727-.1816406.2080078-.2333984.0605469-.0517578.1254883-.078125.1948242-.078125.1386719,0,.4506836.1992188.9360352.5986328.4848633.3984375.7885742.71875.9101562.9609375.0517578.0878906.034668.1738281-.0522461.2597656-.2255859.2089844-.5546875.3476562-.987793.4160156v2.0800781h.6240234l.4936523-.7792969c.0693359-.0869141.1518555-.203125.2470703-.3515625.0952148-.1464844.1777344-.2558594.2470703-.3242188.0693359-.0693359.1386719-.1044922.2080078-.1044922.15625,0,.4897461.2333984,1.0009766.7021484.5112305.4677734.8276367.8320312.9492188,1.0917969.0170898.0869141.0083008.1738281-.0263672.2597656-.1035156.1914062-.3032227.2861328-.5976562.2861328h-3.1459961v1.3525391l.0522461,1.0917969c0,.2773438.0166016.7109375.0517578,1.2998047.0170898.0693359,0,.1474609-.0517578.2333984-.1391602.15625-.347168.2998047-.6240234.4296875-.277832.1298828-.5292969.1953125-.7543945.1953125-.1557617,0-.269043-.1308594-.3378906-.390625,0-.0341797.0170898-.1210938.0522461-.2597656,0-.0175781.0166016-.1123047.0517578-.2861328v-.4931641h-5.5117188v2.1835938c0,.5019531-.0610352.9140625-.1821289,1.234375-.121582.3203125-.3774414.5898438-.7670898.8066406-.3901367.2167969-.9667969.3671875-1.7290039.4550781h-.0522461c-.0869141,0-.1474609-.0605469-.1816406-.1816406-.121582-.46875-.3378906-.7890625-.6503906-.9628906-.4331055-.2949219-1.1958008-.5117188-2.2875977-.6503906-.1391602-.0341797-.2080078-.1123047-.2080078-.2333984,0-.1552734.0688477-.2158203.2080078-.1826172l.6499023.0527344c1.5424805.1210938,2.4960938.1816406,2.8598633.1816406.2602539,0,.4375-.0478516.5332031-.1425781.0952148-.0957031.1430664-.2558594.1430664-.4804688v-2.0800781h-3.3803711c-1.109375.0166016-2.3486328.1289062-3.7177734.3378906h-.078125c-.0693359,0-.1298828-.0429688-.1821289-.1308594l-.4677734-.8837891c-.0175781-.0166016-.0258789-.0517578-.0258789-.1044922,0-.0859375.0688477-.1289062.2080078-.1289062.9360352.0859375,1.984375.1464844,3.1459961.1816406h4.4980469v-2.4443359h-6.1621094c-1.109375.0175781-2.3491211.1298828-3.7182617.3388672h-.0776367c-.0698242,0-.1303711-.0439453-.1821289-.1308594l-.4418945-.9355469c-.0175781-.0175781-.0263672-.0527344-.0263672-.1035156,0-.0878906.0605469-.1308594.1821289-.1308594.953125.0869141,2.0107422.1474609,3.1723633.1816406h7.2539062v-2.3916016h-3.2241211c-1.1098633.0175781-2.3491211.1298828-3.7182617.3378906h-.078125c-.0693359,0-.1298828-.0429688-.1816406-.1298828l-.4677734-.9355469c-.0175781-.0175781-.0263672-.0527344-.0263672-.1044922,0-.0869141.0605469-.1298828.1821289-.1298828.953125.0869141,2.0102539.1474609,3.171875.1816406h4.3422852v-2.3916016h-5.4082031v.8320312c0,.0869141-.1518555.1943359-.4550781.3251953-.3032227.1298828-.6025391.1953125-.8969727.1953125-.1040039,0-.190918-.0527344-.2602539-.15625-.0693359-.1044922-.1035156-.2255859-.1035156-.3642578.0341797-.2080078.0776367-.7275391.1298828-1.5595703v-1.0664062c0-1.1269531-.0522461-2.1152344-.15625-2.9638672v-.0517578c0-.0693359.0214844-.1171875.0654297-.1435547.0429688-.0263672.0991211-.0214844.1689453.0126953l1.6899414.8320312h5.2260742v-2.0537109h-6.1103516c-1.109375.0175781-2.3486328.1298828-3.7177734.3378906h-.078125c-.0693359,0-.1298828-.0429688-.1821289-.1298828l-.4677734-.9355469c-.0175781-.0175781-.0258789-.0527344-.0258789-.1044922,0-.0869141.0605469-.1298828.1816406-.1298828.953125.0869141,2.0107422.1474609,3.171875.1816406h7.2285156c0-.8662109-.0439453-1.7158203-.1303711-2.5478516,0-.1728516.078125-.2333984.2338867-.1816406.8149414.2431641,1.3867188.4462891,1.7163086.6103516.3291016.1660156.4941406.3085938.4941406.4296875,0,.0869141-.0698242.1738281-.2080078.2597656l-.4418945.2861328v1.1435547h7.0195312l.5722656-.7792969c.0688477-.0869141.1601562-.2041016.2729492-.3515625.112793-.1464844.2080078-.2597656.2861328-.3378906.0776367-.078125.1513672-.1171875.2207031-.1171875.1386719,0,.5024414.2431641,1.0922852.7285156.5888672.4853516.953125.8496094,1.0917969,1.0917969.0170898.0869141.0170898.1738281,0,.2597656-.1040039.1914062-.3037109.2861328-.5976562.2861328h-9.9580078v2.0537109h5.1474609l.4160156-.4941406c.0522461-.0507812.1386719-.1503906.2602539-.2988281.1210938-.1464844.2338867-.2207031.3378906-.2207031.15625,0,.480957.1816406.9750977.5458984s.8017578.6591797.9228516.8837891c.0522461.0703125.034668.1484375-.0517578.234375-.2255859.2080078-.5458984.3466797-.9619141.4160156v1.1445312l.0517578.9101562c0,.2421875.0170898.6064453.0522461,1.0917969,0,.1035156-.0258789.1816406-.078125.2333984-.1391602.1396484-.347168.2685547-.6240234.3896484-.2773438.1220703-.5288086.1826172-.7539062.1826172h-.078125c-.1391602,0-.2080078-.0693359-.2080078-.2080078v-.7021484h-5.4077148v2.3916016h5.2519531l.4160156-.5722656Zm-12.7402344-5.1738281v2.6005859h5.4082031v-2.6005859h-5.4082031Zm12.4799805,2.6005859v-2.6005859h-5.4077148v2.6005859h5.4077148Zm.1040039,3.9257812h-5.5117188v2.3916016h5.5117188v-2.3916016Zm-5.5117188,5.6162109h5.5117188v-2.4443359h-5.5117188v2.4443359Z"/>
        <path class="cls-2" d="m260.1487651,24.4411715c-.7109375,1.3867188-1.4389648,2.5917969-2.184082,3.6142578-.0869141.1210938-.1816406.1386719-.2861328.0517578l-.0517578-.0253906c-.1040039-.0703125-.1298828-.1650391-.078125-.2871094,1.0224609-2.0273438,1.9501953-4.4541016,2.7822266-7.2792969.2421875-.8144531.4633789-1.7333984.6630859-2.7558594.1987305-1.0234375.315918-1.8886719.3505859-2.5996094,0-.0703125.0214844-.1210938.0654297-.15625.0429688-.0351562.0996094-.0351562.1689453,0,.8837891.2597656,1.4951172.4677734,1.8330078.6230469.3378906.15625.5068359.2871094.5068359.390625,0,.0693359-.078125.1386719-.234375.2080078l-.4414062.1826172c-.5722656,1.9921875-1.2138672,3.8388672-1.9243164,5.5371094.6586914.4863281.987793.8320312.987793,1.0400391,0,.1044922-.0776367.1826172-.2333984.234375l-.3642578.1552734v8.7363281c.0341797,2.1669922.1040039,4.1523438.2080078,5.9541016,0,.1044922-.0351562.1904297-.1040039.2607422-.1557617.1552734-.3637695.2890625-.6240234.4023438-.2602539.1123047-.5112305.1689453-.7543945.1689453-.1386719,0-.2685547-.0517578-.3896484-.1552734-.121582-.1044922-.1821289-.2265625-.1821289-.3652344.0688477-1.0224609.1303711-2.0146484.1821289-2.9765625s.0864258-2.2226562.1040039-3.7832031v-7.1757812Zm10.659668-8.0078125c.0522461-.0693359.1303711-.1777344.234375-.3251953s.1948242-.2597656.2729492-.3378906c.0776367-.078125.1518555-.1171875.2211914-.1171875.1386719,0,.4804688.234375,1.0268555.7021484.5458984.46875.8793945.8242188,1.0009766,1.0664062.0170898.0351562.0258789.078125.0258789.1289062,0,.1220703-.0649414.2216797-.1948242.2998047-.1303711.078125-.2817383.1162109-.4550781.1162109h-4.8359375c-.277832,1.5957031-.5717773,2.9121094-.8842773,3.953125h2.8862305l.3901367-.5205078c.0517578-.0693359.1386719-.1767578.2597656-.3251953.1210938-.1464844.234375-.2207031.3378906-.2207031.1386719,0,.4199219.1992188.8452148.5976562.4243164.3994141.6889648.7197266.7929688.9628906.0522461.0859375.034668.1728516-.0522461.2597656-.1386719.1035156-.4160156.1816406-.8320312.234375-.5029297,3.5351562-1.3740234,6.6210938-2.612793,9.2558594-1.2397461,2.6347656-3.1850586,4.8007812-5.8369141,6.5-.1040039.0859375-.199707.0683594-.2861328-.0527344l-.0258789-.0517578c-.0869141-.1220703-.078125-.2167969.0258789-.2861328,2.1489258-1.7324219,3.7739258-3.9296875,4.875-6.5908203,1.1005859-2.6611328,1.8413086-5.6630859,2.2231445-9.0087891h-3.2241211c-.3120117,1.0390625-.7368164,2.1230469-1.2739258,3.25,1.0742188.3984375,1.8671875.8671875,2.3789062,1.4042969.5112305.5371094.7670898,1.0390625.7670898,1.5078125,0,.2597656-.0693359.4726562-.2080078.6367188-.1391602.1640625-.3208008.2470703-.5458984.2470703-.1391602,0-.3032227-.0517578-.4941406-.15625-.0693359-.0341797-.1298828-.1044922-.1821289-.2080078-.1557617-.4335938-.4199219-.9101562-.7929688-1.4296875-.3730469-.5205078-.7841797-1.0136719-1.2348633-1.4824219-.7631836,1.421875-1.6206055,2.6699219-2.5737305,3.7441406-.1044922.1035156-.2080078.1035156-.3125,0l-.0517578-.0517578c-.0869141-.0869141-.0957031-.1826172-.0258789-.2861328,2.027832-3.0332031,3.3452148-6.9941406,3.9516602-11.8828125h-.8574219c-.3994141.0175781-.8066406.1132812-1.2226562.2871094-.1210938.0517578-.2080078.0175781-.2597656-.1044922l-.4418945-.9091797c-.0175781-.0175781-.0258789-.0527344-.0258789-.1044922,0-.0869141.0605469-.1298828.1816406-.1298828.953125.0859375,2.0107422.1464844,3.171875.1816406h3.328125l.5458984-.7539062Zm2.6005859,7.1503906c0-1.8896484-.0957031-3.5800781-.2861328-5.0703125v-.0527344c0-.1386719.078125-.1816406.2338867-.1289062,1.4731445.4160156,2.2099609.7451172,2.2099609.9873047,0,.0869141-.0698242.1738281-.2080078.2607422l-.4160156.2597656v6.7851562c.034668,2.1679688.1040039,4.1523438.2080078,5.9550781,0,.0859375-.0258789.1728516-.0776367.2597656-.15625.1738281-.3603516.3164062-.6113281.4287109-.2514648.1123047-.4985352.1689453-.7412109.1689453-.1557617,0-.2817383-.0517578-.3769531-.15625-.0952148-.1035156-.1425781-.2246094-.1425781-.3632812.1035156-1.4736328.1728516-2.9648438.2080078-4.4726562v-4.8613281Zm4.4980469-3.0429688c0-1.8886719-.0957031-3.578125-.2861328-5.0693359v-.0517578c0-.1386719.078125-.1826172.2338867-.1308594.8666992.2597656,1.4643555.4648438,1.7939453.6113281.3291016.1474609.4936523.2822266.4936523.4033203,0,.0869141-.0776367.1728516-.2333984.2597656l-.4423828.2861328v19.578125c0,.5019531-.0566406.9140625-.1689453,1.234375-.112793.3203125-.3427734.5898438-.6889648.8066406-.347168.2167969-.8666992.3671875-1.5600586.4550781h-.0517578c-.0869141,0-.1474609-.0605469-.1821289-.1816406-.121582-.46875-.3032227-.8066406-.5463867-1.0146484-.3637695-.2607422-1.0488281-.4677734-2.0537109-.6240234-.1386719-.0351562-.2080078-.1035156-.2080078-.2080078v-.0263672c0-.15625.0693359-.2167969.2080078-.1816406,1.5253906.1210938,2.5478516.1816406,3.0683594.1816406.2246094,0,.3852539-.0429688.4804688-.1289062.0952148-.0878906.1435547-.2431641.1435547-.46875v-15.7304688Z"/>
        <path class="cls-2" d="m290.9324565,24.4157809c0,.0683594-.0253906.1816406-.0776367.3378906-.6416016,1.8203125-1.1958008,3.5351562-1.6640625,5.1474609s-.7016602,2.7470703-.7016602,3.40625c0,.2597656.0776367.8232422.2333984,1.6904297.1386719.6933594.2080078,1.1347656.2080078,1.3261719,0,.2421875-.0605469.4453125-.1816406.6103516-.121582.1650391-.2861328.2470703-.4941406.2470703-.3291016,0-.5893555-.1035156-.7802734-.3125-.1904297-.2070312-.4160156-.5371094-.6757812-.9882812-.6416016-1.0390625-.9619141-2.5556641-.9619141-4.5488281,0-.9707031.0908203-2.1328125.2729492-3.484375s.4116027-2.7041016.6889648-4.0566406c.0693359-.3115234.1123047-.5371094.1298828-.6757812.1210938-.5371094.2255859-1.0605469.3125-1.5722656.0859375-.5117188.1298828-.9492188.1298828-1.3134766,0-.4326172-.0307617-.7539062-.0913086-.9619141-.0610352-.2080078-.2036133-.5117188-.4291992-.9101562-.0517578-.1035156-.0776367-.1816406-.0776367-.234375,0-.0683594.0214844-.1289062.0649414-.1816406.0429688-.0517578.0996094-.078125.1689453-.078125.1040039,0,.2509766.078125.4423828.234375.4160156.3984375.7929688.8710938,1.1308594,1.4169922s.5068359,1.0703125.5068359,1.5732422c0,.3466797-.0566406.7109375-.1689453,1.0917969-.1132812.3808594-.2905273.8925781-.5332031,1.5332031l-.3637695.9882812c-.3120117.8847656-.5463867,1.7900391-.7021484,2.7167969-.1557617.9277344-.2338867,1.7910156-.2338867,2.5878906,0,.953125.1123047,1.4296875.3378906,1.4296875.1386719,0,.3076172-.2119141.5068359-.6367188s.4897461-1.1132812.8710938-2.0673828c.5722656-1.4384766,1.1699219-2.8339844,1.7939453-4.1865234.0693359-.171875.15625-.2597656.2602539-.2597656.0522461,0,.0776367.0439453.0776367.1308594Zm13.9365234,11.3359375c0,.1904297-.0615234.3632812-.1821289.5195312-.121582.15625-.277832.234375-.4682617.234375-.2255859,0-.4589844-.0820312-.7021484-.2480469-.2426758-.1640625-.4853516-.3544922-.7275391-.5712891-.2431641-.2158203-.4248047-.3769531-.5458984-.4814453-.347168-.2939453-.7021484-.5449219-1.0664062-.7539062-.2426758-.1386719-.4677734-.2597656-.6757812-.3632812-.0517578.9882812-.3818359,1.7597656-.9882812,2.3134766-.6064453.5546875-1.5336914.8320312-2.7817383.8320312-1.0229492,0-1.9155273-.2294922-2.6782227-.6884766s-1.1435547-1.1230469-1.1435547-1.9892578c0-1.0048828.5283203-1.6904297,1.5859375-2.0537109,1.0566406-.3642578,2.0625-.546875,3.015625-.546875.5205078,0,.9882812.0351562,1.4042969.1044922,0-.4501953-.0087891-.9101562-.0263672-1.3779297-.0175781-.46875-.034668-.9179688-.0517578-1.3515625l-.1040039-4.2128906c-.1557617.0351562-.3901367.0703125-.7016602.1044922-.1220703.0166016-.3125.0263672-.5722656.0263672-.7626953,0-1.4082031-.1435547-1.9370117-.4296875-.5288086-.2851562-1.0185547-.7675781-1.4692383-1.4433594-.0869141-.1210938-.1298828-.2333984-.1298828-.3378906,0-.1210938.0517578-.1816406.15625-.1816406.0517578,0,.1337891.0390625.2470703.1171875.1123047.078125.1855469.1347656.2207031.1689453.2426758.1904297.515625.3554688.8193359.4941406.3027344.1386719.6972656.2080078,1.1826172.2080078.4506836,0,1.1699219-.1035156,2.1582031-.3125-.0175781-.5888672-.0263672-1.4121094-.0263672-2.4697266v-1.3261719c0-.7451172-.3730469-1.2910156-1.1176758-1.6376953-.1557617-.0869141-.2338867-.1640625-.2338867-.234375,0-.1035156.0996094-.1992188.2988281-.2851562.1992188-.0869141.5332031-.1308594,1.0009766-.1308594.5024414,0,.9575195.1523438,1.3652344.4550781.4067383.3037109.6108398.6113281.6108398.9238281,0,.0341797-.0522461.2070312-.1557617.5195312-.1220703.2421875-.2080078.4765625-.2602539.7011719-.0698242.3300781-.1040039.5117188-.1040039.546875.796875.6074219,1.4472656.9707031,1.9501953,1.0917969.1557617.0351562.3681641.078125.6367188.1298828s.4550781.1123047.559082.1826172c.1040039.0683594.1733398.1728516.2080078.3115234.034668.1044922.0522461.2167969.0522461.3378906,0,.3818359-.3383789.7451172-1.0146484,1.0927734-1.0917969.5195312-1.9755859.8828125-2.6513672,1.0917969v.1552734c0,1.5595703.1464844,3.5009766.4414062,5.8242188.0351562.2597656.0957031.7978516.1826172,1.6123047,1.5766602.4677734,2.8076172,1.1435547,3.6914062,2.0273438.4853516.4863281.7285156.9199219.7285156,1.3007812Zm-6.7080078-.2089844c.4677734-.328125.7275391-1.0214844.7797852-2.0800781-.8496094-.2597656-1.6557617-.3886719-2.4179688-.3886719-.6938477,0-1.3305664.0996094-1.9111328.2988281s-.8706055.5498047-.8706055,1.0527344c0,.5546875.2988281.9619141.8964844,1.2216797.5981445.2607422,1.2001953.3896484,1.8071289.3896484.6762695,0,1.2480469-.1640625,1.7163086-.4941406Zm1.7158203-12.3232422c1.0571289-.3466797,1.5859375-.6416016,1.5859375-.8837891,0-.0869141-.1171875-.2304688-.3510742-.4296875s-.4462891-.3671875-.637207-.5068359c-.1904297-.1386719-.3378906-.2509766-.4414062-.3378906l-.15625,2.1582031Z"/>
        <path class="cls-2" d="m318.2195659,36.4138278c-1.03125-.2167969-1.8583984-.5664062-2.4833984-1.0527344-.796875-.6240234-1.1953125-1.4824219-1.1953125-2.5742188,0-.484375.0517578-.8837891.15625-1.1953125.1035156-.3300781.2070312-.4941406.3115234-.4941406.1386719,0,.2080078.1640625.2080078.4941406v.3896484c0,1.0751953.6328125,1.8544922,1.8984375,2.3398438.8320312.3115234,1.8544922.4677734,3.0673828.4677734.9882812,0,2.3662109-.1464844,4.1337891-.4414062,1.0234375-.15625,1.6816406-.234375,1.9765625-.234375.4501953,0,.7929688.0878906,1.0273438.2597656.2333984.1738281.3505859.4082031.3505859.703125,0,.484375-.4335938.8574219-1.2998047,1.1171875-.5205078.15625-1.2089844.2861328-2.0673828.390625-.8583984.1035156-1.7548828.15625-2.6904297.15625-1.2314453,0-2.3623047-.109375-3.3935547-.3261719Zm.6113281-12.1806641c0-.0869141.0517578-.1826172.1552734-.2861328.2949219-.2949219.6767578-.6328125,1.1445312-1.0136719.2773438-.2421875.5283203-.46875.7539062-.6757812.2246094-.2089844.3378906-.3378906.3378906-.390625,0-.1904297-.3554688-.3457031-1.0654297-.4677734-.6416016-.1210938-1.2529297-.3417969-1.8330078-.6630859-.5810547-.3203125-1.0009766-.6279297-1.2617188-.9228516-.0693359-.0869141-.1337891-.1904297-.1943359-.3115234-.0615234-.1210938-.0908203-.2255859-.0908203-.3125,0-.0683594.0166016-.1035156.0517578-.1035156l.1035156.0253906c.0517578.0351562.1337891.0820312.2470703.1425781.1132812.0615234.2734375.1435547.4814453.2480469.4160156.2070312.9355469.3808594,1.5595703.5195312s1.1787109.2080078,1.6640625.2080078c.4677734,0,1.0048828-.0429688,1.6123047-.1298828.6240234-.0693359,1.0566406-.1035156,1.2998047-.1035156.2080078,0,.390625.0253906.5458984.078125.7451172.2597656,1.1181641.6328125,1.1181641,1.1171875,0,.2080078-.0908203.3642578-.2734375.46875-.1816406.1035156-.5849609.1904297-1.2089844.2597656-1.4384766.1904297-2.9814453.9355469-4.6279297,2.2353516-.1728516.1220703-.3037109.1826172-.3896484.1826172-.0869141,0-.1298828-.0351562-.1298828-.1044922Z"/>
        <path class="cls-2" d="m352.8650737,28.5876559c.796875.8066406,1.1953125,1.8945312,1.1953125,3.2636719,0,1.90625-.8183594,3.4189453-2.4570312,4.5371094-1.6376953,1.1171875-4.0253906,1.7714844-7.1621094,1.9628906h-.15625c-.2255859,0-.3378906-.0527344-.3378906-.15625s.1386719-.1738281.4160156-.2080078c2.4081832-.2949219,4.3369141-.9658203,5.7851562-2.0146484,1.4462891-1.0488281,2.1699219-2.5351562,2.1699219-4.4589844,0-.9882812-.2333984-1.7851562-.7011719-2.3925781-.46875-.6054688-1.1699219-.9101562-2.1064453-.9101562-.7802734,0-1.5166016.2089844-2.2099609.625s-1.2871094.9140625-1.78125,1.4941406c-.4941406.5820312-.8535156,1.1054688-1.078125,1.5732422-.2783203.5898438-.5986328.8837891-.9628906.8837891-.2246094,0-.4414062-.1289062-.6494141-.3896484-.2949219-.3642578-.4853516-.7705078-.5722656-1.2216797s-.1298828-.9794922-.1298828-1.5859375c0-.6416016.0693359-1.4824219.2080078-2.5224609s.3544922-2.4443359.6494141-4.2119141c.0351562-.2773438.0693359-.4677734.1044922-.5722656-2.0283203-.0683594-3.4150391-.8056641-4.1601562-2.2089844-.0693359-.1386719-.1035156-.2431641-.1035156-.3125,0-.15625.0605469-.234375.1816406-.234375.0869141,0,.2509766.0957031.4941406.2861328.8837891.7275391,1.8720703,1.0917969,2.9638672,1.0917969.3642578,0,.640625-.0087891.8320312-.0263672.2773438-1.6972656.4160156-2.7382812.4160156-3.1191406,0-.4853516-.1992188-.8925781-.5976562-1.2226562-.0703125-.0517578-.1386719-.0996094-.2080078-.1425781s-.1259766-.0859375-.1689453-.1298828c-.0439453-.0429688-.0654297-.0908203-.0654297-.1435547,0-.1210938.1474609-.2167969.4423828-.2851562.2939453-.0693359.5722656-.1044922.8320312-.1044922.5019531,0,.9140625.0908203,1.234375.2724609.3203125.1826172.4814453.4648438.4814453.8457031,0,.1386719-.0478516.359375-.1435547.6630859s-.1601562.4980469-.1943359.5849609c.9697266.640625,1.75.9960938,2.3398438,1.0664062.4853516.0507812.8320312.0996094,1.0400391.1425781s.3554688.1347656.4413863.2734375c.0527544.0683594.078145.1640625.078145.2851562,0,.3125-.1777344.6367188-.5332031.9746094-.3554688.3388672-.8105469.6113281-1.3642578.8203125-.3642578.1386719-.8320312.2636719-1.4042969.3769531-.5722656.1123047-1.1611328.1855469-1.7685547.2207031-.4501953,2.4091797-.6757812,4.3164062-.6757812,5.7197266,0,1.1787109.1474609,1.7685547.4423828,1.7685547.1210938,0,.3466797-.1210938.6757812-.3652344.6767578-.5371094,1.4775391-1.0039062,2.4052734-1.4033203.9267578-.3984375,1.8066406-.5986328,2.6386719-.5986328,1.3525391,0,2.4267578.4042969,3.2246094,1.2089844Zm-8.4238281-7.8125c.9179688-.1210938,1.6025391-.2851562,2.0537109-.4941406.2763473-.1210938.4160156-.234375.4160156-.3378906,0-.0341797-.0439453-.1123047-.1298828-.234375-.1044922-.1210938-.3378906-.3066406-.7021484-.5585938-.3642578-.2509766-.6845703-.4287109-.9619141-.5332031-.3642578,1.0234375-.5898438,1.7421875-.6757812,2.1582031Z"/>
        <path class="cls-2" d="m369.2713032,37.6755465c0-.0878906.0468955-.1484375.1425986-.1816406.0947266-.0351562.2382812-.0703125.4287109-.1044922,2.7558594-.4677734,4.8486328-1.2138672,6.2792969-2.2363281,1.4296875-1.0224609,2.1445312-2.3310547,2.1445312-3.9257812,0-.9707031-.2294922-1.7333984-.6884766-2.2880859-.4599609-.5546875-1.1142578-.8320312-1.9628906-.8320312-.7802734,0-1.5039062.3125-2.171875.9355469-.6669922.625-1.4160156,1.5693359-2.2480469,2.8339844-.15625.2441406-.3867188.4550781-.6894531.6376953-.3037109.1816406-.5419922.2724609-.7148438.2724609-1.6123047,0-2.4179688-.9609375-2.4179688-2.8857422,0-.8144531.0947266-2.3828125.2861328-4.7060547.1035156-1.3515625.1552734-2.0537109.1552734-2.1054688,0-.1044922-.0253906-.3642578-.078125-.7802734-.0517578-.15625-.0771484-.3291016-.0771484-.5205078,0-.328125.0771484-.59375.2333984-.7929688s.4072266-.4550781.7538858-.7666016c.2607627-.2255859.554708-.4248047.8847861-.5986328.328125-.171875.7539062-.3720703,1.2734375-.5976562.4853516-.1904297.8408203-.3505859,1.0664062-.4804688.2246094-.1308594.3378906-.2636719.3378906-.4033203,0-.1728516-.1474609-.3896484-.4423828-.6494141s-.6064453-.4853516-.9355469-.6757812c-.0517578-.0351562-.1259766-.0742188-.2216797-.1171875-.0947266-.0429688-.1425781-.0917969-.1425781-.1435547s.1083984-.0908203.3251953-.1171875.3857422-.0380859.5068359-.0380859c.6757812,0,1.2695312.1337891,1.78125.4023438.5107422.2695312.9394531.7324219,1.2871094,1.390625.1386719.2431641.2080078.5205078.2080078.8320312,0,.3125-.0869141.5761719-.2607422.7929688-.1728516.2167969-.3554688.3251953-.5458984.3251953-.1386719,0-.2646484-.0390625-.3769531-.1162109-.1123047-.078125-.1865234-.1259766-.2207031-.1435547-.1904297-.1386719-.3730469-.2431641-.5458984-.3115234-.1738281-.0703125-.3984375-.1044922-.6757812-.1044922-.8154297,0-1.6816406.3115234-2.6005859.9365234-.2080078.1386719-.3642578.3115234-.4677734.5195312s-.15625.4160156-.15625.6240234c0,.1552734.0605469.3378906.1826172.5458984.1728516.3466797.2597656.6757812.2597656.9882812,0,.1904297-.0615234.7890625-.1826172,1.7929688-.2421875,2.0292969-.3632812,3.2597656-.3632812,3.6933594,0,.4667969.0732422.9003906.2207031,1.2988281.1474609.3994141.3417969.5986328.5849609.5986328.1386719,0,.3076172-.0556641.5068359-.1689453s.4121094-.2470703.6367188-.4033203c.2255859-.1552734.390625-.2685547.4941406-.3378906.9365234-.6757812,1.78125-1.2041016,2.5351562-1.5859375.7539062-.3808594,1.5556641-.5722656,2.4052734-.5722656.7802734,0,1.4736328.2128906,2.0800781.6376953.6064453.4238281,1.0791016.9746094,1.4169922,1.6503906s.5068359,1.3779297.5068359,2.1054688c0,.7460938-.1689453,1.4658203-.5068359,2.1582031-.3378906.6933594-1.2392578,1.4042969-2.7041016,2.1328125-1.4648438.7275391-3.6962891,1.2910156-6.6953125,1.6894531-.2080078.0351562-.3720703.0527344-.4931641.0527344-.2255859,0-.3379111-.0527344-.3379111-.15625Z"/>
      </g>
      <polyline class="cls-1" points="395.542152 17.8726294 413.3407705 27.0001261 395.542152 36.4014477"/>
    </g>
  </g>
</svg>